G04 #@! TF.GenerationSoftware,KiCad,Pcbnew,no-vcs-found-1848834~58~ubuntu16.04.1*
G04 #@! TF.CreationDate,2017-06-18T23:28:25-07:00*
G04 #@! TF.ProjectId,DrGreenThumb,4472477265656E5468756D622E6B6963,rev?*
G04 #@! TF.FileFunction,Copper,L1,Top,Signal*
G04 #@! TF.FilePolarity,Positive*
%FSLAX46Y46*%
G04 Gerber Fmt 4.6, Leading zero omitted, Abs format (unit mm)*
G04 Created by KiCad (PCBNEW no-vcs-found-1848834~58~ubuntu16.04.1) date Sun Jun 18 23:28:25 2017*
%MOMM*%
%LPD*%
G01*
G04 APERTURE LIST*
%ADD10C,0.100000*%
%ADD11R,2.500000X2.000000*%
%ADD12C,2.000000*%
%ADD13C,3.810000*%
%ADD14C,3.556000*%
%ADD15C,1.500000*%
%ADD16C,1.524000*%
%ADD17C,3.000000*%
%ADD18C,6.000000*%
%ADD19R,2.000000X2.000000*%
%ADD20R,1.000000X1.250000*%
%ADD21R,1.250000X1.000000*%
%ADD22O,2.500000X4.000000*%
%ADD23O,1.600000X1.600000*%
%ADD24R,1.600000X1.600000*%
%ADD25R,0.450000X1.450000*%
%ADD26R,1.700000X1.700000*%
%ADD27O,1.700000X1.700000*%
%ADD28R,0.700000X1.300000*%
%ADD29R,1.300000X0.700000*%
%ADD30C,1.750000*%
%ADD31C,1.000000*%
%ADD32C,0.500000*%
%ADD33C,0.750000*%
%ADD34C,1.500000*%
%ADD35C,0.300000*%
%ADD36C,0.400000*%
G04 APERTURE END LIST*
D10*
D11*
X147066000Y-82582000D03*
X147066000Y-86582000D03*
D12*
X160164214Y-59072214D03*
D10*
G36*
X158573224Y-59248991D02*
X160340991Y-57481224D01*
X161755204Y-58895437D01*
X159987437Y-60663204D01*
X158573224Y-59248991D01*
X158573224Y-59248991D01*
G37*
D12*
X157335786Y-56243786D03*
D10*
G36*
X155744796Y-56420563D02*
X157512563Y-54652796D01*
X158926776Y-56067009D01*
X157159009Y-57834776D01*
X155744796Y-56420563D01*
X155744796Y-56420563D01*
G37*
D13*
X153848958Y-75072059D03*
X160198958Y-75072059D03*
X153848958Y-81422059D03*
D14*
X157023958Y-78247059D03*
D13*
X160198958Y-81422059D03*
D12*
X124984000Y-126904000D03*
X130064000Y-131984000D03*
X115080000Y-132080000D03*
X110000000Y-127000000D03*
D15*
X124968000Y-72644000D03*
X122428000Y-72644000D03*
X141478000Y-77724000D03*
X141478000Y-75184000D03*
X141478000Y-72644000D03*
X113538000Y-70104000D03*
X116078000Y-70104000D03*
X118618000Y-70104000D03*
X121158000Y-70104000D03*
X123698000Y-70104000D03*
X126238000Y-70104000D03*
X128778000Y-70104000D03*
X131318000Y-70104000D03*
X133858000Y-70104000D03*
X136398000Y-70104000D03*
X138938000Y-70104000D03*
X141478000Y-70104000D03*
X141478000Y-85344000D03*
X138938000Y-85344000D03*
X136398000Y-85344000D03*
X133858000Y-85344000D03*
X131318000Y-85344000D03*
X128778000Y-85344000D03*
X126238000Y-85344000D03*
X123698000Y-85344000D03*
X121158000Y-85344000D03*
X118618000Y-85344000D03*
X116078000Y-85344000D03*
X113538000Y-85344000D03*
D16*
X111506000Y-94380000D03*
X114046000Y-94380000D03*
X116586000Y-94380000D03*
X119126000Y-94380000D03*
X121666000Y-94380000D03*
X124206000Y-94380000D03*
X124206000Y-96920000D03*
D17*
X70000000Y-164000000D03*
D12*
X71000000Y-143000000D03*
X71000000Y-157000000D03*
D18*
X135000000Y-138000000D03*
D12*
X137000000Y-147500000D03*
X137000000Y-156500000D03*
D19*
X105540000Y-88000000D03*
X103000000Y-88000000D03*
X100460000Y-88000000D03*
X97920000Y-88000000D03*
D20*
X162730991Y-70890260D03*
X160730991Y-70890260D03*
D21*
X149423358Y-64664260D03*
X149423358Y-66664260D03*
X152423358Y-66664260D03*
X152423358Y-64664260D03*
D20*
X162730991Y-68604260D03*
X160730991Y-68604260D03*
D22*
X57000000Y-123000000D03*
X57000000Y-145000000D03*
D23*
X155000000Y-118920000D03*
X147380000Y-141780000D03*
X155000000Y-121460000D03*
X147380000Y-139240000D03*
X155000000Y-124000000D03*
X147380000Y-136700000D03*
X155000000Y-126540000D03*
X147380000Y-134160000D03*
X155000000Y-129080000D03*
X147380000Y-131620000D03*
X155000000Y-131620000D03*
X147380000Y-129080000D03*
X155000000Y-134160000D03*
X147380000Y-126540000D03*
X155000000Y-136700000D03*
X147380000Y-124000000D03*
X155000000Y-139240000D03*
X147380000Y-121460000D03*
X155000000Y-141780000D03*
D24*
X147380000Y-118920000D03*
D25*
X155849401Y-64422059D03*
X156499401Y-64422059D03*
X157149401Y-64422059D03*
X157799401Y-64422059D03*
X157799401Y-68822059D03*
X157149401Y-68822059D03*
X156499401Y-68822059D03*
X155849401Y-68822059D03*
D26*
X57000000Y-155460000D03*
D27*
X57000000Y-158000000D03*
X57000000Y-160540000D03*
X57000000Y-163080000D03*
X163000000Y-112080000D03*
X163000000Y-109540000D03*
X163000000Y-107000000D03*
D26*
X163000000Y-104460000D03*
X163000000Y-88380000D03*
D27*
X163000000Y-90920000D03*
X163000000Y-93460000D03*
X163000000Y-96000000D03*
X57000000Y-57460000D03*
X57000000Y-60000000D03*
X57000000Y-62540000D03*
D26*
X57000000Y-65080000D03*
D27*
X160528000Y-156464000D03*
X157988000Y-156464000D03*
X155448000Y-156464000D03*
X152908000Y-156464000D03*
X150368000Y-156464000D03*
X147828000Y-156464000D03*
X145288000Y-156464000D03*
D26*
X142748000Y-156464000D03*
D28*
X160780991Y-66228071D03*
X162680991Y-66228071D03*
X155616758Y-61111260D03*
X157516758Y-61111260D03*
D29*
X160833958Y-62320260D03*
X160833958Y-64220260D03*
D30*
X123698000Y-64770000D03*
X121158000Y-64770000D03*
X123698000Y-62230000D03*
X121158000Y-62230000D03*
X123698000Y-59690000D03*
X121158000Y-59690000D03*
X123698000Y-57150000D03*
X121158000Y-57150000D03*
D10*
G36*
X57823513Y-74003611D02*
X57896318Y-74014411D01*
X57967714Y-74032295D01*
X58037013Y-74057090D01*
X58103548Y-74088559D01*
X58166678Y-74126398D01*
X58225795Y-74170242D01*
X58280330Y-74219670D01*
X58329758Y-74274205D01*
X58373602Y-74333322D01*
X58411441Y-74396452D01*
X58442910Y-74462987D01*
X58467705Y-74532286D01*
X58485589Y-74603682D01*
X58496389Y-74676487D01*
X58500000Y-74750000D01*
X58500000Y-82250000D01*
X58496389Y-82323513D01*
X58485589Y-82396318D01*
X58467705Y-82467714D01*
X58442910Y-82537013D01*
X58411441Y-82603548D01*
X58373602Y-82666678D01*
X58329758Y-82725795D01*
X58280330Y-82780330D01*
X58225795Y-82829758D01*
X58166678Y-82873602D01*
X58103548Y-82911441D01*
X58037013Y-82942910D01*
X57967714Y-82967705D01*
X57896318Y-82985589D01*
X57823513Y-82996389D01*
X57750000Y-83000000D01*
X56250000Y-83000000D01*
X56176487Y-82996389D01*
X56103682Y-82985589D01*
X56032286Y-82967705D01*
X55962987Y-82942910D01*
X55896452Y-82911441D01*
X55833322Y-82873602D01*
X55774205Y-82829758D01*
X55719670Y-82780330D01*
X55670242Y-82725795D01*
X55626398Y-82666678D01*
X55588559Y-82603548D01*
X55557090Y-82537013D01*
X55532295Y-82467714D01*
X55514411Y-82396318D01*
X55503611Y-82323513D01*
X55500000Y-82250000D01*
X55500000Y-74750000D01*
X55503611Y-74676487D01*
X55514411Y-74603682D01*
X55532295Y-74532286D01*
X55557090Y-74462987D01*
X55588559Y-74396452D01*
X55626398Y-74333322D01*
X55670242Y-74274205D01*
X55719670Y-74219670D01*
X55774205Y-74170242D01*
X55833322Y-74126398D01*
X55896452Y-74088559D01*
X55962987Y-74057090D01*
X56032286Y-74032295D01*
X56103682Y-74014411D01*
X56176487Y-74003611D01*
X56250000Y-74000000D01*
X57750000Y-74000000D01*
X57823513Y-74003611D01*
X57823513Y-74003611D01*
G37*
D17*
X57000000Y-78500000D03*
D10*
G36*
X57823513Y-107003611D02*
X57896318Y-107014411D01*
X57967714Y-107032295D01*
X58037013Y-107057090D01*
X58103548Y-107088559D01*
X58166678Y-107126398D01*
X58225795Y-107170242D01*
X58280330Y-107219670D01*
X58329758Y-107274205D01*
X58373602Y-107333322D01*
X58411441Y-107396452D01*
X58442910Y-107462987D01*
X58467705Y-107532286D01*
X58485589Y-107603682D01*
X58496389Y-107676487D01*
X58500000Y-107750000D01*
X58500000Y-115250000D01*
X58496389Y-115323513D01*
X58485589Y-115396318D01*
X58467705Y-115467714D01*
X58442910Y-115537013D01*
X58411441Y-115603548D01*
X58373602Y-115666678D01*
X58329758Y-115725795D01*
X58280330Y-115780330D01*
X58225795Y-115829758D01*
X58166678Y-115873602D01*
X58103548Y-115911441D01*
X58037013Y-115942910D01*
X57967714Y-115967705D01*
X57896318Y-115985589D01*
X57823513Y-115996389D01*
X57750000Y-116000000D01*
X56250000Y-116000000D01*
X56176487Y-115996389D01*
X56103682Y-115985589D01*
X56032286Y-115967705D01*
X55962987Y-115942910D01*
X55896452Y-115911441D01*
X55833322Y-115873602D01*
X55774205Y-115829758D01*
X55719670Y-115780330D01*
X55670242Y-115725795D01*
X55626398Y-115666678D01*
X55588559Y-115603548D01*
X55557090Y-115537013D01*
X55532295Y-115467714D01*
X55514411Y-115396318D01*
X55503611Y-115323513D01*
X55500000Y-115250000D01*
X55500000Y-107750000D01*
X55503611Y-107676487D01*
X55514411Y-107603682D01*
X55532295Y-107532286D01*
X55557090Y-107462987D01*
X55588559Y-107396452D01*
X55626398Y-107333322D01*
X55670242Y-107274205D01*
X55719670Y-107219670D01*
X55774205Y-107170242D01*
X55833322Y-107126398D01*
X55896452Y-107088559D01*
X55962987Y-107057090D01*
X56032286Y-107032295D01*
X56103682Y-107014411D01*
X56176487Y-107003611D01*
X56250000Y-107000000D01*
X57750000Y-107000000D01*
X57823513Y-107003611D01*
X57823513Y-107003611D01*
G37*
D17*
X57000000Y-111500000D03*
D10*
G36*
X87823513Y-79503611D02*
X87896318Y-79514411D01*
X87967714Y-79532295D01*
X88037013Y-79557090D01*
X88103548Y-79588559D01*
X88166678Y-79626398D01*
X88225795Y-79670242D01*
X88280330Y-79719670D01*
X88329758Y-79774205D01*
X88373602Y-79833322D01*
X88411441Y-79896452D01*
X88442910Y-79962987D01*
X88467705Y-80032286D01*
X88485589Y-80103682D01*
X88496389Y-80176487D01*
X88500000Y-80250000D01*
X88500000Y-87750000D01*
X88496389Y-87823513D01*
X88485589Y-87896318D01*
X88467705Y-87967714D01*
X88442910Y-88037013D01*
X88411441Y-88103548D01*
X88373602Y-88166678D01*
X88329758Y-88225795D01*
X88280330Y-88280330D01*
X88225795Y-88329758D01*
X88166678Y-88373602D01*
X88103548Y-88411441D01*
X88037013Y-88442910D01*
X87967714Y-88467705D01*
X87896318Y-88485589D01*
X87823513Y-88496389D01*
X87750000Y-88500000D01*
X86250000Y-88500000D01*
X86176487Y-88496389D01*
X86103682Y-88485589D01*
X86032286Y-88467705D01*
X85962987Y-88442910D01*
X85896452Y-88411441D01*
X85833322Y-88373602D01*
X85774205Y-88329758D01*
X85719670Y-88280330D01*
X85670242Y-88225795D01*
X85626398Y-88166678D01*
X85588559Y-88103548D01*
X85557090Y-88037013D01*
X85532295Y-87967714D01*
X85514411Y-87896318D01*
X85503611Y-87823513D01*
X85500000Y-87750000D01*
X85500000Y-80250000D01*
X85503611Y-80176487D01*
X85514411Y-80103682D01*
X85532295Y-80032286D01*
X85557090Y-79962987D01*
X85588559Y-79896452D01*
X85626398Y-79833322D01*
X85670242Y-79774205D01*
X85719670Y-79719670D01*
X85774205Y-79670242D01*
X85833322Y-79626398D01*
X85896452Y-79588559D01*
X85962987Y-79557090D01*
X86032286Y-79532295D01*
X86103682Y-79514411D01*
X86176487Y-79503611D01*
X86250000Y-79500000D01*
X87750000Y-79500000D01*
X87823513Y-79503611D01*
X87823513Y-79503611D01*
G37*
D17*
X87000000Y-84000000D03*
D10*
G36*
X87823513Y-101503611D02*
X87896318Y-101514411D01*
X87967714Y-101532295D01*
X88037013Y-101557090D01*
X88103548Y-101588559D01*
X88166678Y-101626398D01*
X88225795Y-101670242D01*
X88280330Y-101719670D01*
X88329758Y-101774205D01*
X88373602Y-101833322D01*
X88411441Y-101896452D01*
X88442910Y-101962987D01*
X88467705Y-102032286D01*
X88485589Y-102103682D01*
X88496389Y-102176487D01*
X88500000Y-102250000D01*
X88500000Y-109750000D01*
X88496389Y-109823513D01*
X88485589Y-109896318D01*
X88467705Y-109967714D01*
X88442910Y-110037013D01*
X88411441Y-110103548D01*
X88373602Y-110166678D01*
X88329758Y-110225795D01*
X88280330Y-110280330D01*
X88225795Y-110329758D01*
X88166678Y-110373602D01*
X88103548Y-110411441D01*
X88037013Y-110442910D01*
X87967714Y-110467705D01*
X87896318Y-110485589D01*
X87823513Y-110496389D01*
X87750000Y-110500000D01*
X86250000Y-110500000D01*
X86176487Y-110496389D01*
X86103682Y-110485589D01*
X86032286Y-110467705D01*
X85962987Y-110442910D01*
X85896452Y-110411441D01*
X85833322Y-110373602D01*
X85774205Y-110329758D01*
X85719670Y-110280330D01*
X85670242Y-110225795D01*
X85626398Y-110166678D01*
X85588559Y-110103548D01*
X85557090Y-110037013D01*
X85532295Y-109967714D01*
X85514411Y-109896318D01*
X85503611Y-109823513D01*
X85500000Y-109750000D01*
X85500000Y-102250000D01*
X85503611Y-102176487D01*
X85514411Y-102103682D01*
X85532295Y-102032286D01*
X85557090Y-101962987D01*
X85588559Y-101896452D01*
X85626398Y-101833322D01*
X85670242Y-101774205D01*
X85719670Y-101719670D01*
X85774205Y-101670242D01*
X85833322Y-101626398D01*
X85896452Y-101588559D01*
X85962987Y-101557090D01*
X86032286Y-101532295D01*
X86103682Y-101514411D01*
X86176487Y-101503611D01*
X86250000Y-101500000D01*
X87750000Y-101500000D01*
X87823513Y-101503611D01*
X87823513Y-101503611D01*
G37*
D17*
X87000000Y-106000000D03*
D31*
X155448000Y-104394000D03*
X147066000Y-90424000D03*
X147066000Y-95504000D03*
X144526000Y-104460000D03*
X152908000Y-89154000D03*
X111636000Y-107442000D03*
X130810000Y-91186000D03*
X151054958Y-68096260D03*
X162738958Y-69747260D03*
X162680991Y-67334260D03*
X159309958Y-68858260D03*
X99060000Y-133350000D03*
X157734000Y-93472000D03*
X109474000Y-58927992D03*
X111200013Y-81000000D03*
X110109000Y-81915000D03*
X109474014Y-57404000D03*
X155832014Y-52832000D03*
X157607000Y-62420500D03*
X154368500Y-68834000D03*
X157099000Y-71882000D03*
D32*
X147066000Y-90424000D02*
X147066000Y-86582000D01*
D33*
X105540000Y-88000000D02*
X107290000Y-88000000D01*
X107290000Y-88000000D02*
X108000000Y-87290000D01*
X108000000Y-87290000D02*
X108000000Y-75642000D01*
X108000000Y-75642000D02*
X113538000Y-70104000D01*
D34*
X147066000Y-104460000D02*
X155382000Y-104460000D01*
X155382000Y-104460000D02*
X155448000Y-104394000D01*
D33*
X114046000Y-104460000D02*
X114046000Y-94380000D01*
D34*
X105540000Y-89662000D02*
X105540000Y-88000000D01*
X112842000Y-104460000D02*
X108966000Y-100584000D01*
X105540000Y-89662000D02*
X108966000Y-93088000D01*
X108966000Y-93088000D02*
X108966000Y-100584000D01*
X114046000Y-104460000D02*
X112842000Y-104460000D01*
X144526000Y-104460000D02*
X114046000Y-104460000D01*
D32*
X147066000Y-104460000D02*
X147066000Y-95504000D01*
D34*
X147066000Y-104460000D02*
X144526000Y-104460000D01*
D33*
X144780000Y-124060000D02*
X144780000Y-134100000D01*
X144780000Y-134100000D02*
X147380000Y-136700000D01*
X147380000Y-121460000D02*
X144780000Y-124060000D01*
D34*
X116078000Y-69043340D02*
X116078000Y-70104000D01*
X57000000Y-61214000D02*
X108248660Y-61214000D01*
X108248660Y-61214000D02*
X116078000Y-69043340D01*
X154674000Y-90920000D02*
X152908000Y-89154000D01*
X163000000Y-90920000D02*
X154674000Y-90920000D01*
X70000000Y-164000000D02*
X76792000Y-164000000D01*
X76792000Y-164000000D02*
X81026000Y-159766000D01*
X109000000Y-164000000D02*
X135000000Y-138000000D01*
X81026000Y-159766000D02*
X88138000Y-159766000D01*
X88138000Y-159766000D02*
X92372000Y-164000000D01*
X92372000Y-164000000D02*
X109000000Y-164000000D01*
X163000000Y-107000000D02*
X161797919Y-107000000D01*
X161797919Y-107000000D02*
X160528000Y-108269919D01*
X160528000Y-108269919D02*
X160528000Y-114808000D01*
X135000000Y-130806000D02*
X111636000Y-107442000D01*
X135000000Y-138000000D02*
X135000000Y-130806000D01*
X103000000Y-98806000D02*
X111636000Y-107442000D01*
X103000000Y-88000000D02*
X103000000Y-98806000D01*
X57000000Y-158000000D02*
X57000000Y-159258000D01*
X57000000Y-159258000D02*
X57000000Y-160540000D01*
X65512000Y-159512000D02*
X57254000Y-159512000D01*
X57254000Y-159512000D02*
X57000000Y-159258000D01*
X70000000Y-164000000D02*
X65512000Y-159512000D01*
X57000000Y-61214000D02*
X57000000Y-62540000D01*
X57000000Y-60000000D02*
X57000000Y-61214000D01*
X160528000Y-114808000D02*
X160528000Y-117063370D01*
X160528000Y-137383370D02*
X160528000Y-121158000D01*
X160528000Y-121158000D02*
X160528000Y-118587370D01*
X160528000Y-114808000D02*
X160528000Y-121158000D01*
X160528000Y-117063370D02*
X159766000Y-117825370D01*
X155000000Y-141780000D02*
X156131370Y-141780000D01*
X156131370Y-141780000D02*
X160528000Y-137383370D01*
X160528000Y-118587370D02*
X159766000Y-117825370D01*
X147380000Y-141780000D02*
X155000000Y-141780000D01*
X147380000Y-139240000D02*
X147380000Y-141780000D01*
X163000000Y-107000000D02*
X164202081Y-107000000D01*
X164202081Y-90920000D02*
X163000000Y-90920000D01*
X164202081Y-107000000D02*
X165862000Y-105340081D01*
X165862000Y-105340081D02*
X165862000Y-92579919D01*
X165862000Y-92579919D02*
X164202081Y-90920000D01*
X159766000Y-117825370D02*
X156131370Y-121460000D01*
X156131370Y-121460000D02*
X155000000Y-121460000D01*
X116078000Y-70104000D02*
X116078000Y-71164660D01*
X116078000Y-71164660D02*
X122637340Y-77724000D01*
X122637340Y-77724000D02*
X141478000Y-77724000D01*
D32*
X122383340Y-77978000D02*
X122637340Y-77724000D01*
D34*
X121158000Y-85344000D02*
X121158000Y-79203340D01*
X121158000Y-79203340D02*
X122383340Y-77978000D01*
X124714000Y-91186000D02*
X121158000Y-87630000D01*
X121158000Y-87630000D02*
X121158000Y-85344000D01*
X130810000Y-91186000D02*
X124714000Y-91186000D01*
D32*
X122682000Y-67818000D02*
X123698000Y-66802000D01*
X123698000Y-66802000D02*
X123698000Y-64770000D01*
X118364000Y-67818000D02*
X122682000Y-67818000D01*
X116078000Y-70104000D02*
X118364000Y-67818000D01*
D34*
X147380000Y-139240000D02*
X136240000Y-139240000D01*
X136240000Y-139240000D02*
X135000000Y-138000000D01*
D32*
X151054958Y-66664260D02*
X151054958Y-68096260D01*
X151054958Y-66664260D02*
X152423358Y-66664260D01*
X149423358Y-66664260D02*
X151054958Y-66664260D01*
X162738958Y-69747260D02*
X162730991Y-69755227D01*
X162730991Y-69755227D02*
X162730991Y-70890260D01*
X162730991Y-68604260D02*
X162730991Y-69739293D01*
X162730991Y-69739293D02*
X162738958Y-69747260D01*
X162680991Y-66228071D02*
X162680991Y-67334260D01*
X162680991Y-67334260D02*
X162680991Y-68554260D01*
X158867357Y-68822059D02*
X159273757Y-68822059D01*
X159273757Y-68822059D02*
X159309958Y-68858260D01*
X162680991Y-68554260D02*
X162730991Y-68604260D01*
D35*
X157799401Y-68822059D02*
X158867357Y-68822059D01*
D34*
X99060000Y-90678000D02*
X99060000Y-133350000D01*
D32*
X99060000Y-90678000D02*
X99282000Y-90678000D01*
X99282000Y-90678000D02*
X100460000Y-89500000D01*
X100460000Y-89500000D02*
X100460000Y-88000000D01*
X99060000Y-90678000D02*
X97920000Y-89538000D01*
X97920000Y-89538000D02*
X97920000Y-88000000D01*
X147054000Y-93460000D02*
X157722000Y-93460000D01*
X157722000Y-93460000D02*
X157734000Y-93472000D01*
X141478000Y-85344000D02*
X141478000Y-87884000D01*
X141478000Y-87884000D02*
X147054000Y-93460000D01*
X111259001Y-86513001D02*
X111259001Y-81058988D01*
X119126000Y-94380000D02*
X111259001Y-86513001D01*
X111259001Y-81058988D02*
X111200013Y-81000000D01*
X108766894Y-58927992D02*
X109474000Y-58927992D01*
X108069990Y-56851998D02*
X108069990Y-58231088D01*
X110197000Y-54724988D02*
X108069990Y-56851998D01*
X108069990Y-58231088D02*
X108766894Y-58927992D01*
X124828988Y-54724988D02*
X110197000Y-54724988D01*
X138938000Y-70104000D02*
X138938000Y-68834000D01*
X138938000Y-68834000D02*
X124828988Y-54724988D01*
X110109000Y-82622106D02*
X110109000Y-81915000D01*
X116586000Y-94380000D02*
X110109000Y-87903000D01*
X110109000Y-87903000D02*
X110109000Y-82622106D01*
X111253015Y-55624999D02*
X109474014Y-57404000D01*
X124430001Y-55624999D02*
X111253015Y-55624999D01*
X133858000Y-65052998D02*
X124430001Y-55624999D01*
X133858000Y-70104000D02*
X133858000Y-65052998D01*
X157335786Y-56243786D02*
X157335786Y-54335772D01*
X157335786Y-54335772D02*
X155832014Y-52832000D01*
X141478000Y-75184000D02*
X142748000Y-75184000D01*
X142748000Y-75184000D02*
X144272000Y-73660000D01*
X144272000Y-73660000D02*
X144272000Y-64717598D01*
X144272000Y-64717598D02*
X147878338Y-61111260D01*
X147878338Y-61111260D02*
X155616758Y-61111260D01*
X155616758Y-61111260D02*
X155616758Y-62320260D01*
X155616758Y-62320260D02*
X156033358Y-62736860D01*
D35*
X156499401Y-63202903D02*
X156033358Y-62736860D01*
X156499401Y-64422059D02*
X156499401Y-63202903D01*
D32*
X160198958Y-75072059D02*
X160198958Y-81422059D01*
X160198958Y-81422059D02*
X153848958Y-81422059D01*
X153848958Y-81422059D02*
X153848958Y-75072059D01*
X160730991Y-70890260D02*
X160730991Y-74540026D01*
X160730991Y-74540026D02*
X160198958Y-75072059D01*
X160780991Y-66228071D02*
X160780991Y-64273227D01*
X160780991Y-64273227D02*
X160833958Y-64220260D01*
X160730991Y-68604260D02*
X160730991Y-66278071D01*
X160730991Y-66278071D02*
X160780991Y-66228071D01*
X160730991Y-70890260D02*
X160730991Y-68604260D01*
X158843959Y-64422059D02*
X160606159Y-64422059D01*
D35*
X157799401Y-64422059D02*
X158843959Y-64422059D01*
D32*
X157162500Y-63119000D02*
X157162500Y-62865000D01*
X157162500Y-62865000D02*
X157607000Y-62420500D01*
D35*
X157162500Y-63119000D02*
X157162500Y-64383959D01*
D32*
X157516758Y-61111260D02*
X157516758Y-62330258D01*
X157516758Y-62330258D02*
X157607000Y-62420500D01*
D35*
X157162500Y-64383959D02*
X157124400Y-64422059D01*
X154368500Y-68834000D02*
X154380441Y-68822059D01*
X154380441Y-68822059D02*
X155849401Y-68822059D01*
X156499401Y-68822059D02*
X155849401Y-68822059D01*
D32*
X147066000Y-82582000D02*
X147066000Y-65896618D01*
X147066000Y-65896618D02*
X148298358Y-64664260D01*
X148298358Y-64664260D02*
X149423358Y-64664260D01*
X152676860Y-64410758D02*
X152423358Y-64664260D01*
X149340478Y-64747140D02*
X149423358Y-64664260D01*
X149423358Y-64664260D02*
X152423358Y-64664260D01*
X154534758Y-64413260D02*
X152674358Y-64413260D01*
X152674358Y-64413260D02*
X152423358Y-64664260D01*
D35*
X155849401Y-64422059D02*
X155026157Y-64422059D01*
X155026157Y-64422059D02*
X155017358Y-64413260D01*
X155017358Y-64413260D02*
X154534758Y-64413260D01*
D32*
X157149401Y-70147060D02*
X157149401Y-71831599D01*
X157149401Y-71831599D02*
X157099000Y-71882000D01*
D35*
X157149401Y-70147060D02*
X157149401Y-68847060D01*
D32*
X157149401Y-78121616D02*
X157023958Y-78247059D01*
D35*
X157149401Y-68847060D02*
X157174402Y-68822059D01*
D32*
X160833958Y-62320260D02*
X160833958Y-59741958D01*
X160833958Y-59741958D02*
X160164214Y-59072214D01*
D36*
G36*
X168800000Y-168800000D02*
X51200000Y-168800000D01*
X51200000Y-163080000D01*
X53584370Y-163080000D01*
X53839374Y-164361989D01*
X54565562Y-165448808D01*
X55652381Y-166174996D01*
X56934370Y-166430000D01*
X57065630Y-166430000D01*
X58347619Y-166174996D01*
X59434438Y-165448808D01*
X59443205Y-165435687D01*
X82799619Y-165435687D01*
X83133843Y-166244572D01*
X83752173Y-166863982D01*
X84560473Y-167199618D01*
X85435687Y-167200381D01*
X86244572Y-166866157D01*
X86863982Y-166247827D01*
X87199618Y-165439527D01*
X87199621Y-165435687D01*
X162799619Y-165435687D01*
X163133843Y-166244572D01*
X163752173Y-166863982D01*
X164560473Y-167199618D01*
X165435687Y-167200381D01*
X166244572Y-166866157D01*
X166863982Y-166247827D01*
X167199618Y-165439527D01*
X167200381Y-164564313D01*
X166866157Y-163755428D01*
X166247827Y-163136018D01*
X165439527Y-162800382D01*
X164564313Y-162799619D01*
X163755428Y-163133843D01*
X163136018Y-163752173D01*
X162800382Y-164560473D01*
X162799619Y-165435687D01*
X87199621Y-165435687D01*
X87200381Y-164564313D01*
X86866157Y-163755428D01*
X86247827Y-163136018D01*
X85439527Y-162800382D01*
X84564313Y-162799619D01*
X83755428Y-163133843D01*
X83136018Y-163752173D01*
X82800382Y-164560473D01*
X82799619Y-165435687D01*
X59443205Y-165435687D01*
X60160626Y-164361989D01*
X60415630Y-163080000D01*
X60160626Y-161798011D01*
X59434438Y-160711192D01*
X58347619Y-159985004D01*
X57065630Y-159730000D01*
X56934370Y-159730000D01*
X55652381Y-159985004D01*
X54565562Y-160711192D01*
X53839374Y-161798011D01*
X53584370Y-163080000D01*
X51200000Y-163080000D01*
X51200000Y-154610000D01*
X53601023Y-154610000D01*
X53601023Y-156310000D01*
X53795052Y-157285451D01*
X54347601Y-158112399D01*
X55174549Y-158664948D01*
X56150000Y-158858977D01*
X57850000Y-158858977D01*
X58825451Y-158664948D01*
X59652399Y-158112399D01*
X59932539Y-157693139D01*
X67499394Y-157693139D01*
X68031114Y-158980001D01*
X69014821Y-159965425D01*
X70300753Y-160499391D01*
X71693139Y-160500606D01*
X72980001Y-159968886D01*
X73965425Y-158985179D01*
X74499391Y-157699247D01*
X74500160Y-156816863D01*
X135399723Y-156816863D01*
X135642795Y-157405143D01*
X136092489Y-157855623D01*
X136680344Y-158099722D01*
X137316863Y-158100277D01*
X137905143Y-157857205D01*
X138355623Y-157407511D01*
X138599722Y-156819656D01*
X138600277Y-156183137D01*
X138365115Y-155614000D01*
X141286246Y-155614000D01*
X141286246Y-157314000D01*
X141332813Y-157548108D01*
X141465425Y-157746575D01*
X141663892Y-157879187D01*
X141898000Y-157925754D01*
X143598000Y-157925754D01*
X143832108Y-157879187D01*
X144030575Y-157746575D01*
X144163187Y-157548108D01*
X144190674Y-157409924D01*
X144262695Y-157517712D01*
X144733109Y-157832032D01*
X145288000Y-157942407D01*
X145842891Y-157832032D01*
X146313305Y-157517712D01*
X146558000Y-157151499D01*
X146802695Y-157517712D01*
X147273109Y-157832032D01*
X147828000Y-157942407D01*
X148382891Y-157832032D01*
X148853305Y-157517712D01*
X149098000Y-157151499D01*
X149342695Y-157517712D01*
X149813109Y-157832032D01*
X150368000Y-157942407D01*
X150922891Y-157832032D01*
X151393305Y-157517712D01*
X151638000Y-157151499D01*
X151882695Y-157517712D01*
X152353109Y-157832032D01*
X152908000Y-157942407D01*
X153462891Y-157832032D01*
X153933305Y-157517712D01*
X154178000Y-157151499D01*
X154422695Y-157517712D01*
X154893109Y-157832032D01*
X155448000Y-157942407D01*
X156002891Y-157832032D01*
X156473305Y-157517712D01*
X156718000Y-157151499D01*
X156962695Y-157517712D01*
X157433109Y-157832032D01*
X157988000Y-157942407D01*
X158542891Y-157832032D01*
X159013305Y-157517712D01*
X159258000Y-157151499D01*
X159502695Y-157517712D01*
X159973109Y-157832032D01*
X160528000Y-157942407D01*
X161082891Y-157832032D01*
X161553305Y-157517712D01*
X161867625Y-157047298D01*
X161978000Y-156492407D01*
X161978000Y-156435593D01*
X161867625Y-155880702D01*
X161553305Y-155410288D01*
X161082891Y-155095968D01*
X160528000Y-154985593D01*
X159973109Y-155095968D01*
X159502695Y-155410288D01*
X159258000Y-155776501D01*
X159013305Y-155410288D01*
X158542891Y-155095968D01*
X157988000Y-154985593D01*
X157433109Y-155095968D01*
X156962695Y-155410288D01*
X156718000Y-155776501D01*
X156473305Y-155410288D01*
X156002891Y-155095968D01*
X155448000Y-154985593D01*
X154893109Y-155095968D01*
X154422695Y-155410288D01*
X154178000Y-155776501D01*
X153933305Y-155410288D01*
X153462891Y-155095968D01*
X152908000Y-154985593D01*
X152353109Y-155095968D01*
X151882695Y-155410288D01*
X151638000Y-155776501D01*
X151393305Y-155410288D01*
X150922891Y-155095968D01*
X150368000Y-154985593D01*
X149813109Y-155095968D01*
X149342695Y-155410288D01*
X149098000Y-155776501D01*
X148853305Y-155410288D01*
X148382891Y-155095968D01*
X147828000Y-154985593D01*
X147273109Y-155095968D01*
X146802695Y-155410288D01*
X146558000Y-155776501D01*
X146313305Y-155410288D01*
X145842891Y-155095968D01*
X145288000Y-154985593D01*
X144733109Y-155095968D01*
X144262695Y-155410288D01*
X144190674Y-155518076D01*
X144163187Y-155379892D01*
X144030575Y-155181425D01*
X143832108Y-155048813D01*
X143598000Y-155002246D01*
X141898000Y-155002246D01*
X141663892Y-155048813D01*
X141465425Y-155181425D01*
X141332813Y-155379892D01*
X141286246Y-155614000D01*
X138365115Y-155614000D01*
X138357205Y-155594857D01*
X137907511Y-155144377D01*
X137319656Y-154900278D01*
X136683137Y-154899723D01*
X136094857Y-155142795D01*
X135644377Y-155592489D01*
X135400278Y-156180344D01*
X135399723Y-156816863D01*
X74500160Y-156816863D01*
X74500606Y-156306861D01*
X73968886Y-155019999D01*
X72985179Y-154034575D01*
X71699247Y-153500609D01*
X70306861Y-153499394D01*
X69019999Y-154031114D01*
X68034575Y-155014821D01*
X67500609Y-156300753D01*
X67499394Y-157693139D01*
X59932539Y-157693139D01*
X60204948Y-157285451D01*
X60398977Y-156310000D01*
X60398977Y-154610000D01*
X60204948Y-153634549D01*
X59652399Y-152807601D01*
X58825451Y-152255052D01*
X57850000Y-152061023D01*
X56150000Y-152061023D01*
X55174549Y-152255052D01*
X54347601Y-152807601D01*
X53795052Y-153634549D01*
X53601023Y-154610000D01*
X51200000Y-154610000D01*
X51200000Y-150415883D01*
X68899637Y-150415883D01*
X69218669Y-151188000D01*
X69808893Y-151779255D01*
X70580452Y-152099634D01*
X71415883Y-152100363D01*
X72188000Y-151781331D01*
X72779255Y-151191107D01*
X73099634Y-150419548D01*
X73100363Y-149584117D01*
X72781331Y-148812000D01*
X72191107Y-148220745D01*
X71419548Y-147900366D01*
X70584117Y-147899637D01*
X69812000Y-148218669D01*
X69220745Y-148808893D01*
X68900366Y-149580452D01*
X68899637Y-150415883D01*
X51200000Y-150415883D01*
X51200000Y-144161840D01*
X53250000Y-144161840D01*
X53250000Y-145838160D01*
X53535452Y-147273223D01*
X54348350Y-148489810D01*
X55564937Y-149302708D01*
X57000000Y-149588160D01*
X58435063Y-149302708D01*
X59651650Y-148489810D01*
X60464548Y-147273223D01*
X60750000Y-145838160D01*
X60750000Y-144161840D01*
X60656770Y-143693139D01*
X67499394Y-143693139D01*
X68031114Y-144980001D01*
X69014821Y-145965425D01*
X70300753Y-146499391D01*
X71693139Y-146500606D01*
X72980001Y-145968886D01*
X73965425Y-144985179D01*
X74499391Y-143699247D01*
X74500606Y-142306861D01*
X73968886Y-141019999D01*
X72985179Y-140034575D01*
X71699247Y-139500609D01*
X70306861Y-139499394D01*
X69019999Y-140031114D01*
X68034575Y-141014821D01*
X67500609Y-142300753D01*
X67499394Y-143693139D01*
X60656770Y-143693139D01*
X60464548Y-142726777D01*
X59651650Y-141510190D01*
X58435063Y-140697292D01*
X57000000Y-140411840D01*
X55564937Y-140697292D01*
X54348350Y-141510190D01*
X53535452Y-142726777D01*
X53250000Y-144161840D01*
X51200000Y-144161840D01*
X51200000Y-107750000D01*
X52951023Y-107750000D01*
X52951023Y-115250000D01*
X53202143Y-116512464D01*
X53917271Y-117582729D01*
X54987536Y-118297857D01*
X56250000Y-118548977D01*
X56310566Y-118548977D01*
X55564937Y-118697292D01*
X54348350Y-119510190D01*
X53535452Y-120726777D01*
X53250000Y-122161840D01*
X53250000Y-123838160D01*
X53535452Y-125273223D01*
X54348350Y-126489810D01*
X55564937Y-127302708D01*
X57000000Y-127588160D01*
X58435063Y-127302708D01*
X59651650Y-126489810D01*
X60464548Y-125273223D01*
X60750000Y-123838160D01*
X60750000Y-122161840D01*
X60464548Y-120726777D01*
X59651650Y-119510190D01*
X58435063Y-118697292D01*
X57689434Y-118548977D01*
X57750000Y-118548977D01*
X59012464Y-118297857D01*
X60082729Y-117582729D01*
X60797857Y-116512464D01*
X61048977Y-115250000D01*
X61048977Y-107750000D01*
X60797857Y-106487536D01*
X60082729Y-105417271D01*
X59012464Y-104702143D01*
X57750000Y-104451023D01*
X56250000Y-104451023D01*
X54987536Y-104702143D01*
X53917271Y-105417271D01*
X53202143Y-106487536D01*
X52951023Y-107750000D01*
X51200000Y-107750000D01*
X51200000Y-74750000D01*
X52951023Y-74750000D01*
X52951023Y-82250000D01*
X53202143Y-83512464D01*
X53917271Y-84582729D01*
X54987536Y-85297857D01*
X56250000Y-85548977D01*
X57750000Y-85548977D01*
X59012464Y-85297857D01*
X60082729Y-84582729D01*
X60797857Y-83512464D01*
X61048977Y-82250000D01*
X61048977Y-80250000D01*
X84888246Y-80250000D01*
X84888246Y-87750000D01*
X84991903Y-88271121D01*
X85287095Y-88712905D01*
X85728879Y-89008097D01*
X86250000Y-89111754D01*
X87750000Y-89111754D01*
X88271121Y-89008097D01*
X88712905Y-88712905D01*
X89008097Y-88271121D01*
X89111754Y-87750000D01*
X89111754Y-87000000D01*
X96308246Y-87000000D01*
X96308246Y-89000000D01*
X96354813Y-89234108D01*
X96487425Y-89432575D01*
X96685892Y-89565187D01*
X96920000Y-89611754D01*
X97084670Y-89611754D01*
X97134702Y-89863281D01*
X97318959Y-90139041D01*
X97734541Y-90554623D01*
X97710000Y-90678000D01*
X97710000Y-133350000D01*
X97812763Y-133866623D01*
X98105406Y-134304594D01*
X98543377Y-134597237D01*
X99060000Y-134700000D01*
X99576623Y-134597237D01*
X100014594Y-134304594D01*
X100307237Y-133866623D01*
X100410000Y-133350000D01*
X100410000Y-127316863D01*
X108399723Y-127316863D01*
X108642795Y-127905143D01*
X109092489Y-128355623D01*
X109680344Y-128599722D01*
X110316863Y-128600277D01*
X110905143Y-128357205D01*
X111355623Y-127907511D01*
X111599722Y-127319656D01*
X111599808Y-127220863D01*
X123383723Y-127220863D01*
X123626795Y-127809143D01*
X124076489Y-128259623D01*
X124664344Y-128503722D01*
X125300863Y-128504277D01*
X125889143Y-128261205D01*
X126339623Y-127811511D01*
X126583722Y-127223656D01*
X126584277Y-126587137D01*
X126341205Y-125998857D01*
X125891511Y-125548377D01*
X125303656Y-125304278D01*
X124667137Y-125303723D01*
X124078857Y-125546795D01*
X123628377Y-125996489D01*
X123384278Y-126584344D01*
X123383723Y-127220863D01*
X111599808Y-127220863D01*
X111600277Y-126683137D01*
X111357205Y-126094857D01*
X110907511Y-125644377D01*
X110319656Y-125400278D01*
X109683137Y-125399723D01*
X109094857Y-125642795D01*
X108644377Y-126092489D01*
X108400278Y-126680344D01*
X108399723Y-127316863D01*
X100410000Y-127316863D01*
X100410000Y-124060000D01*
X143805000Y-124060000D01*
X143805000Y-134100000D01*
X143879217Y-134473117D01*
X144090571Y-134789429D01*
X145960630Y-136659488D01*
X145952572Y-136700000D01*
X146059141Y-137235757D01*
X146362623Y-137689949D01*
X146816815Y-137993431D01*
X147352572Y-138100000D01*
X147407428Y-138100000D01*
X147943185Y-137993431D01*
X148397377Y-137689949D01*
X148700859Y-137235757D01*
X148807428Y-136700000D01*
X148700859Y-136164243D01*
X148397377Y-135710051D01*
X147978252Y-135430000D01*
X148397377Y-135149949D01*
X148700859Y-134695757D01*
X148807428Y-134160000D01*
X148700859Y-133624243D01*
X148397377Y-133170051D01*
X147978252Y-132890000D01*
X148397377Y-132609949D01*
X148700859Y-132155757D01*
X148807428Y-131620000D01*
X148700859Y-131084243D01*
X148397377Y-130630051D01*
X147978252Y-130350000D01*
X148397377Y-130069949D01*
X148700859Y-129615757D01*
X148807428Y-129080000D01*
X148700859Y-128544243D01*
X148397377Y-128090051D01*
X147978252Y-127810000D01*
X148397377Y-127529949D01*
X148700859Y-127075757D01*
X148807428Y-126540000D01*
X148700859Y-126004243D01*
X148397377Y-125550051D01*
X147978252Y-125270000D01*
X148397377Y-124989949D01*
X148700859Y-124535757D01*
X148807428Y-124000000D01*
X153572572Y-124000000D01*
X153679141Y-124535757D01*
X153982623Y-124989949D01*
X154401748Y-125270000D01*
X153982623Y-125550051D01*
X153679141Y-126004243D01*
X153572572Y-126540000D01*
X153679141Y-127075757D01*
X153982623Y-127529949D01*
X154401748Y-127810000D01*
X153982623Y-128090051D01*
X153679141Y-128544243D01*
X153572572Y-129080000D01*
X153679141Y-129615757D01*
X153982623Y-130069949D01*
X154401748Y-130350000D01*
X153982623Y-130630051D01*
X153679141Y-131084243D01*
X153572572Y-131620000D01*
X153679141Y-132155757D01*
X153982623Y-132609949D01*
X154401748Y-132890000D01*
X153982623Y-133170051D01*
X153679141Y-133624243D01*
X153572572Y-134160000D01*
X153679141Y-134695757D01*
X153982623Y-135149949D01*
X154401748Y-135430000D01*
X153982623Y-135710051D01*
X153679141Y-136164243D01*
X153572572Y-136700000D01*
X153679141Y-137235757D01*
X153982623Y-137689949D01*
X154401748Y-137970000D01*
X153982623Y-138250051D01*
X153679141Y-138704243D01*
X153572572Y-139240000D01*
X153679141Y-139775757D01*
X153982623Y-140229949D01*
X154436815Y-140533431D01*
X154972572Y-140640000D01*
X155027428Y-140640000D01*
X155563185Y-140533431D01*
X156017377Y-140229949D01*
X156320859Y-139775757D01*
X156427428Y-139240000D01*
X156320859Y-138704243D01*
X156017377Y-138250051D01*
X155598252Y-137970000D01*
X156017377Y-137689949D01*
X156320859Y-137235757D01*
X156427428Y-136700000D01*
X156320859Y-136164243D01*
X156017377Y-135710051D01*
X155598252Y-135430000D01*
X156017377Y-135149949D01*
X156320859Y-134695757D01*
X156427428Y-134160000D01*
X156320859Y-133624243D01*
X156017377Y-133170051D01*
X155598252Y-132890000D01*
X156017377Y-132609949D01*
X156320859Y-132155757D01*
X156427428Y-131620000D01*
X156320859Y-131084243D01*
X156017377Y-130630051D01*
X155598252Y-130350000D01*
X156017377Y-130069949D01*
X156320859Y-129615757D01*
X156427428Y-129080000D01*
X156320859Y-128544243D01*
X156017377Y-128090051D01*
X155598252Y-127810000D01*
X156017377Y-127529949D01*
X156320859Y-127075757D01*
X156427428Y-126540000D01*
X156320859Y-126004243D01*
X156017377Y-125550051D01*
X155598252Y-125270000D01*
X156017377Y-124989949D01*
X156320859Y-124535757D01*
X156427428Y-124000000D01*
X156320859Y-123464243D01*
X156017377Y-123010051D01*
X155563185Y-122706569D01*
X155027428Y-122600000D01*
X154972572Y-122600000D01*
X154436815Y-122706569D01*
X153982623Y-123010051D01*
X153679141Y-123464243D01*
X153572572Y-124000000D01*
X148807428Y-124000000D01*
X148700859Y-123464243D01*
X148397377Y-123010051D01*
X147978252Y-122730000D01*
X148397377Y-122449949D01*
X148700859Y-121995757D01*
X148807428Y-121460000D01*
X148700859Y-120924243D01*
X148397377Y-120470051D01*
X148188015Y-120330160D01*
X148414108Y-120285187D01*
X148612575Y-120152575D01*
X148745187Y-119954108D01*
X148791754Y-119720000D01*
X148791754Y-118920000D01*
X153572572Y-118920000D01*
X153679141Y-119455757D01*
X153982623Y-119909949D01*
X154436815Y-120213431D01*
X154972572Y-120320000D01*
X155027428Y-120320000D01*
X155563185Y-120213431D01*
X156017377Y-119909949D01*
X156320859Y-119455757D01*
X156427428Y-118920000D01*
X156320859Y-118384243D01*
X156017377Y-117930051D01*
X155563185Y-117626569D01*
X155027428Y-117520000D01*
X154972572Y-117520000D01*
X154436815Y-117626569D01*
X153982623Y-117930051D01*
X153679141Y-118384243D01*
X153572572Y-118920000D01*
X148791754Y-118920000D01*
X148791754Y-118120000D01*
X148745187Y-117885892D01*
X148612575Y-117687425D01*
X148414108Y-117554813D01*
X148180000Y-117508246D01*
X146580000Y-117508246D01*
X146345892Y-117554813D01*
X146147425Y-117687425D01*
X146014813Y-117885892D01*
X145968246Y-118120000D01*
X145968246Y-119720000D01*
X146014813Y-119954108D01*
X146147425Y-120152575D01*
X146345892Y-120285187D01*
X146571985Y-120330160D01*
X146362623Y-120470051D01*
X146059141Y-120924243D01*
X145952572Y-121460000D01*
X145960630Y-121500512D01*
X144090571Y-123370571D01*
X143879217Y-123686883D01*
X143879217Y-123686884D01*
X143805000Y-124060000D01*
X100410000Y-124060000D01*
X100410000Y-109540000D01*
X161521593Y-109540000D01*
X161631968Y-110094891D01*
X161946288Y-110565305D01*
X162312501Y-110810000D01*
X161946288Y-111054695D01*
X161631968Y-111525109D01*
X161521593Y-112080000D01*
X161631968Y-112634891D01*
X161946288Y-113105305D01*
X162416702Y-113419625D01*
X162971593Y-113530000D01*
X163028407Y-113530000D01*
X163583298Y-113419625D01*
X164053712Y-113105305D01*
X164368032Y-112634891D01*
X164478407Y-112080000D01*
X164368032Y-111525109D01*
X164053712Y-111054695D01*
X163687499Y-110810000D01*
X164053712Y-110565305D01*
X164368032Y-110094891D01*
X164478407Y-109540000D01*
X164368032Y-108985109D01*
X164053712Y-108514695D01*
X163583298Y-108200375D01*
X163028407Y-108090000D01*
X162971593Y-108090000D01*
X162416702Y-108200375D01*
X161946288Y-108514695D01*
X161631968Y-108985109D01*
X161521593Y-109540000D01*
X100410000Y-109540000D01*
X100410000Y-90752082D01*
X101061038Y-90101043D01*
X101061041Y-90101041D01*
X101245298Y-89825281D01*
X101265562Y-89723406D01*
X101287772Y-89611754D01*
X101460000Y-89611754D01*
X101694108Y-89565187D01*
X101892575Y-89432575D01*
X102025187Y-89234108D01*
X102071754Y-89000000D01*
X102071754Y-87000000D01*
X102025187Y-86765892D01*
X102024195Y-86764407D01*
X103975805Y-86764407D01*
X103974813Y-86765892D01*
X103928246Y-87000000D01*
X103928246Y-89000000D01*
X103974813Y-89234108D01*
X104107425Y-89432575D01*
X104190000Y-89487750D01*
X104190000Y-89662000D01*
X104292763Y-90178623D01*
X104456719Y-90424000D01*
X104585406Y-90616594D01*
X107616000Y-93647188D01*
X107616000Y-100584000D01*
X107718763Y-101100623D01*
X108011406Y-101538594D01*
X111887406Y-105414594D01*
X112325378Y-105707238D01*
X112842000Y-105810000D01*
X155382000Y-105810000D01*
X155898623Y-105707237D01*
X156336594Y-105414594D01*
X156402594Y-105348594D01*
X156695237Y-104910622D01*
X156798000Y-104394000D01*
X156695237Y-103877378D01*
X156516582Y-103610000D01*
X161538246Y-103610000D01*
X161538246Y-105310000D01*
X161584813Y-105544108D01*
X161717425Y-105742575D01*
X161915892Y-105875187D01*
X162150000Y-105921754D01*
X163850000Y-105921754D01*
X164084108Y-105875187D01*
X164282575Y-105742575D01*
X164415187Y-105544108D01*
X164461754Y-105310000D01*
X164461754Y-103610000D01*
X164415187Y-103375892D01*
X164282575Y-103177425D01*
X164084108Y-103044813D01*
X163850000Y-102998246D01*
X162150000Y-102998246D01*
X161915892Y-103044813D01*
X161717425Y-103177425D01*
X161584813Y-103375892D01*
X161538246Y-103610000D01*
X156516582Y-103610000D01*
X156402594Y-103439406D01*
X155964622Y-103146763D01*
X155448000Y-103044000D01*
X155116197Y-103110000D01*
X147916000Y-103110000D01*
X147916000Y-96209761D01*
X147997991Y-96127913D01*
X148165808Y-95723763D01*
X148166190Y-95286156D01*
X147999078Y-94881714D01*
X147689913Y-94572009D01*
X147285763Y-94404192D01*
X146848156Y-94403810D01*
X146443714Y-94570922D01*
X146134009Y-94880087D01*
X145966192Y-95284237D01*
X145965810Y-95721844D01*
X146132922Y-96126286D01*
X146216000Y-96209509D01*
X146216000Y-103110000D01*
X115021000Y-103110000D01*
X115021000Y-95331180D01*
X115199974Y-95152518D01*
X115316029Y-94873028D01*
X115430679Y-95150503D01*
X115813482Y-95533974D01*
X116313893Y-95741763D01*
X116855730Y-95742236D01*
X117356503Y-95535321D01*
X117739974Y-95152518D01*
X117856029Y-94873028D01*
X117970679Y-95150503D01*
X118353482Y-95533974D01*
X118853893Y-95741763D01*
X119395730Y-95742236D01*
X119896503Y-95535321D01*
X120279974Y-95152518D01*
X120396029Y-94873028D01*
X120510679Y-95150503D01*
X120893482Y-95533974D01*
X121393893Y-95741763D01*
X121935730Y-95742236D01*
X122436503Y-95535321D01*
X122819974Y-95152518D01*
X122936029Y-94873028D01*
X123050679Y-95150503D01*
X123433482Y-95533974D01*
X123712972Y-95650029D01*
X123435497Y-95764679D01*
X123052026Y-96147482D01*
X122844237Y-96647893D01*
X122843764Y-97189730D01*
X123050679Y-97690503D01*
X123433482Y-98073974D01*
X123933893Y-98281763D01*
X124475730Y-98282236D01*
X124976503Y-98075321D01*
X125359974Y-97692518D01*
X125567763Y-97192107D01*
X125568236Y-96650270D01*
X125361321Y-96149497D01*
X124978518Y-95766026D01*
X124699028Y-95649971D01*
X124976503Y-95535321D01*
X125359974Y-95152518D01*
X125567763Y-94652107D01*
X125568236Y-94110270D01*
X125361321Y-93609497D01*
X124978518Y-93226026D01*
X124478107Y-93018237D01*
X123936270Y-93017764D01*
X123435497Y-93224679D01*
X123052026Y-93607482D01*
X122935971Y-93886972D01*
X122821321Y-93609497D01*
X122438518Y-93226026D01*
X121938107Y-93018237D01*
X121396270Y-93017764D01*
X120895497Y-93224679D01*
X120512026Y-93607482D01*
X120395971Y-93886972D01*
X120281321Y-93609497D01*
X119898518Y-93226026D01*
X119398107Y-93018237D01*
X118965942Y-93017860D01*
X112109001Y-86160919D01*
X112109001Y-85611353D01*
X112187766Y-85611353D01*
X112392858Y-86107715D01*
X112772288Y-86487807D01*
X113268290Y-86693765D01*
X113805353Y-86694234D01*
X114301715Y-86489142D01*
X114681807Y-86109712D01*
X114808056Y-85805670D01*
X114932858Y-86107715D01*
X115312288Y-86487807D01*
X115808290Y-86693765D01*
X116345353Y-86694234D01*
X116841715Y-86489142D01*
X117221807Y-86109712D01*
X117348056Y-85805670D01*
X117472858Y-86107715D01*
X117852288Y-86487807D01*
X118348290Y-86693765D01*
X118885353Y-86694234D01*
X119381715Y-86489142D01*
X119761807Y-86109712D01*
X119967765Y-85613710D01*
X119967767Y-85611353D01*
X122347766Y-85611353D01*
X122552858Y-86107715D01*
X122932288Y-86487807D01*
X123428290Y-86693765D01*
X123965353Y-86694234D01*
X124461715Y-86489142D01*
X124841807Y-86109712D01*
X124968056Y-85805670D01*
X125092858Y-86107715D01*
X125472288Y-86487807D01*
X125968290Y-86693765D01*
X126505353Y-86694234D01*
X127001715Y-86489142D01*
X127381807Y-86109712D01*
X127508056Y-85805670D01*
X127632858Y-86107715D01*
X128012288Y-86487807D01*
X128508290Y-86693765D01*
X129045353Y-86694234D01*
X129541715Y-86489142D01*
X129921807Y-86109712D01*
X130048056Y-85805670D01*
X130172858Y-86107715D01*
X130552288Y-86487807D01*
X131048290Y-86693765D01*
X131585353Y-86694234D01*
X132081715Y-86489142D01*
X132461807Y-86109712D01*
X132588056Y-85805670D01*
X132712858Y-86107715D01*
X133092288Y-86487807D01*
X133588290Y-86693765D01*
X134125353Y-86694234D01*
X134621715Y-86489142D01*
X135001807Y-86109712D01*
X135128056Y-85805670D01*
X135252858Y-86107715D01*
X135632288Y-86487807D01*
X136128290Y-86693765D01*
X136665353Y-86694234D01*
X137161715Y-86489142D01*
X137541807Y-86109712D01*
X137668056Y-85805670D01*
X137792858Y-86107715D01*
X138172288Y-86487807D01*
X138668290Y-86693765D01*
X139205353Y-86694234D01*
X139701715Y-86489142D01*
X140081807Y-86109712D01*
X140208056Y-85805670D01*
X140332858Y-86107715D01*
X140628000Y-86403372D01*
X140628000Y-87884000D01*
X140692702Y-88209281D01*
X140876959Y-88485041D01*
X146452959Y-94061041D01*
X146728719Y-94245298D01*
X147054000Y-94310000D01*
X157016260Y-94310000D01*
X157110087Y-94403991D01*
X157514237Y-94571808D01*
X157951844Y-94572190D01*
X158356286Y-94405078D01*
X158665991Y-94095913D01*
X158833808Y-93691763D01*
X158834010Y-93460000D01*
X161521593Y-93460000D01*
X161631968Y-94014891D01*
X161946288Y-94485305D01*
X162312501Y-94730000D01*
X161946288Y-94974695D01*
X161631968Y-95445109D01*
X161521593Y-96000000D01*
X161631968Y-96554891D01*
X161946288Y-97025305D01*
X162416702Y-97339625D01*
X162971593Y-97450000D01*
X163028407Y-97450000D01*
X163583298Y-97339625D01*
X164053712Y-97025305D01*
X164368032Y-96554891D01*
X164478407Y-96000000D01*
X164368032Y-95445109D01*
X164053712Y-94974695D01*
X163687499Y-94730000D01*
X164053712Y-94485305D01*
X164368032Y-94014891D01*
X164478407Y-93460000D01*
X164368032Y-92905109D01*
X164053712Y-92434695D01*
X163583298Y-92120375D01*
X163028407Y-92010000D01*
X162971593Y-92010000D01*
X162416702Y-92120375D01*
X161946288Y-92434695D01*
X161631968Y-92905109D01*
X161521593Y-93460000D01*
X158834010Y-93460000D01*
X158834190Y-93254156D01*
X158667078Y-92849714D01*
X158357913Y-92540009D01*
X157953763Y-92372192D01*
X157516156Y-92371810D01*
X157111714Y-92538922D01*
X157040512Y-92610000D01*
X147406082Y-92610000D01*
X142328000Y-87531918D01*
X142328000Y-86403007D01*
X142621807Y-86109712D01*
X142827765Y-85613710D01*
X142827792Y-85582000D01*
X145204246Y-85582000D01*
X145204246Y-87582000D01*
X145250813Y-87816108D01*
X145383425Y-88014575D01*
X145581892Y-88147187D01*
X145816000Y-88193754D01*
X146216000Y-88193754D01*
X146216000Y-89718239D01*
X146134009Y-89800087D01*
X145966192Y-90204237D01*
X145965810Y-90641844D01*
X146132922Y-91046286D01*
X146442087Y-91355991D01*
X146846237Y-91523808D01*
X147283844Y-91524190D01*
X147688286Y-91357078D01*
X147997991Y-91047913D01*
X148165808Y-90643763D01*
X148166190Y-90206156D01*
X147999078Y-89801714D01*
X147916000Y-89718491D01*
X147916000Y-88193754D01*
X148316000Y-88193754D01*
X148550108Y-88147187D01*
X148748575Y-88014575D01*
X148881187Y-87816108D01*
X148927754Y-87582000D01*
X148927754Y-87530000D01*
X161538246Y-87530000D01*
X161538246Y-89230000D01*
X161584813Y-89464108D01*
X161717425Y-89662575D01*
X161915892Y-89795187D01*
X162150000Y-89841754D01*
X163850000Y-89841754D01*
X164084108Y-89795187D01*
X164282575Y-89662575D01*
X164415187Y-89464108D01*
X164461754Y-89230000D01*
X164461754Y-87530000D01*
X164415187Y-87295892D01*
X164282575Y-87097425D01*
X164084108Y-86964813D01*
X163850000Y-86918246D01*
X162150000Y-86918246D01*
X161915892Y-86964813D01*
X161717425Y-87097425D01*
X161584813Y-87295892D01*
X161538246Y-87530000D01*
X148927754Y-87530000D01*
X148927754Y-85582000D01*
X148881187Y-85347892D01*
X148748575Y-85149425D01*
X148550108Y-85016813D01*
X148316000Y-84970246D01*
X145816000Y-84970246D01*
X145581892Y-85016813D01*
X145383425Y-85149425D01*
X145250813Y-85347892D01*
X145204246Y-85582000D01*
X142827792Y-85582000D01*
X142828234Y-85076647D01*
X142623142Y-84580285D01*
X142243712Y-84200193D01*
X141747710Y-83994235D01*
X141210647Y-83993766D01*
X140714285Y-84198858D01*
X140334193Y-84578288D01*
X140207944Y-84882330D01*
X140083142Y-84580285D01*
X139703712Y-84200193D01*
X139207710Y-83994235D01*
X138670647Y-83993766D01*
X138174285Y-84198858D01*
X137794193Y-84578288D01*
X137667944Y-84882330D01*
X137543142Y-84580285D01*
X137163712Y-84200193D01*
X136667710Y-83994235D01*
X136130647Y-83993766D01*
X135634285Y-84198858D01*
X135254193Y-84578288D01*
X135127944Y-84882330D01*
X135003142Y-84580285D01*
X134623712Y-84200193D01*
X134127710Y-83994235D01*
X133590647Y-83993766D01*
X133094285Y-84198858D01*
X132714193Y-84578288D01*
X132587944Y-84882330D01*
X132463142Y-84580285D01*
X132083712Y-84200193D01*
X131587710Y-83994235D01*
X131050647Y-83993766D01*
X130554285Y-84198858D01*
X130174193Y-84578288D01*
X130047944Y-84882330D01*
X129923142Y-84580285D01*
X129543712Y-84200193D01*
X129047710Y-83994235D01*
X128510647Y-83993766D01*
X128014285Y-84198858D01*
X127634193Y-84578288D01*
X127507944Y-84882330D01*
X127383142Y-84580285D01*
X127003712Y-84200193D01*
X126507710Y-83994235D01*
X125970647Y-83993766D01*
X125474285Y-84198858D01*
X125094193Y-84578288D01*
X124967944Y-84882330D01*
X124843142Y-84580285D01*
X124463712Y-84200193D01*
X123967710Y-83994235D01*
X123430647Y-83993766D01*
X122934285Y-84198858D01*
X122554193Y-84578288D01*
X122348235Y-85074290D01*
X122347766Y-85611353D01*
X119967767Y-85611353D01*
X119968234Y-85076647D01*
X119763142Y-84580285D01*
X119383712Y-84200193D01*
X118887710Y-83994235D01*
X118350647Y-83993766D01*
X117854285Y-84198858D01*
X117474193Y-84578288D01*
X117347944Y-84882330D01*
X117223142Y-84580285D01*
X116843712Y-84200193D01*
X116347710Y-83994235D01*
X115810647Y-83993766D01*
X115314285Y-84198858D01*
X114934193Y-84578288D01*
X114807944Y-84882330D01*
X114683142Y-84580285D01*
X114303712Y-84200193D01*
X113807710Y-83994235D01*
X113270647Y-83993766D01*
X112774285Y-84198858D01*
X112394193Y-84578288D01*
X112188235Y-85074290D01*
X112187766Y-85611353D01*
X112109001Y-85611353D01*
X112109001Y-81646876D01*
X112132004Y-81623913D01*
X112299821Y-81219763D01*
X112300203Y-80782156D01*
X112133091Y-80377714D01*
X111823926Y-80068009D01*
X111419776Y-79900192D01*
X110982169Y-79899810D01*
X110577727Y-80066922D01*
X110268022Y-80376087D01*
X110100205Y-80780237D01*
X110100175Y-80814992D01*
X109891156Y-80814810D01*
X109486714Y-80981922D01*
X109177009Y-81291087D01*
X109009192Y-81695237D01*
X109008810Y-82132844D01*
X109175922Y-82537286D01*
X109259000Y-82620509D01*
X109259000Y-87903000D01*
X109323702Y-88228281D01*
X109507959Y-88504041D01*
X114021896Y-93017978D01*
X113776270Y-93017764D01*
X113275497Y-93224679D01*
X112892026Y-93607482D01*
X112684237Y-94107893D01*
X112683764Y-94649730D01*
X112890679Y-95150503D01*
X113071000Y-95331139D01*
X113071000Y-102779812D01*
X110316000Y-100024812D01*
X110316000Y-93088000D01*
X110268602Y-92849714D01*
X110213238Y-92571378D01*
X109920594Y-92133406D01*
X107071585Y-89284397D01*
X107105187Y-89234108D01*
X107151754Y-89000000D01*
X107151754Y-88975000D01*
X107290000Y-88975000D01*
X107663117Y-88900783D01*
X107979429Y-88689429D01*
X108689429Y-87979429D01*
X108900783Y-87663117D01*
X108975000Y-87290000D01*
X108975000Y-76045858D01*
X112109505Y-72911353D01*
X121077766Y-72911353D01*
X121282858Y-73407715D01*
X121662288Y-73787807D01*
X122158290Y-73993765D01*
X122695353Y-73994234D01*
X123191715Y-73789142D01*
X123571807Y-73409712D01*
X123698056Y-73105670D01*
X123822858Y-73407715D01*
X124202288Y-73787807D01*
X124698290Y-73993765D01*
X125235353Y-73994234D01*
X125731715Y-73789142D01*
X126111807Y-73409712D01*
X126317765Y-72913710D01*
X126318234Y-72376647D01*
X126113142Y-71880285D01*
X125733712Y-71500193D01*
X125237710Y-71294235D01*
X124700647Y-71293766D01*
X124204285Y-71498858D01*
X123824193Y-71878288D01*
X123697944Y-72182330D01*
X123573142Y-71880285D01*
X123193712Y-71500193D01*
X122697710Y-71294235D01*
X122160647Y-71293766D01*
X121664285Y-71498858D01*
X121284193Y-71878288D01*
X121078235Y-72374290D01*
X121077766Y-72911353D01*
X112109505Y-72911353D01*
X113566832Y-71454026D01*
X113805353Y-71454234D01*
X114301715Y-71249142D01*
X114681807Y-70869712D01*
X114887765Y-70373710D01*
X114888234Y-69836647D01*
X114683142Y-69340285D01*
X114303712Y-68960193D01*
X113807710Y-68754235D01*
X113270647Y-68753766D01*
X112774285Y-68958858D01*
X112394193Y-69338288D01*
X112188235Y-69834290D01*
X112188025Y-70075117D01*
X107310571Y-74952571D01*
X107134000Y-75216827D01*
X107134000Y-68784407D01*
X107118776Y-68707870D01*
X107075421Y-68642986D01*
X107010537Y-68599631D01*
X106934000Y-68584407D01*
X96520000Y-68584407D01*
X96443463Y-68599631D01*
X96378579Y-68642986D01*
X96335224Y-68707870D01*
X96320000Y-68784407D01*
X96320000Y-86564407D01*
X96335224Y-86640944D01*
X96378579Y-86705828D01*
X96389895Y-86713389D01*
X96354813Y-86765892D01*
X96308246Y-87000000D01*
X89111754Y-87000000D01*
X89111754Y-80250000D01*
X89008097Y-79728879D01*
X88712905Y-79287095D01*
X88271121Y-78991903D01*
X87750000Y-78888246D01*
X86250000Y-78888246D01*
X85728879Y-78991903D01*
X85287095Y-79287095D01*
X84991903Y-79728879D01*
X84888246Y-80250000D01*
X61048977Y-80250000D01*
X61048977Y-74750000D01*
X60797857Y-73487536D01*
X60082729Y-72417271D01*
X59012464Y-71702143D01*
X57750000Y-71451023D01*
X56250000Y-71451023D01*
X54987536Y-71702143D01*
X53917271Y-72417271D01*
X53202143Y-73487536D01*
X52951023Y-74750000D01*
X51200000Y-74750000D01*
X51200000Y-64230000D01*
X53601023Y-64230000D01*
X53601023Y-65930000D01*
X53795052Y-66905451D01*
X54347601Y-67732399D01*
X55174549Y-68284948D01*
X56150000Y-68478977D01*
X57850000Y-68478977D01*
X58825451Y-68284948D01*
X59652399Y-67732399D01*
X60204948Y-66905451D01*
X60398977Y-65930000D01*
X60398977Y-64230000D01*
X60204948Y-63254549D01*
X59652399Y-62427601D01*
X58825451Y-61875052D01*
X57850000Y-61681023D01*
X56150000Y-61681023D01*
X55174549Y-61875052D01*
X54347601Y-62427601D01*
X53795052Y-63254549D01*
X53601023Y-64230000D01*
X51200000Y-64230000D01*
X51200000Y-57460000D01*
X53584370Y-57460000D01*
X53839374Y-58741989D01*
X54565562Y-59828808D01*
X55652381Y-60554996D01*
X56934370Y-60810000D01*
X57065630Y-60810000D01*
X58347619Y-60554996D01*
X59434438Y-59828808D01*
X60160626Y-58741989D01*
X60415630Y-57460000D01*
X60160626Y-56178011D01*
X59664622Y-55435687D01*
X82799619Y-55435687D01*
X83133843Y-56244572D01*
X83752173Y-56863982D01*
X84560473Y-57199618D01*
X85435687Y-57200381D01*
X86244572Y-56866157D01*
X86258755Y-56851998D01*
X107219990Y-56851998D01*
X107219990Y-58231088D01*
X107284692Y-58556369D01*
X107468949Y-58832129D01*
X108165853Y-59529033D01*
X108441613Y-59713290D01*
X108766894Y-59777992D01*
X108768239Y-59777992D01*
X108850087Y-59859983D01*
X109254237Y-60027800D01*
X109691844Y-60028182D01*
X110096286Y-59861070D01*
X110405991Y-59551905D01*
X110573808Y-59147755D01*
X110574190Y-58710148D01*
X110407078Y-58305706D01*
X110267646Y-58166031D01*
X110406005Y-58027913D01*
X110573822Y-57623763D01*
X110573925Y-57506171D01*
X111605097Y-56474999D01*
X119841179Y-56474999D01*
X119683257Y-56855317D01*
X119682744Y-57442108D01*
X119906827Y-57984429D01*
X120321389Y-58399715D01*
X120369690Y-58419771D01*
X120323571Y-58438827D01*
X119908285Y-58853389D01*
X119683257Y-59395317D01*
X119682744Y-59982108D01*
X119906827Y-60524429D01*
X120321389Y-60939715D01*
X120369690Y-60959771D01*
X120323571Y-60978827D01*
X119908285Y-61393389D01*
X119683257Y-61935317D01*
X119682744Y-62522108D01*
X119906827Y-63064429D01*
X120321389Y-63479715D01*
X120369690Y-63499771D01*
X120323571Y-63518827D01*
X119908285Y-63933389D01*
X119683257Y-64475317D01*
X119682744Y-65062108D01*
X119906827Y-65604429D01*
X120321389Y-66019715D01*
X120863317Y-66244743D01*
X121450108Y-66245256D01*
X121992429Y-66021173D01*
X122407715Y-65606611D01*
X122632743Y-65064683D01*
X122633256Y-64477892D01*
X122409173Y-63935571D01*
X121994611Y-63520285D01*
X121946310Y-63500229D01*
X121992429Y-63481173D01*
X122407715Y-63066611D01*
X122427771Y-63018310D01*
X122446827Y-63064429D01*
X122861389Y-63479715D01*
X123403317Y-63704743D01*
X123990108Y-63705256D01*
X124532429Y-63481173D01*
X124947715Y-63066611D01*
X125172743Y-62524683D01*
X125173256Y-61937892D01*
X124949173Y-61395571D01*
X124534611Y-60980285D01*
X124486310Y-60960229D01*
X124532429Y-60941173D01*
X124947715Y-60526611D01*
X125172743Y-59984683D01*
X125173256Y-59397892D01*
X124949173Y-58855571D01*
X124534611Y-58440285D01*
X124486310Y-58420229D01*
X124532429Y-58401173D01*
X124947715Y-57986611D01*
X125136026Y-57533106D01*
X133008000Y-65405080D01*
X133008000Y-69044993D01*
X132714193Y-69338288D01*
X132587944Y-69642330D01*
X132463142Y-69340285D01*
X132083712Y-68960193D01*
X131587710Y-68754235D01*
X131050647Y-68753766D01*
X130554285Y-68958858D01*
X130174193Y-69338288D01*
X130047944Y-69642330D01*
X129923142Y-69340285D01*
X129543712Y-68960193D01*
X129047710Y-68754235D01*
X128510647Y-68753766D01*
X128014285Y-68958858D01*
X127634193Y-69338288D01*
X127507944Y-69642330D01*
X127383142Y-69340285D01*
X127003712Y-68960193D01*
X126507710Y-68754235D01*
X125970647Y-68753766D01*
X125474285Y-68958858D01*
X125094193Y-69338288D01*
X124967944Y-69642330D01*
X124843142Y-69340285D01*
X124463712Y-68960193D01*
X123967710Y-68754235D01*
X123430647Y-68753766D01*
X122934285Y-68958858D01*
X122554193Y-69338288D01*
X122427944Y-69642330D01*
X122303142Y-69340285D01*
X121923712Y-68960193D01*
X121427710Y-68754235D01*
X120890647Y-68753766D01*
X120394285Y-68958858D01*
X120014193Y-69338288D01*
X119887944Y-69642330D01*
X119763142Y-69340285D01*
X119383712Y-68960193D01*
X118887710Y-68754235D01*
X118350647Y-68753766D01*
X117854285Y-68958858D01*
X117474193Y-69338288D01*
X117268235Y-69834290D01*
X117267766Y-70371353D01*
X117472858Y-70867715D01*
X117852288Y-71247807D01*
X118348290Y-71453765D01*
X118885353Y-71454234D01*
X119381715Y-71249142D01*
X119761807Y-70869712D01*
X119888056Y-70565670D01*
X120012858Y-70867715D01*
X120392288Y-71247807D01*
X120888290Y-71453765D01*
X121425353Y-71454234D01*
X121921715Y-71249142D01*
X122301807Y-70869712D01*
X122428056Y-70565670D01*
X122552858Y-70867715D01*
X122932288Y-71247807D01*
X123428290Y-71453765D01*
X123965353Y-71454234D01*
X124461715Y-71249142D01*
X124841807Y-70869712D01*
X124968056Y-70565670D01*
X125092858Y-70867715D01*
X125472288Y-71247807D01*
X125968290Y-71453765D01*
X126505353Y-71454234D01*
X127001715Y-71249142D01*
X127381807Y-70869712D01*
X127508056Y-70565670D01*
X127632858Y-70867715D01*
X128012288Y-71247807D01*
X128508290Y-71453765D01*
X129045353Y-71454234D01*
X129541715Y-71249142D01*
X129921807Y-70869712D01*
X130048056Y-70565670D01*
X130172858Y-70867715D01*
X130552288Y-71247807D01*
X131048290Y-71453765D01*
X131585353Y-71454234D01*
X132081715Y-71249142D01*
X132461807Y-70869712D01*
X132588056Y-70565670D01*
X132712858Y-70867715D01*
X133092288Y-71247807D01*
X133588290Y-71453765D01*
X134125353Y-71454234D01*
X134621715Y-71249142D01*
X135001807Y-70869712D01*
X135128056Y-70565670D01*
X135252858Y-70867715D01*
X135632288Y-71247807D01*
X136128290Y-71453765D01*
X136665353Y-71454234D01*
X137161715Y-71249142D01*
X137541807Y-70869712D01*
X137668056Y-70565670D01*
X137792858Y-70867715D01*
X138172288Y-71247807D01*
X138668290Y-71453765D01*
X139205353Y-71454234D01*
X139701715Y-71249142D01*
X140081807Y-70869712D01*
X140208056Y-70565670D01*
X140332858Y-70867715D01*
X140712288Y-71247807D01*
X141016330Y-71374056D01*
X140714285Y-71498858D01*
X140334193Y-71878288D01*
X140128235Y-72374290D01*
X140127766Y-72911353D01*
X140332858Y-73407715D01*
X140712288Y-73787807D01*
X141016330Y-73914056D01*
X140714285Y-74038858D01*
X140334193Y-74418288D01*
X140128235Y-74914290D01*
X140127766Y-75451353D01*
X140332858Y-75947715D01*
X140712288Y-76327807D01*
X141208290Y-76533765D01*
X141745353Y-76534234D01*
X142241715Y-76329142D01*
X142537372Y-76034000D01*
X142748000Y-76034000D01*
X143073281Y-75969298D01*
X143349041Y-75785041D01*
X144873038Y-74261043D01*
X144873041Y-74261041D01*
X145057298Y-73985281D01*
X145122000Y-73660000D01*
X145122000Y-65069680D01*
X148230420Y-61961260D01*
X154694786Y-61961260D01*
X154701571Y-61995368D01*
X154766758Y-62092927D01*
X154766758Y-62320260D01*
X154831460Y-62645541D01*
X155015717Y-62921301D01*
X155291979Y-63197563D01*
X155191826Y-63264484D01*
X155059214Y-63462951D01*
X155019293Y-63663645D01*
X155017358Y-63663260D01*
X154912866Y-63663260D01*
X154860039Y-63627962D01*
X154534758Y-63563260D01*
X153102422Y-63563260D01*
X153048358Y-63552506D01*
X151798358Y-63552506D01*
X151564250Y-63599073D01*
X151365783Y-63731685D01*
X151310608Y-63814260D01*
X150536108Y-63814260D01*
X150480933Y-63731685D01*
X150282466Y-63599073D01*
X150048358Y-63552506D01*
X148798358Y-63552506D01*
X148564250Y-63599073D01*
X148365783Y-63731685D01*
X148310608Y-63814260D01*
X148298358Y-63814260D01*
X147973077Y-63878962D01*
X147697317Y-64063219D01*
X147697315Y-64063222D01*
X146464959Y-65295577D01*
X146280702Y-65571337D01*
X146216000Y-65896618D01*
X146216000Y-80970246D01*
X145816000Y-80970246D01*
X145581892Y-81016813D01*
X145383425Y-81149425D01*
X145250813Y-81347892D01*
X145204246Y-81582000D01*
X145204246Y-83582000D01*
X145250813Y-83816108D01*
X145383425Y-84014575D01*
X145581892Y-84147187D01*
X145816000Y-84193754D01*
X148316000Y-84193754D01*
X148550108Y-84147187D01*
X148748575Y-84014575D01*
X148881187Y-83816108D01*
X148927754Y-83582000D01*
X148927754Y-81582000D01*
X148881187Y-81347892D01*
X148748575Y-81149425D01*
X148550108Y-81016813D01*
X148316000Y-80970246D01*
X147916000Y-80970246D01*
X147916000Y-69051844D01*
X153268310Y-69051844D01*
X153435422Y-69456286D01*
X153744587Y-69765991D01*
X154148737Y-69933808D01*
X154586344Y-69934190D01*
X154990786Y-69767078D01*
X155045539Y-69712420D01*
X155059214Y-69781167D01*
X155191826Y-69979634D01*
X155390293Y-70112246D01*
X155624401Y-70158813D01*
X156074401Y-70158813D01*
X156174401Y-70138922D01*
X156274401Y-70158813D01*
X156299401Y-70158813D01*
X156299401Y-71125926D01*
X156167009Y-71258087D01*
X155999192Y-71662237D01*
X155998810Y-72099844D01*
X156165922Y-72504286D01*
X156475087Y-72813991D01*
X156879237Y-72981808D01*
X157316844Y-72982190D01*
X157721286Y-72815078D01*
X158030991Y-72505913D01*
X158198808Y-72101763D01*
X158199190Y-71664156D01*
X158032078Y-71259714D01*
X157999401Y-71226980D01*
X157999401Y-70147060D01*
X157934699Y-69821779D01*
X157923575Y-69805131D01*
X157939588Y-69781167D01*
X157986155Y-69547059D01*
X157986155Y-68097059D01*
X157939588Y-67862951D01*
X157806976Y-67664484D01*
X157608509Y-67531872D01*
X157374401Y-67485305D01*
X156924401Y-67485305D01*
X156824401Y-67505196D01*
X156724401Y-67485305D01*
X156274401Y-67485305D01*
X156174401Y-67505196D01*
X156074401Y-67485305D01*
X155624401Y-67485305D01*
X155390293Y-67531872D01*
X155191826Y-67664484D01*
X155059214Y-67862951D01*
X155041637Y-67951319D01*
X154992413Y-67902009D01*
X154588263Y-67734192D01*
X154150656Y-67733810D01*
X153746214Y-67900922D01*
X153436509Y-68210087D01*
X153268692Y-68614237D01*
X153268310Y-69051844D01*
X147916000Y-69051844D01*
X147916000Y-66248700D01*
X148486922Y-65677778D01*
X148564250Y-65729447D01*
X148798358Y-65776014D01*
X150048358Y-65776014D01*
X150282466Y-65729447D01*
X150480933Y-65596835D01*
X150536108Y-65514260D01*
X151310608Y-65514260D01*
X151365783Y-65596835D01*
X151564250Y-65729447D01*
X151798358Y-65776014D01*
X153048358Y-65776014D01*
X153282466Y-65729447D01*
X153480933Y-65596835D01*
X153613545Y-65398368D01*
X153640420Y-65263260D01*
X154534758Y-65263260D01*
X154860039Y-65198558D01*
X154912866Y-65163260D01*
X154981921Y-65163260D01*
X155017268Y-65170291D01*
X155059214Y-65381167D01*
X155191826Y-65579634D01*
X155390293Y-65712246D01*
X155624401Y-65758813D01*
X156074401Y-65758813D01*
X156174401Y-65738922D01*
X156274401Y-65758813D01*
X156724401Y-65758813D01*
X156824401Y-65738922D01*
X156924401Y-65758813D01*
X157374401Y-65758813D01*
X157474401Y-65738922D01*
X157574401Y-65758813D01*
X158024401Y-65758813D01*
X158258509Y-65712246D01*
X158456976Y-65579634D01*
X158589588Y-65381167D01*
X158620146Y-65227540D01*
X158843959Y-65272059D01*
X159913849Y-65272059D01*
X159865804Y-65343963D01*
X159819237Y-65578071D01*
X159819237Y-66878071D01*
X159865804Y-67112179D01*
X159880991Y-67134908D01*
X159880991Y-67491510D01*
X159798416Y-67546685D01*
X159665804Y-67745152D01*
X159619237Y-67979260D01*
X159619237Y-69229260D01*
X159665804Y-69463368D01*
X159798416Y-69661835D01*
X159880991Y-69717010D01*
X159880991Y-69777510D01*
X159798416Y-69832685D01*
X159665804Y-70031152D01*
X159619237Y-70265260D01*
X159619237Y-71515260D01*
X159665804Y-71749368D01*
X159798416Y-71947835D01*
X159880991Y-72003010D01*
X159880991Y-72566781D01*
X159702869Y-72566625D01*
X158781843Y-72947185D01*
X158076561Y-73651238D01*
X157694394Y-74571598D01*
X157693524Y-75568148D01*
X157884091Y-76029357D01*
X157499047Y-75869472D01*
X156553020Y-75868647D01*
X156163776Y-76029479D01*
X156353522Y-75572520D01*
X156354392Y-74575970D01*
X155973832Y-73654944D01*
X155269779Y-72949662D01*
X154349419Y-72567495D01*
X153352869Y-72566625D01*
X152431843Y-72947185D01*
X151726561Y-73651238D01*
X151344394Y-74571598D01*
X151343524Y-75568148D01*
X151724084Y-76489174D01*
X152428137Y-77194456D01*
X152998958Y-77431482D01*
X152998958Y-79062858D01*
X152431843Y-79297185D01*
X151726561Y-80001238D01*
X151344394Y-80921598D01*
X151343524Y-81918148D01*
X151724084Y-82839174D01*
X152428137Y-83544456D01*
X153348497Y-83926623D01*
X154345047Y-83927493D01*
X155266073Y-83546933D01*
X155971355Y-82842880D01*
X156208381Y-82272059D01*
X157839757Y-82272059D01*
X158074084Y-82839174D01*
X158778137Y-83544456D01*
X159698497Y-83926623D01*
X160695047Y-83927493D01*
X161616073Y-83546933D01*
X162321355Y-82842880D01*
X162703522Y-81922520D01*
X162704392Y-80925970D01*
X162323832Y-80004944D01*
X161619779Y-79299662D01*
X161048958Y-79062636D01*
X161048958Y-77431260D01*
X161616073Y-77196933D01*
X162321355Y-76492880D01*
X162703522Y-75572520D01*
X162704392Y-74575970D01*
X162323832Y-73654944D01*
X161619779Y-72949662D01*
X161580991Y-72933556D01*
X161580991Y-72003010D01*
X161663566Y-71947835D01*
X161796178Y-71749368D01*
X161842745Y-71515260D01*
X161842745Y-70265260D01*
X161796178Y-70031152D01*
X161663566Y-69832685D01*
X161580991Y-69777510D01*
X161580991Y-69717010D01*
X161663566Y-69661835D01*
X161796178Y-69463368D01*
X161842745Y-69229260D01*
X161842745Y-67979260D01*
X161796178Y-67745152D01*
X161663566Y-67546685D01*
X161580991Y-67491510D01*
X161580991Y-67284568D01*
X161696178Y-67112179D01*
X161742745Y-66878071D01*
X161742745Y-65578071D01*
X161696178Y-65343963D01*
X161630991Y-65246404D01*
X161630991Y-65152767D01*
X161718066Y-65135447D01*
X161916533Y-65002835D01*
X162049145Y-64804368D01*
X162095712Y-64570260D01*
X162095712Y-63870260D01*
X162049145Y-63636152D01*
X161916533Y-63437685D01*
X161718066Y-63305073D01*
X161543049Y-63270260D01*
X161718066Y-63235447D01*
X161916533Y-63102835D01*
X162049145Y-62904368D01*
X162095712Y-62670260D01*
X162095712Y-61970260D01*
X162049145Y-61736152D01*
X161916533Y-61537685D01*
X161718066Y-61405073D01*
X161683958Y-61398288D01*
X161683958Y-59831833D01*
X162187779Y-59328012D01*
X162320391Y-59129545D01*
X162366958Y-58895437D01*
X162320391Y-58661329D01*
X162187779Y-58462862D01*
X160773566Y-57048649D01*
X160575099Y-56916037D01*
X160340991Y-56869470D01*
X160106883Y-56916037D01*
X159908416Y-57048649D01*
X158140649Y-58816416D01*
X158008037Y-59014883D01*
X157961470Y-59248991D01*
X158008037Y-59483099D01*
X158140649Y-59681566D01*
X159554862Y-61095779D01*
X159753329Y-61228391D01*
X159983958Y-61274266D01*
X159983958Y-61398288D01*
X159949850Y-61405073D01*
X159751383Y-61537685D01*
X159618771Y-61736152D01*
X159572204Y-61970260D01*
X159572204Y-62670260D01*
X159618771Y-62904368D01*
X159751383Y-63102835D01*
X159949850Y-63235447D01*
X160124867Y-63270260D01*
X159949850Y-63305073D01*
X159751383Y-63437685D01*
X159661597Y-63572059D01*
X158843959Y-63572059D01*
X158620146Y-63616578D01*
X158589588Y-63462951D01*
X158456976Y-63264484D01*
X158374045Y-63209071D01*
X158538991Y-63044413D01*
X158706808Y-62640263D01*
X158707190Y-62202656D01*
X158540078Y-61798214D01*
X158478512Y-61736540D01*
X158478512Y-60461260D01*
X158431945Y-60227152D01*
X158299333Y-60028685D01*
X158100866Y-59896073D01*
X157866758Y-59849506D01*
X157166758Y-59849506D01*
X156932650Y-59896073D01*
X156734183Y-60028685D01*
X156601571Y-60227152D01*
X156566758Y-60402169D01*
X156531945Y-60227152D01*
X156399333Y-60028685D01*
X156200866Y-59896073D01*
X155966758Y-59849506D01*
X155266758Y-59849506D01*
X155032650Y-59896073D01*
X154834183Y-60028685D01*
X154701571Y-60227152D01*
X154694786Y-60261260D01*
X147878338Y-60261260D01*
X147553057Y-60325962D01*
X147277297Y-60510219D01*
X143670959Y-64116557D01*
X143486702Y-64392317D01*
X143422000Y-64717598D01*
X143422000Y-73307919D01*
X142466524Y-74263394D01*
X142243712Y-74040193D01*
X141939670Y-73913944D01*
X142241715Y-73789142D01*
X142621807Y-73409712D01*
X142827765Y-72913710D01*
X142828234Y-72376647D01*
X142623142Y-71880285D01*
X142243712Y-71500193D01*
X141939670Y-71373944D01*
X142241715Y-71249142D01*
X142621807Y-70869712D01*
X142827765Y-70373710D01*
X142828234Y-69836647D01*
X142623142Y-69340285D01*
X142243712Y-68960193D01*
X141747710Y-68754235D01*
X141210647Y-68753766D01*
X140714285Y-68958858D01*
X140334193Y-69338288D01*
X140207944Y-69642330D01*
X140083142Y-69340285D01*
X139788000Y-69044628D01*
X139788000Y-68834000D01*
X139723298Y-68508719D01*
X139539041Y-68232959D01*
X125430029Y-54123947D01*
X125154269Y-53939690D01*
X124828988Y-53874988D01*
X110197000Y-53874988D01*
X109871719Y-53939690D01*
X109595959Y-54123947D01*
X109595957Y-54123950D01*
X107468949Y-56250957D01*
X107284692Y-56526717D01*
X107219990Y-56851998D01*
X86258755Y-56851998D01*
X86863982Y-56247827D01*
X87199618Y-55439527D01*
X87200381Y-54564313D01*
X86866157Y-53755428D01*
X86247827Y-53136018D01*
X86040298Y-53049844D01*
X154731824Y-53049844D01*
X154898936Y-53454286D01*
X155208101Y-53763991D01*
X155612251Y-53931808D01*
X155729843Y-53931911D01*
X156485786Y-54687854D01*
X156485786Y-54814423D01*
X155312221Y-55987988D01*
X155179609Y-56186455D01*
X155133042Y-56420563D01*
X155179609Y-56654671D01*
X155312221Y-56853138D01*
X156726434Y-58267351D01*
X156924901Y-58399963D01*
X157159009Y-58446530D01*
X157393117Y-58399963D01*
X157591584Y-58267351D01*
X159359351Y-56499584D01*
X159491963Y-56301117D01*
X159538530Y-56067009D01*
X159491963Y-55832901D01*
X159359351Y-55634434D01*
X159160604Y-55435687D01*
X162799619Y-55435687D01*
X163133843Y-56244572D01*
X163752173Y-56863982D01*
X164560473Y-57199618D01*
X165435687Y-57200381D01*
X166244572Y-56866157D01*
X166863982Y-56247827D01*
X167199618Y-55439527D01*
X167200381Y-54564313D01*
X166866157Y-53755428D01*
X166247827Y-53136018D01*
X165439527Y-52800382D01*
X164564313Y-52799619D01*
X163755428Y-53133843D01*
X163136018Y-53752173D01*
X162800382Y-54560473D01*
X162799619Y-55435687D01*
X159160604Y-55435687D01*
X158185786Y-54460869D01*
X158185786Y-54335777D01*
X158185787Y-54335772D01*
X158121084Y-54010491D01*
X157936827Y-53734731D01*
X156932103Y-52730007D01*
X156932204Y-52614156D01*
X156765092Y-52209714D01*
X156455927Y-51900009D01*
X156051777Y-51732192D01*
X155614170Y-51731810D01*
X155209728Y-51898922D01*
X154900023Y-52208087D01*
X154732206Y-52612237D01*
X154731824Y-53049844D01*
X86040298Y-53049844D01*
X85439527Y-52800382D01*
X84564313Y-52799619D01*
X83755428Y-53133843D01*
X83136018Y-53752173D01*
X82800382Y-54560473D01*
X82799619Y-55435687D01*
X59664622Y-55435687D01*
X59434438Y-55091192D01*
X58347619Y-54365004D01*
X57065630Y-54110000D01*
X56934370Y-54110000D01*
X55652381Y-54365004D01*
X54565562Y-55091192D01*
X53839374Y-56178011D01*
X53584370Y-57460000D01*
X51200000Y-57460000D01*
X51200000Y-51200000D01*
X168800000Y-51200000D01*
X168800000Y-168800000D01*
X168800000Y-168800000D01*
G37*
X168800000Y-168800000D02*
X51200000Y-168800000D01*
X51200000Y-163080000D01*
X53584370Y-163080000D01*
X53839374Y-164361989D01*
X54565562Y-165448808D01*
X55652381Y-166174996D01*
X56934370Y-166430000D01*
X57065630Y-166430000D01*
X58347619Y-166174996D01*
X59434438Y-165448808D01*
X59443205Y-165435687D01*
X82799619Y-165435687D01*
X83133843Y-166244572D01*
X83752173Y-166863982D01*
X84560473Y-167199618D01*
X85435687Y-167200381D01*
X86244572Y-166866157D01*
X86863982Y-166247827D01*
X87199618Y-165439527D01*
X87199621Y-165435687D01*
X162799619Y-165435687D01*
X163133843Y-166244572D01*
X163752173Y-166863982D01*
X164560473Y-167199618D01*
X165435687Y-167200381D01*
X166244572Y-166866157D01*
X166863982Y-166247827D01*
X167199618Y-165439527D01*
X167200381Y-164564313D01*
X166866157Y-163755428D01*
X166247827Y-163136018D01*
X165439527Y-162800382D01*
X164564313Y-162799619D01*
X163755428Y-163133843D01*
X163136018Y-163752173D01*
X162800382Y-164560473D01*
X162799619Y-165435687D01*
X87199621Y-165435687D01*
X87200381Y-164564313D01*
X86866157Y-163755428D01*
X86247827Y-163136018D01*
X85439527Y-162800382D01*
X84564313Y-162799619D01*
X83755428Y-163133843D01*
X83136018Y-163752173D01*
X82800382Y-164560473D01*
X82799619Y-165435687D01*
X59443205Y-165435687D01*
X60160626Y-164361989D01*
X60415630Y-163080000D01*
X60160626Y-161798011D01*
X59434438Y-160711192D01*
X58347619Y-159985004D01*
X57065630Y-159730000D01*
X56934370Y-159730000D01*
X55652381Y-159985004D01*
X54565562Y-160711192D01*
X53839374Y-161798011D01*
X53584370Y-163080000D01*
X51200000Y-163080000D01*
X51200000Y-154610000D01*
X53601023Y-154610000D01*
X53601023Y-156310000D01*
X53795052Y-157285451D01*
X54347601Y-158112399D01*
X55174549Y-158664948D01*
X56150000Y-158858977D01*
X57850000Y-158858977D01*
X58825451Y-158664948D01*
X59652399Y-158112399D01*
X59932539Y-157693139D01*
X67499394Y-157693139D01*
X68031114Y-158980001D01*
X69014821Y-159965425D01*
X70300753Y-160499391D01*
X71693139Y-160500606D01*
X72980001Y-159968886D01*
X73965425Y-158985179D01*
X74499391Y-157699247D01*
X74500160Y-156816863D01*
X135399723Y-156816863D01*
X135642795Y-157405143D01*
X136092489Y-157855623D01*
X136680344Y-158099722D01*
X137316863Y-158100277D01*
X137905143Y-157857205D01*
X138355623Y-157407511D01*
X138599722Y-156819656D01*
X138600277Y-156183137D01*
X138365115Y-155614000D01*
X141286246Y-155614000D01*
X141286246Y-157314000D01*
X141332813Y-157548108D01*
X141465425Y-157746575D01*
X141663892Y-157879187D01*
X141898000Y-157925754D01*
X143598000Y-157925754D01*
X143832108Y-157879187D01*
X144030575Y-157746575D01*
X144163187Y-157548108D01*
X144190674Y-157409924D01*
X144262695Y-157517712D01*
X144733109Y-157832032D01*
X145288000Y-157942407D01*
X145842891Y-157832032D01*
X146313305Y-157517712D01*
X146558000Y-157151499D01*
X146802695Y-157517712D01*
X147273109Y-157832032D01*
X147828000Y-157942407D01*
X148382891Y-157832032D01*
X148853305Y-157517712D01*
X149098000Y-157151499D01*
X149342695Y-157517712D01*
X149813109Y-157832032D01*
X150368000Y-157942407D01*
X150922891Y-157832032D01*
X151393305Y-157517712D01*
X151638000Y-157151499D01*
X151882695Y-157517712D01*
X152353109Y-157832032D01*
X152908000Y-157942407D01*
X153462891Y-157832032D01*
X153933305Y-157517712D01*
X154178000Y-157151499D01*
X154422695Y-157517712D01*
X154893109Y-157832032D01*
X155448000Y-157942407D01*
X156002891Y-157832032D01*
X156473305Y-157517712D01*
X156718000Y-157151499D01*
X156962695Y-157517712D01*
X157433109Y-157832032D01*
X157988000Y-157942407D01*
X158542891Y-157832032D01*
X159013305Y-157517712D01*
X159258000Y-157151499D01*
X159502695Y-157517712D01*
X159973109Y-157832032D01*
X160528000Y-157942407D01*
X161082891Y-157832032D01*
X161553305Y-157517712D01*
X161867625Y-157047298D01*
X161978000Y-156492407D01*
X161978000Y-156435593D01*
X161867625Y-155880702D01*
X161553305Y-155410288D01*
X161082891Y-155095968D01*
X160528000Y-154985593D01*
X159973109Y-155095968D01*
X159502695Y-155410288D01*
X159258000Y-155776501D01*
X159013305Y-155410288D01*
X158542891Y-155095968D01*
X157988000Y-154985593D01*
X157433109Y-155095968D01*
X156962695Y-155410288D01*
X156718000Y-155776501D01*
X156473305Y-155410288D01*
X156002891Y-155095968D01*
X155448000Y-154985593D01*
X154893109Y-155095968D01*
X154422695Y-155410288D01*
X154178000Y-155776501D01*
X153933305Y-155410288D01*
X153462891Y-155095968D01*
X152908000Y-154985593D01*
X152353109Y-155095968D01*
X151882695Y-155410288D01*
X151638000Y-155776501D01*
X151393305Y-155410288D01*
X150922891Y-155095968D01*
X150368000Y-154985593D01*
X149813109Y-155095968D01*
X149342695Y-155410288D01*
X149098000Y-155776501D01*
X148853305Y-155410288D01*
X148382891Y-155095968D01*
X147828000Y-154985593D01*
X147273109Y-155095968D01*
X146802695Y-155410288D01*
X146558000Y-155776501D01*
X146313305Y-155410288D01*
X145842891Y-155095968D01*
X145288000Y-154985593D01*
X144733109Y-155095968D01*
X144262695Y-155410288D01*
X144190674Y-155518076D01*
X144163187Y-155379892D01*
X144030575Y-155181425D01*
X143832108Y-155048813D01*
X143598000Y-155002246D01*
X141898000Y-155002246D01*
X141663892Y-155048813D01*
X141465425Y-155181425D01*
X141332813Y-155379892D01*
X141286246Y-155614000D01*
X138365115Y-155614000D01*
X138357205Y-155594857D01*
X137907511Y-155144377D01*
X137319656Y-154900278D01*
X136683137Y-154899723D01*
X136094857Y-155142795D01*
X135644377Y-155592489D01*
X135400278Y-156180344D01*
X135399723Y-156816863D01*
X74500160Y-156816863D01*
X74500606Y-156306861D01*
X73968886Y-155019999D01*
X72985179Y-154034575D01*
X71699247Y-153500609D01*
X70306861Y-153499394D01*
X69019999Y-154031114D01*
X68034575Y-155014821D01*
X67500609Y-156300753D01*
X67499394Y-157693139D01*
X59932539Y-157693139D01*
X60204948Y-157285451D01*
X60398977Y-156310000D01*
X60398977Y-154610000D01*
X60204948Y-153634549D01*
X59652399Y-152807601D01*
X58825451Y-152255052D01*
X57850000Y-152061023D01*
X56150000Y-152061023D01*
X55174549Y-152255052D01*
X54347601Y-152807601D01*
X53795052Y-153634549D01*
X53601023Y-154610000D01*
X51200000Y-154610000D01*
X51200000Y-150415883D01*
X68899637Y-150415883D01*
X69218669Y-151188000D01*
X69808893Y-151779255D01*
X70580452Y-152099634D01*
X71415883Y-152100363D01*
X72188000Y-151781331D01*
X72779255Y-151191107D01*
X73099634Y-150419548D01*
X73100363Y-149584117D01*
X72781331Y-148812000D01*
X72191107Y-148220745D01*
X71419548Y-147900366D01*
X70584117Y-147899637D01*
X69812000Y-148218669D01*
X69220745Y-148808893D01*
X68900366Y-149580452D01*
X68899637Y-150415883D01*
X51200000Y-150415883D01*
X51200000Y-144161840D01*
X53250000Y-144161840D01*
X53250000Y-145838160D01*
X53535452Y-147273223D01*
X54348350Y-148489810D01*
X55564937Y-149302708D01*
X57000000Y-149588160D01*
X58435063Y-149302708D01*
X59651650Y-148489810D01*
X60464548Y-147273223D01*
X60750000Y-145838160D01*
X60750000Y-144161840D01*
X60656770Y-143693139D01*
X67499394Y-143693139D01*
X68031114Y-144980001D01*
X69014821Y-145965425D01*
X70300753Y-146499391D01*
X71693139Y-146500606D01*
X72980001Y-145968886D01*
X73965425Y-144985179D01*
X74499391Y-143699247D01*
X74500606Y-142306861D01*
X73968886Y-141019999D01*
X72985179Y-140034575D01*
X71699247Y-139500609D01*
X70306861Y-139499394D01*
X69019999Y-140031114D01*
X68034575Y-141014821D01*
X67500609Y-142300753D01*
X67499394Y-143693139D01*
X60656770Y-143693139D01*
X60464548Y-142726777D01*
X59651650Y-141510190D01*
X58435063Y-140697292D01*
X57000000Y-140411840D01*
X55564937Y-140697292D01*
X54348350Y-141510190D01*
X53535452Y-142726777D01*
X53250000Y-144161840D01*
X51200000Y-144161840D01*
X51200000Y-107750000D01*
X52951023Y-107750000D01*
X52951023Y-115250000D01*
X53202143Y-116512464D01*
X53917271Y-117582729D01*
X54987536Y-118297857D01*
X56250000Y-118548977D01*
X56310566Y-118548977D01*
X55564937Y-118697292D01*
X54348350Y-119510190D01*
X53535452Y-120726777D01*
X53250000Y-122161840D01*
X53250000Y-123838160D01*
X53535452Y-125273223D01*
X54348350Y-126489810D01*
X55564937Y-127302708D01*
X57000000Y-127588160D01*
X58435063Y-127302708D01*
X59651650Y-126489810D01*
X60464548Y-125273223D01*
X60750000Y-123838160D01*
X60750000Y-122161840D01*
X60464548Y-120726777D01*
X59651650Y-119510190D01*
X58435063Y-118697292D01*
X57689434Y-118548977D01*
X57750000Y-118548977D01*
X59012464Y-118297857D01*
X60082729Y-117582729D01*
X60797857Y-116512464D01*
X61048977Y-115250000D01*
X61048977Y-107750000D01*
X60797857Y-106487536D01*
X60082729Y-105417271D01*
X59012464Y-104702143D01*
X57750000Y-104451023D01*
X56250000Y-104451023D01*
X54987536Y-104702143D01*
X53917271Y-105417271D01*
X53202143Y-106487536D01*
X52951023Y-107750000D01*
X51200000Y-107750000D01*
X51200000Y-74750000D01*
X52951023Y-74750000D01*
X52951023Y-82250000D01*
X53202143Y-83512464D01*
X53917271Y-84582729D01*
X54987536Y-85297857D01*
X56250000Y-85548977D01*
X57750000Y-85548977D01*
X59012464Y-85297857D01*
X60082729Y-84582729D01*
X60797857Y-83512464D01*
X61048977Y-82250000D01*
X61048977Y-80250000D01*
X84888246Y-80250000D01*
X84888246Y-87750000D01*
X84991903Y-88271121D01*
X85287095Y-88712905D01*
X85728879Y-89008097D01*
X86250000Y-89111754D01*
X87750000Y-89111754D01*
X88271121Y-89008097D01*
X88712905Y-88712905D01*
X89008097Y-88271121D01*
X89111754Y-87750000D01*
X89111754Y-87000000D01*
X96308246Y-87000000D01*
X96308246Y-89000000D01*
X96354813Y-89234108D01*
X96487425Y-89432575D01*
X96685892Y-89565187D01*
X96920000Y-89611754D01*
X97084670Y-89611754D01*
X97134702Y-89863281D01*
X97318959Y-90139041D01*
X97734541Y-90554623D01*
X97710000Y-90678000D01*
X97710000Y-133350000D01*
X97812763Y-133866623D01*
X98105406Y-134304594D01*
X98543377Y-134597237D01*
X99060000Y-134700000D01*
X99576623Y-134597237D01*
X100014594Y-134304594D01*
X100307237Y-133866623D01*
X100410000Y-133350000D01*
X100410000Y-127316863D01*
X108399723Y-127316863D01*
X108642795Y-127905143D01*
X109092489Y-128355623D01*
X109680344Y-128599722D01*
X110316863Y-128600277D01*
X110905143Y-128357205D01*
X111355623Y-127907511D01*
X111599722Y-127319656D01*
X111599808Y-127220863D01*
X123383723Y-127220863D01*
X123626795Y-127809143D01*
X124076489Y-128259623D01*
X124664344Y-128503722D01*
X125300863Y-128504277D01*
X125889143Y-128261205D01*
X126339623Y-127811511D01*
X126583722Y-127223656D01*
X126584277Y-126587137D01*
X126341205Y-125998857D01*
X125891511Y-125548377D01*
X125303656Y-125304278D01*
X124667137Y-125303723D01*
X124078857Y-125546795D01*
X123628377Y-125996489D01*
X123384278Y-126584344D01*
X123383723Y-127220863D01*
X111599808Y-127220863D01*
X111600277Y-126683137D01*
X111357205Y-126094857D01*
X110907511Y-125644377D01*
X110319656Y-125400278D01*
X109683137Y-125399723D01*
X109094857Y-125642795D01*
X108644377Y-126092489D01*
X108400278Y-126680344D01*
X108399723Y-127316863D01*
X100410000Y-127316863D01*
X100410000Y-124060000D01*
X143805000Y-124060000D01*
X143805000Y-134100000D01*
X143879217Y-134473117D01*
X144090571Y-134789429D01*
X145960630Y-136659488D01*
X145952572Y-136700000D01*
X146059141Y-137235757D01*
X146362623Y-137689949D01*
X146816815Y-137993431D01*
X147352572Y-138100000D01*
X147407428Y-138100000D01*
X147943185Y-137993431D01*
X148397377Y-137689949D01*
X148700859Y-137235757D01*
X148807428Y-136700000D01*
X148700859Y-136164243D01*
X148397377Y-135710051D01*
X147978252Y-135430000D01*
X148397377Y-135149949D01*
X148700859Y-134695757D01*
X148807428Y-134160000D01*
X148700859Y-133624243D01*
X148397377Y-133170051D01*
X147978252Y-132890000D01*
X148397377Y-132609949D01*
X148700859Y-132155757D01*
X148807428Y-131620000D01*
X148700859Y-131084243D01*
X148397377Y-130630051D01*
X147978252Y-130350000D01*
X148397377Y-130069949D01*
X148700859Y-129615757D01*
X148807428Y-129080000D01*
X148700859Y-128544243D01*
X148397377Y-128090051D01*
X147978252Y-127810000D01*
X148397377Y-127529949D01*
X148700859Y-127075757D01*
X148807428Y-126540000D01*
X148700859Y-126004243D01*
X148397377Y-125550051D01*
X147978252Y-125270000D01*
X148397377Y-124989949D01*
X148700859Y-124535757D01*
X148807428Y-124000000D01*
X153572572Y-124000000D01*
X153679141Y-124535757D01*
X153982623Y-124989949D01*
X154401748Y-125270000D01*
X153982623Y-125550051D01*
X153679141Y-126004243D01*
X153572572Y-126540000D01*
X153679141Y-127075757D01*
X153982623Y-127529949D01*
X154401748Y-127810000D01*
X153982623Y-128090051D01*
X153679141Y-128544243D01*
X153572572Y-129080000D01*
X153679141Y-129615757D01*
X153982623Y-130069949D01*
X154401748Y-130350000D01*
X153982623Y-130630051D01*
X153679141Y-131084243D01*
X153572572Y-131620000D01*
X153679141Y-132155757D01*
X153982623Y-132609949D01*
X154401748Y-132890000D01*
X153982623Y-133170051D01*
X153679141Y-133624243D01*
X153572572Y-134160000D01*
X153679141Y-134695757D01*
X153982623Y-135149949D01*
X154401748Y-135430000D01*
X153982623Y-135710051D01*
X153679141Y-136164243D01*
X153572572Y-136700000D01*
X153679141Y-137235757D01*
X153982623Y-137689949D01*
X154401748Y-137970000D01*
X153982623Y-138250051D01*
X153679141Y-138704243D01*
X153572572Y-139240000D01*
X153679141Y-139775757D01*
X153982623Y-140229949D01*
X154436815Y-140533431D01*
X154972572Y-140640000D01*
X155027428Y-140640000D01*
X155563185Y-140533431D01*
X156017377Y-140229949D01*
X156320859Y-139775757D01*
X156427428Y-139240000D01*
X156320859Y-138704243D01*
X156017377Y-138250051D01*
X155598252Y-137970000D01*
X156017377Y-137689949D01*
X156320859Y-137235757D01*
X156427428Y-136700000D01*
X156320859Y-136164243D01*
X156017377Y-135710051D01*
X155598252Y-135430000D01*
X156017377Y-135149949D01*
X156320859Y-134695757D01*
X156427428Y-134160000D01*
X156320859Y-133624243D01*
X156017377Y-133170051D01*
X155598252Y-132890000D01*
X156017377Y-132609949D01*
X156320859Y-132155757D01*
X156427428Y-131620000D01*
X156320859Y-131084243D01*
X156017377Y-130630051D01*
X155598252Y-130350000D01*
X156017377Y-130069949D01*
X156320859Y-129615757D01*
X156427428Y-129080000D01*
X156320859Y-128544243D01*
X156017377Y-128090051D01*
X155598252Y-127810000D01*
X156017377Y-127529949D01*
X156320859Y-127075757D01*
X156427428Y-126540000D01*
X156320859Y-126004243D01*
X156017377Y-125550051D01*
X155598252Y-125270000D01*
X156017377Y-124989949D01*
X156320859Y-124535757D01*
X156427428Y-124000000D01*
X156320859Y-123464243D01*
X156017377Y-123010051D01*
X155563185Y-122706569D01*
X155027428Y-122600000D01*
X154972572Y-122600000D01*
X154436815Y-122706569D01*
X153982623Y-123010051D01*
X153679141Y-123464243D01*
X153572572Y-124000000D01*
X148807428Y-124000000D01*
X148700859Y-123464243D01*
X148397377Y-123010051D01*
X147978252Y-122730000D01*
X148397377Y-122449949D01*
X148700859Y-121995757D01*
X148807428Y-121460000D01*
X148700859Y-120924243D01*
X148397377Y-120470051D01*
X148188015Y-120330160D01*
X148414108Y-120285187D01*
X148612575Y-120152575D01*
X148745187Y-119954108D01*
X148791754Y-119720000D01*
X148791754Y-118920000D01*
X153572572Y-118920000D01*
X153679141Y-119455757D01*
X153982623Y-119909949D01*
X154436815Y-120213431D01*
X154972572Y-120320000D01*
X155027428Y-120320000D01*
X155563185Y-120213431D01*
X156017377Y-119909949D01*
X156320859Y-119455757D01*
X156427428Y-118920000D01*
X156320859Y-118384243D01*
X156017377Y-117930051D01*
X155563185Y-117626569D01*
X155027428Y-117520000D01*
X154972572Y-117520000D01*
X154436815Y-117626569D01*
X153982623Y-117930051D01*
X153679141Y-118384243D01*
X153572572Y-118920000D01*
X148791754Y-118920000D01*
X148791754Y-118120000D01*
X148745187Y-117885892D01*
X148612575Y-117687425D01*
X148414108Y-117554813D01*
X148180000Y-117508246D01*
X146580000Y-117508246D01*
X146345892Y-117554813D01*
X146147425Y-117687425D01*
X146014813Y-117885892D01*
X145968246Y-118120000D01*
X145968246Y-119720000D01*
X146014813Y-119954108D01*
X146147425Y-120152575D01*
X146345892Y-120285187D01*
X146571985Y-120330160D01*
X146362623Y-120470051D01*
X146059141Y-120924243D01*
X145952572Y-121460000D01*
X145960630Y-121500512D01*
X144090571Y-123370571D01*
X143879217Y-123686883D01*
X143879217Y-123686884D01*
X143805000Y-124060000D01*
X100410000Y-124060000D01*
X100410000Y-109540000D01*
X161521593Y-109540000D01*
X161631968Y-110094891D01*
X161946288Y-110565305D01*
X162312501Y-110810000D01*
X161946288Y-111054695D01*
X161631968Y-111525109D01*
X161521593Y-112080000D01*
X161631968Y-112634891D01*
X161946288Y-113105305D01*
X162416702Y-113419625D01*
X162971593Y-113530000D01*
X163028407Y-113530000D01*
X163583298Y-113419625D01*
X164053712Y-113105305D01*
X164368032Y-112634891D01*
X164478407Y-112080000D01*
X164368032Y-111525109D01*
X164053712Y-111054695D01*
X163687499Y-110810000D01*
X164053712Y-110565305D01*
X164368032Y-110094891D01*
X164478407Y-109540000D01*
X164368032Y-108985109D01*
X164053712Y-108514695D01*
X163583298Y-108200375D01*
X163028407Y-108090000D01*
X162971593Y-108090000D01*
X162416702Y-108200375D01*
X161946288Y-108514695D01*
X161631968Y-108985109D01*
X161521593Y-109540000D01*
X100410000Y-109540000D01*
X100410000Y-90752082D01*
X101061038Y-90101043D01*
X101061041Y-90101041D01*
X101245298Y-89825281D01*
X101265562Y-89723406D01*
X101287772Y-89611754D01*
X101460000Y-89611754D01*
X101694108Y-89565187D01*
X101892575Y-89432575D01*
X102025187Y-89234108D01*
X102071754Y-89000000D01*
X102071754Y-87000000D01*
X102025187Y-86765892D01*
X102024195Y-86764407D01*
X103975805Y-86764407D01*
X103974813Y-86765892D01*
X103928246Y-87000000D01*
X103928246Y-89000000D01*
X103974813Y-89234108D01*
X104107425Y-89432575D01*
X104190000Y-89487750D01*
X104190000Y-89662000D01*
X104292763Y-90178623D01*
X104456719Y-90424000D01*
X104585406Y-90616594D01*
X107616000Y-93647188D01*
X107616000Y-100584000D01*
X107718763Y-101100623D01*
X108011406Y-101538594D01*
X111887406Y-105414594D01*
X112325378Y-105707238D01*
X112842000Y-105810000D01*
X155382000Y-105810000D01*
X155898623Y-105707237D01*
X156336594Y-105414594D01*
X156402594Y-105348594D01*
X156695237Y-104910622D01*
X156798000Y-104394000D01*
X156695237Y-103877378D01*
X156516582Y-103610000D01*
X161538246Y-103610000D01*
X161538246Y-105310000D01*
X161584813Y-105544108D01*
X161717425Y-105742575D01*
X161915892Y-105875187D01*
X162150000Y-105921754D01*
X163850000Y-105921754D01*
X164084108Y-105875187D01*
X164282575Y-105742575D01*
X164415187Y-105544108D01*
X164461754Y-105310000D01*
X164461754Y-103610000D01*
X164415187Y-103375892D01*
X164282575Y-103177425D01*
X164084108Y-103044813D01*
X163850000Y-102998246D01*
X162150000Y-102998246D01*
X161915892Y-103044813D01*
X161717425Y-103177425D01*
X161584813Y-103375892D01*
X161538246Y-103610000D01*
X156516582Y-103610000D01*
X156402594Y-103439406D01*
X155964622Y-103146763D01*
X155448000Y-103044000D01*
X155116197Y-103110000D01*
X147916000Y-103110000D01*
X147916000Y-96209761D01*
X147997991Y-96127913D01*
X148165808Y-95723763D01*
X148166190Y-95286156D01*
X147999078Y-94881714D01*
X147689913Y-94572009D01*
X147285763Y-94404192D01*
X146848156Y-94403810D01*
X146443714Y-94570922D01*
X146134009Y-94880087D01*
X145966192Y-95284237D01*
X145965810Y-95721844D01*
X146132922Y-96126286D01*
X146216000Y-96209509D01*
X146216000Y-103110000D01*
X115021000Y-103110000D01*
X115021000Y-95331180D01*
X115199974Y-95152518D01*
X115316029Y-94873028D01*
X115430679Y-95150503D01*
X115813482Y-95533974D01*
X116313893Y-95741763D01*
X116855730Y-95742236D01*
X117356503Y-95535321D01*
X117739974Y-95152518D01*
X117856029Y-94873028D01*
X117970679Y-95150503D01*
X118353482Y-95533974D01*
X118853893Y-95741763D01*
X119395730Y-95742236D01*
X119896503Y-95535321D01*
X120279974Y-95152518D01*
X120396029Y-94873028D01*
X120510679Y-95150503D01*
X120893482Y-95533974D01*
X121393893Y-95741763D01*
X121935730Y-95742236D01*
X122436503Y-95535321D01*
X122819974Y-95152518D01*
X122936029Y-94873028D01*
X123050679Y-95150503D01*
X123433482Y-95533974D01*
X123712972Y-95650029D01*
X123435497Y-95764679D01*
X123052026Y-96147482D01*
X122844237Y-96647893D01*
X122843764Y-97189730D01*
X123050679Y-97690503D01*
X123433482Y-98073974D01*
X123933893Y-98281763D01*
X124475730Y-98282236D01*
X124976503Y-98075321D01*
X125359974Y-97692518D01*
X125567763Y-97192107D01*
X125568236Y-96650270D01*
X125361321Y-96149497D01*
X124978518Y-95766026D01*
X124699028Y-95649971D01*
X124976503Y-95535321D01*
X125359974Y-95152518D01*
X125567763Y-94652107D01*
X125568236Y-94110270D01*
X125361321Y-93609497D01*
X124978518Y-93226026D01*
X124478107Y-93018237D01*
X123936270Y-93017764D01*
X123435497Y-93224679D01*
X123052026Y-93607482D01*
X122935971Y-93886972D01*
X122821321Y-93609497D01*
X122438518Y-93226026D01*
X121938107Y-93018237D01*
X121396270Y-93017764D01*
X120895497Y-93224679D01*
X120512026Y-93607482D01*
X120395971Y-93886972D01*
X120281321Y-93609497D01*
X119898518Y-93226026D01*
X119398107Y-93018237D01*
X118965942Y-93017860D01*
X112109001Y-86160919D01*
X112109001Y-85611353D01*
X112187766Y-85611353D01*
X112392858Y-86107715D01*
X112772288Y-86487807D01*
X113268290Y-86693765D01*
X113805353Y-86694234D01*
X114301715Y-86489142D01*
X114681807Y-86109712D01*
X114808056Y-85805670D01*
X114932858Y-86107715D01*
X115312288Y-86487807D01*
X115808290Y-86693765D01*
X116345353Y-86694234D01*
X116841715Y-86489142D01*
X117221807Y-86109712D01*
X117348056Y-85805670D01*
X117472858Y-86107715D01*
X117852288Y-86487807D01*
X118348290Y-86693765D01*
X118885353Y-86694234D01*
X119381715Y-86489142D01*
X119761807Y-86109712D01*
X119967765Y-85613710D01*
X119967767Y-85611353D01*
X122347766Y-85611353D01*
X122552858Y-86107715D01*
X122932288Y-86487807D01*
X123428290Y-86693765D01*
X123965353Y-86694234D01*
X124461715Y-86489142D01*
X124841807Y-86109712D01*
X124968056Y-85805670D01*
X125092858Y-86107715D01*
X125472288Y-86487807D01*
X125968290Y-86693765D01*
X126505353Y-86694234D01*
X127001715Y-86489142D01*
X127381807Y-86109712D01*
X127508056Y-85805670D01*
X127632858Y-86107715D01*
X128012288Y-86487807D01*
X128508290Y-86693765D01*
X129045353Y-86694234D01*
X129541715Y-86489142D01*
X129921807Y-86109712D01*
X130048056Y-85805670D01*
X130172858Y-86107715D01*
X130552288Y-86487807D01*
X131048290Y-86693765D01*
X131585353Y-86694234D01*
X132081715Y-86489142D01*
X132461807Y-86109712D01*
X132588056Y-85805670D01*
X132712858Y-86107715D01*
X133092288Y-86487807D01*
X133588290Y-86693765D01*
X134125353Y-86694234D01*
X134621715Y-86489142D01*
X135001807Y-86109712D01*
X135128056Y-85805670D01*
X135252858Y-86107715D01*
X135632288Y-86487807D01*
X136128290Y-86693765D01*
X136665353Y-86694234D01*
X137161715Y-86489142D01*
X137541807Y-86109712D01*
X137668056Y-85805670D01*
X137792858Y-86107715D01*
X138172288Y-86487807D01*
X138668290Y-86693765D01*
X139205353Y-86694234D01*
X139701715Y-86489142D01*
X140081807Y-86109712D01*
X140208056Y-85805670D01*
X140332858Y-86107715D01*
X140628000Y-86403372D01*
X140628000Y-87884000D01*
X140692702Y-88209281D01*
X140876959Y-88485041D01*
X146452959Y-94061041D01*
X146728719Y-94245298D01*
X147054000Y-94310000D01*
X157016260Y-94310000D01*
X157110087Y-94403991D01*
X157514237Y-94571808D01*
X157951844Y-94572190D01*
X158356286Y-94405078D01*
X158665991Y-94095913D01*
X158833808Y-93691763D01*
X158834010Y-93460000D01*
X161521593Y-93460000D01*
X161631968Y-94014891D01*
X161946288Y-94485305D01*
X162312501Y-94730000D01*
X161946288Y-94974695D01*
X161631968Y-95445109D01*
X161521593Y-96000000D01*
X161631968Y-96554891D01*
X161946288Y-97025305D01*
X162416702Y-97339625D01*
X162971593Y-97450000D01*
X163028407Y-97450000D01*
X163583298Y-97339625D01*
X164053712Y-97025305D01*
X164368032Y-96554891D01*
X164478407Y-96000000D01*
X164368032Y-95445109D01*
X164053712Y-94974695D01*
X163687499Y-94730000D01*
X164053712Y-94485305D01*
X164368032Y-94014891D01*
X164478407Y-93460000D01*
X164368032Y-92905109D01*
X164053712Y-92434695D01*
X163583298Y-92120375D01*
X163028407Y-92010000D01*
X162971593Y-92010000D01*
X162416702Y-92120375D01*
X161946288Y-92434695D01*
X161631968Y-92905109D01*
X161521593Y-93460000D01*
X158834010Y-93460000D01*
X158834190Y-93254156D01*
X158667078Y-92849714D01*
X158357913Y-92540009D01*
X157953763Y-92372192D01*
X157516156Y-92371810D01*
X157111714Y-92538922D01*
X157040512Y-92610000D01*
X147406082Y-92610000D01*
X142328000Y-87531918D01*
X142328000Y-86403007D01*
X142621807Y-86109712D01*
X142827765Y-85613710D01*
X142827792Y-85582000D01*
X145204246Y-85582000D01*
X145204246Y-87582000D01*
X145250813Y-87816108D01*
X145383425Y-88014575D01*
X145581892Y-88147187D01*
X145816000Y-88193754D01*
X146216000Y-88193754D01*
X146216000Y-89718239D01*
X146134009Y-89800087D01*
X145966192Y-90204237D01*
X145965810Y-90641844D01*
X146132922Y-91046286D01*
X146442087Y-91355991D01*
X146846237Y-91523808D01*
X147283844Y-91524190D01*
X147688286Y-91357078D01*
X147997991Y-91047913D01*
X148165808Y-90643763D01*
X148166190Y-90206156D01*
X147999078Y-89801714D01*
X147916000Y-89718491D01*
X147916000Y-88193754D01*
X148316000Y-88193754D01*
X148550108Y-88147187D01*
X148748575Y-88014575D01*
X148881187Y-87816108D01*
X148927754Y-87582000D01*
X148927754Y-87530000D01*
X161538246Y-87530000D01*
X161538246Y-89230000D01*
X161584813Y-89464108D01*
X161717425Y-89662575D01*
X161915892Y-89795187D01*
X162150000Y-89841754D01*
X163850000Y-89841754D01*
X164084108Y-89795187D01*
X164282575Y-89662575D01*
X164415187Y-89464108D01*
X164461754Y-89230000D01*
X164461754Y-87530000D01*
X164415187Y-87295892D01*
X164282575Y-87097425D01*
X164084108Y-86964813D01*
X163850000Y-86918246D01*
X162150000Y-86918246D01*
X161915892Y-86964813D01*
X161717425Y-87097425D01*
X161584813Y-87295892D01*
X161538246Y-87530000D01*
X148927754Y-87530000D01*
X148927754Y-85582000D01*
X148881187Y-85347892D01*
X148748575Y-85149425D01*
X148550108Y-85016813D01*
X148316000Y-84970246D01*
X145816000Y-84970246D01*
X145581892Y-85016813D01*
X145383425Y-85149425D01*
X145250813Y-85347892D01*
X145204246Y-85582000D01*
X142827792Y-85582000D01*
X142828234Y-85076647D01*
X142623142Y-84580285D01*
X142243712Y-84200193D01*
X141747710Y-83994235D01*
X141210647Y-83993766D01*
X140714285Y-84198858D01*
X140334193Y-84578288D01*
X140207944Y-84882330D01*
X140083142Y-84580285D01*
X139703712Y-84200193D01*
X139207710Y-83994235D01*
X138670647Y-83993766D01*
X138174285Y-84198858D01*
X137794193Y-84578288D01*
X137667944Y-84882330D01*
X137543142Y-84580285D01*
X137163712Y-84200193D01*
X136667710Y-83994235D01*
X136130647Y-83993766D01*
X135634285Y-84198858D01*
X135254193Y-84578288D01*
X135127944Y-84882330D01*
X135003142Y-84580285D01*
X134623712Y-84200193D01*
X134127710Y-83994235D01*
X133590647Y-83993766D01*
X133094285Y-84198858D01*
X132714193Y-84578288D01*
X132587944Y-84882330D01*
X132463142Y-84580285D01*
X132083712Y-84200193D01*
X131587710Y-83994235D01*
X131050647Y-83993766D01*
X130554285Y-84198858D01*
X130174193Y-84578288D01*
X130047944Y-84882330D01*
X129923142Y-84580285D01*
X129543712Y-84200193D01*
X129047710Y-83994235D01*
X128510647Y-83993766D01*
X128014285Y-84198858D01*
X127634193Y-84578288D01*
X127507944Y-84882330D01*
X127383142Y-84580285D01*
X127003712Y-84200193D01*
X126507710Y-83994235D01*
X125970647Y-83993766D01*
X125474285Y-84198858D01*
X125094193Y-84578288D01*
X124967944Y-84882330D01*
X124843142Y-84580285D01*
X124463712Y-84200193D01*
X123967710Y-83994235D01*
X123430647Y-83993766D01*
X122934285Y-84198858D01*
X122554193Y-84578288D01*
X122348235Y-85074290D01*
X122347766Y-85611353D01*
X119967767Y-85611353D01*
X119968234Y-85076647D01*
X119763142Y-84580285D01*
X119383712Y-84200193D01*
X118887710Y-83994235D01*
X118350647Y-83993766D01*
X117854285Y-84198858D01*
X117474193Y-84578288D01*
X117347944Y-84882330D01*
X117223142Y-84580285D01*
X116843712Y-84200193D01*
X116347710Y-83994235D01*
X115810647Y-83993766D01*
X115314285Y-84198858D01*
X114934193Y-84578288D01*
X114807944Y-84882330D01*
X114683142Y-84580285D01*
X114303712Y-84200193D01*
X113807710Y-83994235D01*
X113270647Y-83993766D01*
X112774285Y-84198858D01*
X112394193Y-84578288D01*
X112188235Y-85074290D01*
X112187766Y-85611353D01*
X112109001Y-85611353D01*
X112109001Y-81646876D01*
X112132004Y-81623913D01*
X112299821Y-81219763D01*
X112300203Y-80782156D01*
X112133091Y-80377714D01*
X111823926Y-80068009D01*
X111419776Y-79900192D01*
X110982169Y-79899810D01*
X110577727Y-80066922D01*
X110268022Y-80376087D01*
X110100205Y-80780237D01*
X110100175Y-80814992D01*
X109891156Y-80814810D01*
X109486714Y-80981922D01*
X109177009Y-81291087D01*
X109009192Y-81695237D01*
X109008810Y-82132844D01*
X109175922Y-82537286D01*
X109259000Y-82620509D01*
X109259000Y-87903000D01*
X109323702Y-88228281D01*
X109507959Y-88504041D01*
X114021896Y-93017978D01*
X113776270Y-93017764D01*
X113275497Y-93224679D01*
X112892026Y-93607482D01*
X112684237Y-94107893D01*
X112683764Y-94649730D01*
X112890679Y-95150503D01*
X113071000Y-95331139D01*
X113071000Y-102779812D01*
X110316000Y-100024812D01*
X110316000Y-93088000D01*
X110268602Y-92849714D01*
X110213238Y-92571378D01*
X109920594Y-92133406D01*
X107071585Y-89284397D01*
X107105187Y-89234108D01*
X107151754Y-89000000D01*
X107151754Y-88975000D01*
X107290000Y-88975000D01*
X107663117Y-88900783D01*
X107979429Y-88689429D01*
X108689429Y-87979429D01*
X108900783Y-87663117D01*
X108975000Y-87290000D01*
X108975000Y-76045858D01*
X112109505Y-72911353D01*
X121077766Y-72911353D01*
X121282858Y-73407715D01*
X121662288Y-73787807D01*
X122158290Y-73993765D01*
X122695353Y-73994234D01*
X123191715Y-73789142D01*
X123571807Y-73409712D01*
X123698056Y-73105670D01*
X123822858Y-73407715D01*
X124202288Y-73787807D01*
X124698290Y-73993765D01*
X125235353Y-73994234D01*
X125731715Y-73789142D01*
X126111807Y-73409712D01*
X126317765Y-72913710D01*
X126318234Y-72376647D01*
X126113142Y-71880285D01*
X125733712Y-71500193D01*
X125237710Y-71294235D01*
X124700647Y-71293766D01*
X124204285Y-71498858D01*
X123824193Y-71878288D01*
X123697944Y-72182330D01*
X123573142Y-71880285D01*
X123193712Y-71500193D01*
X122697710Y-71294235D01*
X122160647Y-71293766D01*
X121664285Y-71498858D01*
X121284193Y-71878288D01*
X121078235Y-72374290D01*
X121077766Y-72911353D01*
X112109505Y-72911353D01*
X113566832Y-71454026D01*
X113805353Y-71454234D01*
X114301715Y-71249142D01*
X114681807Y-70869712D01*
X114887765Y-70373710D01*
X114888234Y-69836647D01*
X114683142Y-69340285D01*
X114303712Y-68960193D01*
X113807710Y-68754235D01*
X113270647Y-68753766D01*
X112774285Y-68958858D01*
X112394193Y-69338288D01*
X112188235Y-69834290D01*
X112188025Y-70075117D01*
X107310571Y-74952571D01*
X107134000Y-75216827D01*
X107134000Y-68784407D01*
X107118776Y-68707870D01*
X107075421Y-68642986D01*
X107010537Y-68599631D01*
X106934000Y-68584407D01*
X96520000Y-68584407D01*
X96443463Y-68599631D01*
X96378579Y-68642986D01*
X96335224Y-68707870D01*
X96320000Y-68784407D01*
X96320000Y-86564407D01*
X96335224Y-86640944D01*
X96378579Y-86705828D01*
X96389895Y-86713389D01*
X96354813Y-86765892D01*
X96308246Y-87000000D01*
X89111754Y-87000000D01*
X89111754Y-80250000D01*
X89008097Y-79728879D01*
X88712905Y-79287095D01*
X88271121Y-78991903D01*
X87750000Y-78888246D01*
X86250000Y-78888246D01*
X85728879Y-78991903D01*
X85287095Y-79287095D01*
X84991903Y-79728879D01*
X84888246Y-80250000D01*
X61048977Y-80250000D01*
X61048977Y-74750000D01*
X60797857Y-73487536D01*
X60082729Y-72417271D01*
X59012464Y-71702143D01*
X57750000Y-71451023D01*
X56250000Y-71451023D01*
X54987536Y-71702143D01*
X53917271Y-72417271D01*
X53202143Y-73487536D01*
X52951023Y-74750000D01*
X51200000Y-74750000D01*
X51200000Y-64230000D01*
X53601023Y-64230000D01*
X53601023Y-65930000D01*
X53795052Y-66905451D01*
X54347601Y-67732399D01*
X55174549Y-68284948D01*
X56150000Y-68478977D01*
X57850000Y-68478977D01*
X58825451Y-68284948D01*
X59652399Y-67732399D01*
X60204948Y-66905451D01*
X60398977Y-65930000D01*
X60398977Y-64230000D01*
X60204948Y-63254549D01*
X59652399Y-62427601D01*
X58825451Y-61875052D01*
X57850000Y-61681023D01*
X56150000Y-61681023D01*
X55174549Y-61875052D01*
X54347601Y-62427601D01*
X53795052Y-63254549D01*
X53601023Y-64230000D01*
X51200000Y-64230000D01*
X51200000Y-57460000D01*
X53584370Y-57460000D01*
X53839374Y-58741989D01*
X54565562Y-59828808D01*
X55652381Y-60554996D01*
X56934370Y-60810000D01*
X57065630Y-60810000D01*
X58347619Y-60554996D01*
X59434438Y-59828808D01*
X60160626Y-58741989D01*
X60415630Y-57460000D01*
X60160626Y-56178011D01*
X59664622Y-55435687D01*
X82799619Y-55435687D01*
X83133843Y-56244572D01*
X83752173Y-56863982D01*
X84560473Y-57199618D01*
X85435687Y-57200381D01*
X86244572Y-56866157D01*
X86258755Y-56851998D01*
X107219990Y-56851998D01*
X107219990Y-58231088D01*
X107284692Y-58556369D01*
X107468949Y-58832129D01*
X108165853Y-59529033D01*
X108441613Y-59713290D01*
X108766894Y-59777992D01*
X108768239Y-59777992D01*
X108850087Y-59859983D01*
X109254237Y-60027800D01*
X109691844Y-60028182D01*
X110096286Y-59861070D01*
X110405991Y-59551905D01*
X110573808Y-59147755D01*
X110574190Y-58710148D01*
X110407078Y-58305706D01*
X110267646Y-58166031D01*
X110406005Y-58027913D01*
X110573822Y-57623763D01*
X110573925Y-57506171D01*
X111605097Y-56474999D01*
X119841179Y-56474999D01*
X119683257Y-56855317D01*
X119682744Y-57442108D01*
X119906827Y-57984429D01*
X120321389Y-58399715D01*
X120369690Y-58419771D01*
X120323571Y-58438827D01*
X119908285Y-58853389D01*
X119683257Y-59395317D01*
X119682744Y-59982108D01*
X119906827Y-60524429D01*
X120321389Y-60939715D01*
X120369690Y-60959771D01*
X120323571Y-60978827D01*
X119908285Y-61393389D01*
X119683257Y-61935317D01*
X119682744Y-62522108D01*
X119906827Y-63064429D01*
X120321389Y-63479715D01*
X120369690Y-63499771D01*
X120323571Y-63518827D01*
X119908285Y-63933389D01*
X119683257Y-64475317D01*
X119682744Y-65062108D01*
X119906827Y-65604429D01*
X120321389Y-66019715D01*
X120863317Y-66244743D01*
X121450108Y-66245256D01*
X121992429Y-66021173D01*
X122407715Y-65606611D01*
X122632743Y-65064683D01*
X122633256Y-64477892D01*
X122409173Y-63935571D01*
X121994611Y-63520285D01*
X121946310Y-63500229D01*
X121992429Y-63481173D01*
X122407715Y-63066611D01*
X122427771Y-63018310D01*
X122446827Y-63064429D01*
X122861389Y-63479715D01*
X123403317Y-63704743D01*
X123990108Y-63705256D01*
X124532429Y-63481173D01*
X124947715Y-63066611D01*
X125172743Y-62524683D01*
X125173256Y-61937892D01*
X124949173Y-61395571D01*
X124534611Y-60980285D01*
X124486310Y-60960229D01*
X124532429Y-60941173D01*
X124947715Y-60526611D01*
X125172743Y-59984683D01*
X125173256Y-59397892D01*
X124949173Y-58855571D01*
X124534611Y-58440285D01*
X124486310Y-58420229D01*
X124532429Y-58401173D01*
X124947715Y-57986611D01*
X125136026Y-57533106D01*
X133008000Y-65405080D01*
X133008000Y-69044993D01*
X132714193Y-69338288D01*
X132587944Y-69642330D01*
X132463142Y-69340285D01*
X132083712Y-68960193D01*
X131587710Y-68754235D01*
X131050647Y-68753766D01*
X130554285Y-68958858D01*
X130174193Y-69338288D01*
X130047944Y-69642330D01*
X129923142Y-69340285D01*
X129543712Y-68960193D01*
X129047710Y-68754235D01*
X128510647Y-68753766D01*
X128014285Y-68958858D01*
X127634193Y-69338288D01*
X127507944Y-69642330D01*
X127383142Y-69340285D01*
X127003712Y-68960193D01*
X126507710Y-68754235D01*
X125970647Y-68753766D01*
X125474285Y-68958858D01*
X125094193Y-69338288D01*
X124967944Y-69642330D01*
X124843142Y-69340285D01*
X124463712Y-68960193D01*
X123967710Y-68754235D01*
X123430647Y-68753766D01*
X122934285Y-68958858D01*
X122554193Y-69338288D01*
X122427944Y-69642330D01*
X122303142Y-69340285D01*
X121923712Y-68960193D01*
X121427710Y-68754235D01*
X120890647Y-68753766D01*
X120394285Y-68958858D01*
X120014193Y-69338288D01*
X119887944Y-69642330D01*
X119763142Y-69340285D01*
X119383712Y-68960193D01*
X118887710Y-68754235D01*
X118350647Y-68753766D01*
X117854285Y-68958858D01*
X117474193Y-69338288D01*
X117268235Y-69834290D01*
X117267766Y-70371353D01*
X117472858Y-70867715D01*
X117852288Y-71247807D01*
X118348290Y-71453765D01*
X118885353Y-71454234D01*
X119381715Y-71249142D01*
X119761807Y-70869712D01*
X119888056Y-70565670D01*
X120012858Y-70867715D01*
X120392288Y-71247807D01*
X120888290Y-71453765D01*
X121425353Y-71454234D01*
X121921715Y-71249142D01*
X122301807Y-70869712D01*
X122428056Y-70565670D01*
X122552858Y-70867715D01*
X122932288Y-71247807D01*
X123428290Y-71453765D01*
X123965353Y-71454234D01*
X124461715Y-71249142D01*
X124841807Y-70869712D01*
X124968056Y-70565670D01*
X125092858Y-70867715D01*
X125472288Y-71247807D01*
X125968290Y-71453765D01*
X126505353Y-71454234D01*
X127001715Y-71249142D01*
X127381807Y-70869712D01*
X127508056Y-70565670D01*
X127632858Y-70867715D01*
X128012288Y-71247807D01*
X128508290Y-71453765D01*
X129045353Y-71454234D01*
X129541715Y-71249142D01*
X129921807Y-70869712D01*
X130048056Y-70565670D01*
X130172858Y-70867715D01*
X130552288Y-71247807D01*
X131048290Y-71453765D01*
X131585353Y-71454234D01*
X132081715Y-71249142D01*
X132461807Y-70869712D01*
X132588056Y-70565670D01*
X132712858Y-70867715D01*
X133092288Y-71247807D01*
X133588290Y-71453765D01*
X134125353Y-71454234D01*
X134621715Y-71249142D01*
X135001807Y-70869712D01*
X135128056Y-70565670D01*
X135252858Y-70867715D01*
X135632288Y-71247807D01*
X136128290Y-71453765D01*
X136665353Y-71454234D01*
X137161715Y-71249142D01*
X137541807Y-70869712D01*
X137668056Y-70565670D01*
X137792858Y-70867715D01*
X138172288Y-71247807D01*
X138668290Y-71453765D01*
X139205353Y-71454234D01*
X139701715Y-71249142D01*
X140081807Y-70869712D01*
X140208056Y-70565670D01*
X140332858Y-70867715D01*
X140712288Y-71247807D01*
X141016330Y-71374056D01*
X140714285Y-71498858D01*
X140334193Y-71878288D01*
X140128235Y-72374290D01*
X140127766Y-72911353D01*
X140332858Y-73407715D01*
X140712288Y-73787807D01*
X141016330Y-73914056D01*
X140714285Y-74038858D01*
X140334193Y-74418288D01*
X140128235Y-74914290D01*
X140127766Y-75451353D01*
X140332858Y-75947715D01*
X140712288Y-76327807D01*
X141208290Y-76533765D01*
X141745353Y-76534234D01*
X142241715Y-76329142D01*
X142537372Y-76034000D01*
X142748000Y-76034000D01*
X143073281Y-75969298D01*
X143349041Y-75785041D01*
X144873038Y-74261043D01*
X144873041Y-74261041D01*
X145057298Y-73985281D01*
X145122000Y-73660000D01*
X145122000Y-65069680D01*
X148230420Y-61961260D01*
X154694786Y-61961260D01*
X154701571Y-61995368D01*
X154766758Y-62092927D01*
X154766758Y-62320260D01*
X154831460Y-62645541D01*
X155015717Y-62921301D01*
X155291979Y-63197563D01*
X155191826Y-63264484D01*
X155059214Y-63462951D01*
X155019293Y-63663645D01*
X155017358Y-63663260D01*
X154912866Y-63663260D01*
X154860039Y-63627962D01*
X154534758Y-63563260D01*
X153102422Y-63563260D01*
X153048358Y-63552506D01*
X151798358Y-63552506D01*
X151564250Y-63599073D01*
X151365783Y-63731685D01*
X151310608Y-63814260D01*
X150536108Y-63814260D01*
X150480933Y-63731685D01*
X150282466Y-63599073D01*
X150048358Y-63552506D01*
X148798358Y-63552506D01*
X148564250Y-63599073D01*
X148365783Y-63731685D01*
X148310608Y-63814260D01*
X148298358Y-63814260D01*
X147973077Y-63878962D01*
X147697317Y-64063219D01*
X147697315Y-64063222D01*
X146464959Y-65295577D01*
X146280702Y-65571337D01*
X146216000Y-65896618D01*
X146216000Y-80970246D01*
X145816000Y-80970246D01*
X145581892Y-81016813D01*
X145383425Y-81149425D01*
X145250813Y-81347892D01*
X145204246Y-81582000D01*
X145204246Y-83582000D01*
X145250813Y-83816108D01*
X145383425Y-84014575D01*
X145581892Y-84147187D01*
X145816000Y-84193754D01*
X148316000Y-84193754D01*
X148550108Y-84147187D01*
X148748575Y-84014575D01*
X148881187Y-83816108D01*
X148927754Y-83582000D01*
X148927754Y-81582000D01*
X148881187Y-81347892D01*
X148748575Y-81149425D01*
X148550108Y-81016813D01*
X148316000Y-80970246D01*
X147916000Y-80970246D01*
X147916000Y-69051844D01*
X153268310Y-69051844D01*
X153435422Y-69456286D01*
X153744587Y-69765991D01*
X154148737Y-69933808D01*
X154586344Y-69934190D01*
X154990786Y-69767078D01*
X155045539Y-69712420D01*
X155059214Y-69781167D01*
X155191826Y-69979634D01*
X155390293Y-70112246D01*
X155624401Y-70158813D01*
X156074401Y-70158813D01*
X156174401Y-70138922D01*
X156274401Y-70158813D01*
X156299401Y-70158813D01*
X156299401Y-71125926D01*
X156167009Y-71258087D01*
X155999192Y-71662237D01*
X155998810Y-72099844D01*
X156165922Y-72504286D01*
X156475087Y-72813991D01*
X156879237Y-72981808D01*
X157316844Y-72982190D01*
X157721286Y-72815078D01*
X158030991Y-72505913D01*
X158198808Y-72101763D01*
X158199190Y-71664156D01*
X158032078Y-71259714D01*
X157999401Y-71226980D01*
X157999401Y-70147060D01*
X157934699Y-69821779D01*
X157923575Y-69805131D01*
X157939588Y-69781167D01*
X157986155Y-69547059D01*
X157986155Y-68097059D01*
X157939588Y-67862951D01*
X157806976Y-67664484D01*
X157608509Y-67531872D01*
X157374401Y-67485305D01*
X156924401Y-67485305D01*
X156824401Y-67505196D01*
X156724401Y-67485305D01*
X156274401Y-67485305D01*
X156174401Y-67505196D01*
X156074401Y-67485305D01*
X155624401Y-67485305D01*
X155390293Y-67531872D01*
X155191826Y-67664484D01*
X155059214Y-67862951D01*
X155041637Y-67951319D01*
X154992413Y-67902009D01*
X154588263Y-67734192D01*
X154150656Y-67733810D01*
X153746214Y-67900922D01*
X153436509Y-68210087D01*
X153268692Y-68614237D01*
X153268310Y-69051844D01*
X147916000Y-69051844D01*
X147916000Y-66248700D01*
X148486922Y-65677778D01*
X148564250Y-65729447D01*
X148798358Y-65776014D01*
X150048358Y-65776014D01*
X150282466Y-65729447D01*
X150480933Y-65596835D01*
X150536108Y-65514260D01*
X151310608Y-65514260D01*
X151365783Y-65596835D01*
X151564250Y-65729447D01*
X151798358Y-65776014D01*
X153048358Y-65776014D01*
X153282466Y-65729447D01*
X153480933Y-65596835D01*
X153613545Y-65398368D01*
X153640420Y-65263260D01*
X154534758Y-65263260D01*
X154860039Y-65198558D01*
X154912866Y-65163260D01*
X154981921Y-65163260D01*
X155017268Y-65170291D01*
X155059214Y-65381167D01*
X155191826Y-65579634D01*
X155390293Y-65712246D01*
X155624401Y-65758813D01*
X156074401Y-65758813D01*
X156174401Y-65738922D01*
X156274401Y-65758813D01*
X156724401Y-65758813D01*
X156824401Y-65738922D01*
X156924401Y-65758813D01*
X157374401Y-65758813D01*
X157474401Y-65738922D01*
X157574401Y-65758813D01*
X158024401Y-65758813D01*
X158258509Y-65712246D01*
X158456976Y-65579634D01*
X158589588Y-65381167D01*
X158620146Y-65227540D01*
X158843959Y-65272059D01*
X159913849Y-65272059D01*
X159865804Y-65343963D01*
X159819237Y-65578071D01*
X159819237Y-66878071D01*
X159865804Y-67112179D01*
X159880991Y-67134908D01*
X159880991Y-67491510D01*
X159798416Y-67546685D01*
X159665804Y-67745152D01*
X159619237Y-67979260D01*
X159619237Y-69229260D01*
X159665804Y-69463368D01*
X159798416Y-69661835D01*
X159880991Y-69717010D01*
X159880991Y-69777510D01*
X159798416Y-69832685D01*
X159665804Y-70031152D01*
X159619237Y-70265260D01*
X159619237Y-71515260D01*
X159665804Y-71749368D01*
X159798416Y-71947835D01*
X159880991Y-72003010D01*
X159880991Y-72566781D01*
X159702869Y-72566625D01*
X158781843Y-72947185D01*
X158076561Y-73651238D01*
X157694394Y-74571598D01*
X157693524Y-75568148D01*
X157884091Y-76029357D01*
X157499047Y-75869472D01*
X156553020Y-75868647D01*
X156163776Y-76029479D01*
X156353522Y-75572520D01*
X156354392Y-74575970D01*
X155973832Y-73654944D01*
X155269779Y-72949662D01*
X154349419Y-72567495D01*
X153352869Y-72566625D01*
X152431843Y-72947185D01*
X151726561Y-73651238D01*
X151344394Y-74571598D01*
X151343524Y-75568148D01*
X151724084Y-76489174D01*
X152428137Y-77194456D01*
X152998958Y-77431482D01*
X152998958Y-79062858D01*
X152431843Y-79297185D01*
X151726561Y-80001238D01*
X151344394Y-80921598D01*
X151343524Y-81918148D01*
X151724084Y-82839174D01*
X152428137Y-83544456D01*
X153348497Y-83926623D01*
X154345047Y-83927493D01*
X155266073Y-83546933D01*
X155971355Y-82842880D01*
X156208381Y-82272059D01*
X157839757Y-82272059D01*
X158074084Y-82839174D01*
X158778137Y-83544456D01*
X159698497Y-83926623D01*
X160695047Y-83927493D01*
X161616073Y-83546933D01*
X162321355Y-82842880D01*
X162703522Y-81922520D01*
X162704392Y-80925970D01*
X162323832Y-80004944D01*
X161619779Y-79299662D01*
X161048958Y-79062636D01*
X161048958Y-77431260D01*
X161616073Y-77196933D01*
X162321355Y-76492880D01*
X162703522Y-75572520D01*
X162704392Y-74575970D01*
X162323832Y-73654944D01*
X161619779Y-72949662D01*
X161580991Y-72933556D01*
X161580991Y-72003010D01*
X161663566Y-71947835D01*
X161796178Y-71749368D01*
X161842745Y-71515260D01*
X161842745Y-70265260D01*
X161796178Y-70031152D01*
X161663566Y-69832685D01*
X161580991Y-69777510D01*
X161580991Y-69717010D01*
X161663566Y-69661835D01*
X161796178Y-69463368D01*
X161842745Y-69229260D01*
X161842745Y-67979260D01*
X161796178Y-67745152D01*
X161663566Y-67546685D01*
X161580991Y-67491510D01*
X161580991Y-67284568D01*
X161696178Y-67112179D01*
X161742745Y-66878071D01*
X161742745Y-65578071D01*
X161696178Y-65343963D01*
X161630991Y-65246404D01*
X161630991Y-65152767D01*
X161718066Y-65135447D01*
X161916533Y-65002835D01*
X162049145Y-64804368D01*
X162095712Y-64570260D01*
X162095712Y-63870260D01*
X162049145Y-63636152D01*
X161916533Y-63437685D01*
X161718066Y-63305073D01*
X161543049Y-63270260D01*
X161718066Y-63235447D01*
X161916533Y-63102835D01*
X162049145Y-62904368D01*
X162095712Y-62670260D01*
X162095712Y-61970260D01*
X162049145Y-61736152D01*
X161916533Y-61537685D01*
X161718066Y-61405073D01*
X161683958Y-61398288D01*
X161683958Y-59831833D01*
X162187779Y-59328012D01*
X162320391Y-59129545D01*
X162366958Y-58895437D01*
X162320391Y-58661329D01*
X162187779Y-58462862D01*
X160773566Y-57048649D01*
X160575099Y-56916037D01*
X160340991Y-56869470D01*
X160106883Y-56916037D01*
X159908416Y-57048649D01*
X158140649Y-58816416D01*
X158008037Y-59014883D01*
X157961470Y-59248991D01*
X158008037Y-59483099D01*
X158140649Y-59681566D01*
X159554862Y-61095779D01*
X159753329Y-61228391D01*
X159983958Y-61274266D01*
X159983958Y-61398288D01*
X159949850Y-61405073D01*
X159751383Y-61537685D01*
X159618771Y-61736152D01*
X159572204Y-61970260D01*
X159572204Y-62670260D01*
X159618771Y-62904368D01*
X159751383Y-63102835D01*
X159949850Y-63235447D01*
X160124867Y-63270260D01*
X159949850Y-63305073D01*
X159751383Y-63437685D01*
X159661597Y-63572059D01*
X158843959Y-63572059D01*
X158620146Y-63616578D01*
X158589588Y-63462951D01*
X158456976Y-63264484D01*
X158374045Y-63209071D01*
X158538991Y-63044413D01*
X158706808Y-62640263D01*
X158707190Y-62202656D01*
X158540078Y-61798214D01*
X158478512Y-61736540D01*
X158478512Y-60461260D01*
X158431945Y-60227152D01*
X158299333Y-60028685D01*
X158100866Y-59896073D01*
X157866758Y-59849506D01*
X157166758Y-59849506D01*
X156932650Y-59896073D01*
X156734183Y-60028685D01*
X156601571Y-60227152D01*
X156566758Y-60402169D01*
X156531945Y-60227152D01*
X156399333Y-60028685D01*
X156200866Y-59896073D01*
X155966758Y-59849506D01*
X155266758Y-59849506D01*
X155032650Y-59896073D01*
X154834183Y-60028685D01*
X154701571Y-60227152D01*
X154694786Y-60261260D01*
X147878338Y-60261260D01*
X147553057Y-60325962D01*
X147277297Y-60510219D01*
X143670959Y-64116557D01*
X143486702Y-64392317D01*
X143422000Y-64717598D01*
X143422000Y-73307919D01*
X142466524Y-74263394D01*
X142243712Y-74040193D01*
X141939670Y-73913944D01*
X142241715Y-73789142D01*
X142621807Y-73409712D01*
X142827765Y-72913710D01*
X142828234Y-72376647D01*
X142623142Y-71880285D01*
X142243712Y-71500193D01*
X141939670Y-71373944D01*
X142241715Y-71249142D01*
X142621807Y-70869712D01*
X142827765Y-70373710D01*
X142828234Y-69836647D01*
X142623142Y-69340285D01*
X142243712Y-68960193D01*
X141747710Y-68754235D01*
X141210647Y-68753766D01*
X140714285Y-68958858D01*
X140334193Y-69338288D01*
X140207944Y-69642330D01*
X140083142Y-69340285D01*
X139788000Y-69044628D01*
X139788000Y-68834000D01*
X139723298Y-68508719D01*
X139539041Y-68232959D01*
X125430029Y-54123947D01*
X125154269Y-53939690D01*
X124828988Y-53874988D01*
X110197000Y-53874988D01*
X109871719Y-53939690D01*
X109595959Y-54123947D01*
X109595957Y-54123950D01*
X107468949Y-56250957D01*
X107284692Y-56526717D01*
X107219990Y-56851998D01*
X86258755Y-56851998D01*
X86863982Y-56247827D01*
X87199618Y-55439527D01*
X87200381Y-54564313D01*
X86866157Y-53755428D01*
X86247827Y-53136018D01*
X86040298Y-53049844D01*
X154731824Y-53049844D01*
X154898936Y-53454286D01*
X155208101Y-53763991D01*
X155612251Y-53931808D01*
X155729843Y-53931911D01*
X156485786Y-54687854D01*
X156485786Y-54814423D01*
X155312221Y-55987988D01*
X155179609Y-56186455D01*
X155133042Y-56420563D01*
X155179609Y-56654671D01*
X155312221Y-56853138D01*
X156726434Y-58267351D01*
X156924901Y-58399963D01*
X157159009Y-58446530D01*
X157393117Y-58399963D01*
X157591584Y-58267351D01*
X159359351Y-56499584D01*
X159491963Y-56301117D01*
X159538530Y-56067009D01*
X159491963Y-55832901D01*
X159359351Y-55634434D01*
X159160604Y-55435687D01*
X162799619Y-55435687D01*
X163133843Y-56244572D01*
X163752173Y-56863982D01*
X164560473Y-57199618D01*
X165435687Y-57200381D01*
X166244572Y-56866157D01*
X166863982Y-56247827D01*
X167199618Y-55439527D01*
X167200381Y-54564313D01*
X166866157Y-53755428D01*
X166247827Y-53136018D01*
X165439527Y-52800382D01*
X164564313Y-52799619D01*
X163755428Y-53133843D01*
X163136018Y-53752173D01*
X162800382Y-54560473D01*
X162799619Y-55435687D01*
X159160604Y-55435687D01*
X158185786Y-54460869D01*
X158185786Y-54335777D01*
X158185787Y-54335772D01*
X158121084Y-54010491D01*
X157936827Y-53734731D01*
X156932103Y-52730007D01*
X156932204Y-52614156D01*
X156765092Y-52209714D01*
X156455927Y-51900009D01*
X156051777Y-51732192D01*
X155614170Y-51731810D01*
X155209728Y-51898922D01*
X154900023Y-52208087D01*
X154732206Y-52612237D01*
X154731824Y-53049844D01*
X86040298Y-53049844D01*
X85439527Y-52800382D01*
X84564313Y-52799619D01*
X83755428Y-53133843D01*
X83136018Y-53752173D01*
X82800382Y-54560473D01*
X82799619Y-55435687D01*
X59664622Y-55435687D01*
X59434438Y-55091192D01*
X58347619Y-54365004D01*
X57065630Y-54110000D01*
X56934370Y-54110000D01*
X55652381Y-54365004D01*
X54565562Y-55091192D01*
X53839374Y-56178011D01*
X53584370Y-57460000D01*
X51200000Y-57460000D01*
X51200000Y-51200000D01*
X168800000Y-51200000D01*
X168800000Y-168800000D01*
M02*
