G04 #@! TF.GenerationSoftware,KiCad,Pcbnew,no-vcs-found-1848834~58~ubuntu16.04.1*
G04 #@! TF.CreationDate,2017-06-18T23:28:25-07:00*
G04 #@! TF.ProjectId,DrGreenThumb,4472477265656E5468756D622E6B6963,rev?*
G04 #@! TF.FileFunction,Copper,L2,Bot,Signal*
G04 #@! TF.FilePolarity,Positive*
%FSLAX46Y46*%
G04 Gerber Fmt 4.6, Leading zero omitted, Abs format (unit mm)*
G04 Created by KiCad (PCBNEW no-vcs-found-1848834~58~ubuntu16.04.1) date Sun Jun 18 23:28:25 2017*
%MOMM*%
%LPD*%
G01*
G04 APERTURE LIST*
%ADD10C,0.100000*%
%ADD11C,3.810000*%
%ADD12C,3.556000*%
%ADD13C,2.000000*%
%ADD14C,1.500000*%
%ADD15C,1.524000*%
%ADD16C,3.000000*%
%ADD17C,6.000000*%
%ADD18R,1.000000X1.250000*%
%ADD19O,2.500000X4.000000*%
%ADD20O,1.600000X1.600000*%
%ADD21R,1.600000X1.600000*%
%ADD22R,1.700000X1.700000*%
%ADD23O,1.700000X1.700000*%
%ADD24R,1.300000X0.700000*%
%ADD25C,1.750000*%
%ADD26C,1.000000*%
%ADD27C,0.500000*%
%ADD28C,1.500000*%
%ADD29C,0.750000*%
%ADD30C,0.400000*%
G04 APERTURE END LIST*
D10*
D11*
X153848958Y-75072059D03*
X160198958Y-75072059D03*
X153848958Y-81422059D03*
D12*
X157023958Y-78247059D03*
D11*
X160198958Y-81422059D03*
D13*
X124984000Y-126904000D03*
X130064000Y-131984000D03*
X115080000Y-132080000D03*
X110000000Y-127000000D03*
D14*
X124968000Y-72644000D03*
X122428000Y-72644000D03*
X141478000Y-77724000D03*
X141478000Y-75184000D03*
X141478000Y-72644000D03*
X113538000Y-70104000D03*
X116078000Y-70104000D03*
X118618000Y-70104000D03*
X121158000Y-70104000D03*
X123698000Y-70104000D03*
X126238000Y-70104000D03*
X128778000Y-70104000D03*
X131318000Y-70104000D03*
X133858000Y-70104000D03*
X136398000Y-70104000D03*
X138938000Y-70104000D03*
X141478000Y-70104000D03*
X141478000Y-85344000D03*
X138938000Y-85344000D03*
X136398000Y-85344000D03*
X133858000Y-85344000D03*
X131318000Y-85344000D03*
X128778000Y-85344000D03*
X126238000Y-85344000D03*
X123698000Y-85344000D03*
X121158000Y-85344000D03*
X118618000Y-85344000D03*
X116078000Y-85344000D03*
X113538000Y-85344000D03*
D15*
X111506000Y-94380000D03*
X114046000Y-94380000D03*
X116586000Y-94380000D03*
X119126000Y-94380000D03*
X121666000Y-94380000D03*
X124206000Y-94380000D03*
X124206000Y-96920000D03*
D16*
X70000000Y-164000000D03*
D13*
X71000000Y-143000000D03*
X71000000Y-157000000D03*
D17*
X135000000Y-138000000D03*
D13*
X137000000Y-147500000D03*
X137000000Y-156500000D03*
D18*
X144510000Y-121412000D03*
X142510000Y-121412000D03*
D19*
X57000000Y-123000000D03*
X57000000Y-145000000D03*
D20*
X155000000Y-118920000D03*
X147380000Y-141780000D03*
X155000000Y-121460000D03*
X147380000Y-139240000D03*
X155000000Y-124000000D03*
X147380000Y-136700000D03*
X155000000Y-126540000D03*
X147380000Y-134160000D03*
X155000000Y-129080000D03*
X147380000Y-131620000D03*
X155000000Y-131620000D03*
X147380000Y-129080000D03*
X155000000Y-134160000D03*
X147380000Y-126540000D03*
X155000000Y-136700000D03*
X147380000Y-124000000D03*
X155000000Y-139240000D03*
X147380000Y-121460000D03*
X155000000Y-141780000D03*
D21*
X147380000Y-118920000D03*
D22*
X57000000Y-155460000D03*
D23*
X57000000Y-158000000D03*
X57000000Y-160540000D03*
X57000000Y-163080000D03*
X163000000Y-112080000D03*
X163000000Y-109540000D03*
X163000000Y-107000000D03*
D22*
X163000000Y-104460000D03*
X163000000Y-88380000D03*
D23*
X163000000Y-90920000D03*
X163000000Y-93460000D03*
X163000000Y-96000000D03*
X57000000Y-57460000D03*
X57000000Y-60000000D03*
X57000000Y-62540000D03*
D22*
X57000000Y-65080000D03*
D23*
X160528000Y-156464000D03*
X157988000Y-156464000D03*
X155448000Y-156464000D03*
X152908000Y-156464000D03*
X150368000Y-156464000D03*
X147828000Y-156464000D03*
X145288000Y-156464000D03*
D22*
X142748000Y-156464000D03*
D24*
X159258000Y-88458000D03*
X159258000Y-90358000D03*
X159512000Y-102428000D03*
X159512000Y-104328000D03*
X159766000Y-110302000D03*
X159766000Y-112202000D03*
X155550758Y-67395260D03*
X155550758Y-65495260D03*
D25*
X123698000Y-64770000D03*
X121158000Y-64770000D03*
X123698000Y-62230000D03*
X121158000Y-62230000D03*
X123698000Y-59690000D03*
X121158000Y-59690000D03*
X123698000Y-57150000D03*
X121158000Y-57150000D03*
D10*
G36*
X57823513Y-74003611D02*
X57896318Y-74014411D01*
X57967714Y-74032295D01*
X58037013Y-74057090D01*
X58103548Y-74088559D01*
X58166678Y-74126398D01*
X58225795Y-74170242D01*
X58280330Y-74219670D01*
X58329758Y-74274205D01*
X58373602Y-74333322D01*
X58411441Y-74396452D01*
X58442910Y-74462987D01*
X58467705Y-74532286D01*
X58485589Y-74603682D01*
X58496389Y-74676487D01*
X58500000Y-74750000D01*
X58500000Y-82250000D01*
X58496389Y-82323513D01*
X58485589Y-82396318D01*
X58467705Y-82467714D01*
X58442910Y-82537013D01*
X58411441Y-82603548D01*
X58373602Y-82666678D01*
X58329758Y-82725795D01*
X58280330Y-82780330D01*
X58225795Y-82829758D01*
X58166678Y-82873602D01*
X58103548Y-82911441D01*
X58037013Y-82942910D01*
X57967714Y-82967705D01*
X57896318Y-82985589D01*
X57823513Y-82996389D01*
X57750000Y-83000000D01*
X56250000Y-83000000D01*
X56176487Y-82996389D01*
X56103682Y-82985589D01*
X56032286Y-82967705D01*
X55962987Y-82942910D01*
X55896452Y-82911441D01*
X55833322Y-82873602D01*
X55774205Y-82829758D01*
X55719670Y-82780330D01*
X55670242Y-82725795D01*
X55626398Y-82666678D01*
X55588559Y-82603548D01*
X55557090Y-82537013D01*
X55532295Y-82467714D01*
X55514411Y-82396318D01*
X55503611Y-82323513D01*
X55500000Y-82250000D01*
X55500000Y-74750000D01*
X55503611Y-74676487D01*
X55514411Y-74603682D01*
X55532295Y-74532286D01*
X55557090Y-74462987D01*
X55588559Y-74396452D01*
X55626398Y-74333322D01*
X55670242Y-74274205D01*
X55719670Y-74219670D01*
X55774205Y-74170242D01*
X55833322Y-74126398D01*
X55896452Y-74088559D01*
X55962987Y-74057090D01*
X56032286Y-74032295D01*
X56103682Y-74014411D01*
X56176487Y-74003611D01*
X56250000Y-74000000D01*
X57750000Y-74000000D01*
X57823513Y-74003611D01*
X57823513Y-74003611D01*
G37*
D16*
X57000000Y-78500000D03*
D10*
G36*
X57823513Y-107003611D02*
X57896318Y-107014411D01*
X57967714Y-107032295D01*
X58037013Y-107057090D01*
X58103548Y-107088559D01*
X58166678Y-107126398D01*
X58225795Y-107170242D01*
X58280330Y-107219670D01*
X58329758Y-107274205D01*
X58373602Y-107333322D01*
X58411441Y-107396452D01*
X58442910Y-107462987D01*
X58467705Y-107532286D01*
X58485589Y-107603682D01*
X58496389Y-107676487D01*
X58500000Y-107750000D01*
X58500000Y-115250000D01*
X58496389Y-115323513D01*
X58485589Y-115396318D01*
X58467705Y-115467714D01*
X58442910Y-115537013D01*
X58411441Y-115603548D01*
X58373602Y-115666678D01*
X58329758Y-115725795D01*
X58280330Y-115780330D01*
X58225795Y-115829758D01*
X58166678Y-115873602D01*
X58103548Y-115911441D01*
X58037013Y-115942910D01*
X57967714Y-115967705D01*
X57896318Y-115985589D01*
X57823513Y-115996389D01*
X57750000Y-116000000D01*
X56250000Y-116000000D01*
X56176487Y-115996389D01*
X56103682Y-115985589D01*
X56032286Y-115967705D01*
X55962987Y-115942910D01*
X55896452Y-115911441D01*
X55833322Y-115873602D01*
X55774205Y-115829758D01*
X55719670Y-115780330D01*
X55670242Y-115725795D01*
X55626398Y-115666678D01*
X55588559Y-115603548D01*
X55557090Y-115537013D01*
X55532295Y-115467714D01*
X55514411Y-115396318D01*
X55503611Y-115323513D01*
X55500000Y-115250000D01*
X55500000Y-107750000D01*
X55503611Y-107676487D01*
X55514411Y-107603682D01*
X55532295Y-107532286D01*
X55557090Y-107462987D01*
X55588559Y-107396452D01*
X55626398Y-107333322D01*
X55670242Y-107274205D01*
X55719670Y-107219670D01*
X55774205Y-107170242D01*
X55833322Y-107126398D01*
X55896452Y-107088559D01*
X55962987Y-107057090D01*
X56032286Y-107032295D01*
X56103682Y-107014411D01*
X56176487Y-107003611D01*
X56250000Y-107000000D01*
X57750000Y-107000000D01*
X57823513Y-107003611D01*
X57823513Y-107003611D01*
G37*
D16*
X57000000Y-111500000D03*
D10*
G36*
X87823513Y-79503611D02*
X87896318Y-79514411D01*
X87967714Y-79532295D01*
X88037013Y-79557090D01*
X88103548Y-79588559D01*
X88166678Y-79626398D01*
X88225795Y-79670242D01*
X88280330Y-79719670D01*
X88329758Y-79774205D01*
X88373602Y-79833322D01*
X88411441Y-79896452D01*
X88442910Y-79962987D01*
X88467705Y-80032286D01*
X88485589Y-80103682D01*
X88496389Y-80176487D01*
X88500000Y-80250000D01*
X88500000Y-87750000D01*
X88496389Y-87823513D01*
X88485589Y-87896318D01*
X88467705Y-87967714D01*
X88442910Y-88037013D01*
X88411441Y-88103548D01*
X88373602Y-88166678D01*
X88329758Y-88225795D01*
X88280330Y-88280330D01*
X88225795Y-88329758D01*
X88166678Y-88373602D01*
X88103548Y-88411441D01*
X88037013Y-88442910D01*
X87967714Y-88467705D01*
X87896318Y-88485589D01*
X87823513Y-88496389D01*
X87750000Y-88500000D01*
X86250000Y-88500000D01*
X86176487Y-88496389D01*
X86103682Y-88485589D01*
X86032286Y-88467705D01*
X85962987Y-88442910D01*
X85896452Y-88411441D01*
X85833322Y-88373602D01*
X85774205Y-88329758D01*
X85719670Y-88280330D01*
X85670242Y-88225795D01*
X85626398Y-88166678D01*
X85588559Y-88103548D01*
X85557090Y-88037013D01*
X85532295Y-87967714D01*
X85514411Y-87896318D01*
X85503611Y-87823513D01*
X85500000Y-87750000D01*
X85500000Y-80250000D01*
X85503611Y-80176487D01*
X85514411Y-80103682D01*
X85532295Y-80032286D01*
X85557090Y-79962987D01*
X85588559Y-79896452D01*
X85626398Y-79833322D01*
X85670242Y-79774205D01*
X85719670Y-79719670D01*
X85774205Y-79670242D01*
X85833322Y-79626398D01*
X85896452Y-79588559D01*
X85962987Y-79557090D01*
X86032286Y-79532295D01*
X86103682Y-79514411D01*
X86176487Y-79503611D01*
X86250000Y-79500000D01*
X87750000Y-79500000D01*
X87823513Y-79503611D01*
X87823513Y-79503611D01*
G37*
D16*
X87000000Y-84000000D03*
D10*
G36*
X87823513Y-101503611D02*
X87896318Y-101514411D01*
X87967714Y-101532295D01*
X88037013Y-101557090D01*
X88103548Y-101588559D01*
X88166678Y-101626398D01*
X88225795Y-101670242D01*
X88280330Y-101719670D01*
X88329758Y-101774205D01*
X88373602Y-101833322D01*
X88411441Y-101896452D01*
X88442910Y-101962987D01*
X88467705Y-102032286D01*
X88485589Y-102103682D01*
X88496389Y-102176487D01*
X88500000Y-102250000D01*
X88500000Y-109750000D01*
X88496389Y-109823513D01*
X88485589Y-109896318D01*
X88467705Y-109967714D01*
X88442910Y-110037013D01*
X88411441Y-110103548D01*
X88373602Y-110166678D01*
X88329758Y-110225795D01*
X88280330Y-110280330D01*
X88225795Y-110329758D01*
X88166678Y-110373602D01*
X88103548Y-110411441D01*
X88037013Y-110442910D01*
X87967714Y-110467705D01*
X87896318Y-110485589D01*
X87823513Y-110496389D01*
X87750000Y-110500000D01*
X86250000Y-110500000D01*
X86176487Y-110496389D01*
X86103682Y-110485589D01*
X86032286Y-110467705D01*
X85962987Y-110442910D01*
X85896452Y-110411441D01*
X85833322Y-110373602D01*
X85774205Y-110329758D01*
X85719670Y-110280330D01*
X85670242Y-110225795D01*
X85626398Y-110166678D01*
X85588559Y-110103548D01*
X85557090Y-110037013D01*
X85532295Y-109967714D01*
X85514411Y-109896318D01*
X85503611Y-109823513D01*
X85500000Y-109750000D01*
X85500000Y-102250000D01*
X85503611Y-102176487D01*
X85514411Y-102103682D01*
X85532295Y-102032286D01*
X85557090Y-101962987D01*
X85588559Y-101896452D01*
X85626398Y-101833322D01*
X85670242Y-101774205D01*
X85719670Y-101719670D01*
X85774205Y-101670242D01*
X85833322Y-101626398D01*
X85896452Y-101588559D01*
X85962987Y-101557090D01*
X86032286Y-101532295D01*
X86103682Y-101514411D01*
X86176487Y-101503611D01*
X86250000Y-101500000D01*
X87750000Y-101500000D01*
X87823513Y-101503611D01*
X87823513Y-101503611D01*
G37*
D16*
X87000000Y-106000000D03*
D26*
X155448000Y-104394000D03*
X147066000Y-90424000D03*
X147066000Y-95504000D03*
X144526000Y-104460000D03*
X152908000Y-89154000D03*
X111636000Y-107442000D03*
X130810000Y-91186000D03*
X151054958Y-68096260D03*
X162738958Y-69747260D03*
X162680991Y-67334260D03*
X159309958Y-68858260D03*
X99060000Y-133350000D03*
X157734000Y-93472000D03*
X109474000Y-58927992D03*
X111200013Y-81000000D03*
X110109000Y-81915000D03*
X109474014Y-57404000D03*
X155832014Y-52832000D03*
X157607000Y-62420500D03*
X154368500Y-68834000D03*
X157099000Y-71882000D03*
D27*
X157480000Y-104394000D02*
X157546000Y-104328000D01*
X157546000Y-104328000D02*
X159512000Y-104328000D01*
D28*
X155448000Y-104394000D02*
X157480000Y-104394000D01*
D27*
X147066000Y-95504000D02*
X147066000Y-90424000D01*
X159512000Y-104328000D02*
X159512000Y-110048000D01*
X159512000Y-110048000D02*
X159766000Y-110302000D01*
X163000000Y-104460000D02*
X159644000Y-104460000D01*
X159644000Y-104460000D02*
X159512000Y-104328000D01*
X144510000Y-121412000D02*
X144510000Y-104476000D01*
X144510000Y-104476000D02*
X144526000Y-104460000D01*
X147380000Y-121460000D02*
X144558000Y-121460000D01*
X144558000Y-121460000D02*
X144510000Y-121412000D01*
D28*
X141478000Y-77724000D02*
X152908000Y-89154000D01*
X141478000Y-77724000D02*
X143276000Y-77724000D01*
X143276000Y-77724000D02*
X151054958Y-69945042D01*
X151054958Y-69945042D02*
X151054958Y-68096260D01*
X157701736Y-68858260D02*
X155744778Y-70815218D01*
X159309958Y-68858260D02*
X157701736Y-68858260D01*
X155744778Y-70815218D02*
X151054958Y-70815218D01*
D29*
X111506000Y-94380000D02*
X111506000Y-107312000D01*
X111506000Y-107312000D02*
X111636000Y-107442000D01*
D27*
X130064000Y-131984000D02*
X135000000Y-136920000D01*
X135000000Y-136920000D02*
X135000000Y-138000000D01*
D28*
X107774000Y-138000000D02*
X115062000Y-138000000D01*
X115062000Y-138000000D02*
X135000000Y-138000000D01*
D27*
X115080000Y-132080000D02*
X115080000Y-137982000D01*
X115080000Y-137982000D02*
X115062000Y-138000000D01*
D28*
X87000000Y-106000000D02*
X87000000Y-117226000D01*
X87000000Y-117226000D02*
X107774000Y-138000000D01*
X135000000Y-138000000D02*
X135000000Y-121412000D01*
X135000000Y-121412000D02*
X135000000Y-95000000D01*
D27*
X142510000Y-121412000D02*
X135000000Y-121412000D01*
D28*
X135000000Y-95000000D02*
X131186000Y-91186000D01*
X131186000Y-91186000D02*
X130810000Y-91186000D01*
X151054958Y-68096260D02*
X151054958Y-70815218D01*
D27*
X159690958Y-68858260D02*
X161214958Y-67334260D01*
X161214958Y-67334260D02*
X162680991Y-67334260D01*
X159309958Y-68858260D02*
X159690958Y-68858260D01*
X159690958Y-68858260D02*
X160579958Y-69747260D01*
X160579958Y-69747260D02*
X162738958Y-69747260D01*
D28*
X137000000Y-147500000D02*
X137000000Y-140000000D01*
X137000000Y-140000000D02*
X135000000Y-138000000D01*
X122210000Y-156500000D02*
X99060000Y-133350000D01*
X137000000Y-156500000D02*
X122210000Y-156500000D01*
X142748000Y-156464000D02*
X137036000Y-156464000D01*
X137036000Y-156464000D02*
X137000000Y-156500000D01*
D27*
X136398000Y-82804000D02*
X138938000Y-85344000D01*
X112268000Y-82804000D02*
X136398000Y-82804000D01*
X88570710Y-85570710D02*
X109501290Y-85570710D01*
X109501290Y-85570710D02*
X112268000Y-82804000D01*
X87000000Y-84000000D02*
X88570710Y-85570710D01*
D28*
X71000000Y-143000000D02*
X68324000Y-143000000D01*
X68324000Y-143000000D02*
X64516000Y-139192000D01*
X64516000Y-139192000D02*
X64516000Y-127766000D01*
X64516000Y-127766000D02*
X59750000Y-123000000D01*
X59750000Y-123000000D02*
X57000000Y-123000000D01*
X57000000Y-123000000D02*
X57000000Y-111500000D01*
X57000000Y-65080000D02*
X57000000Y-78500000D01*
D27*
X133858000Y-86868000D02*
X133858000Y-85344000D01*
X150737989Y-123952000D02*
X150737989Y-103747989D01*
X150737989Y-103747989D02*
X133858000Y-86868000D01*
X150737989Y-136109359D02*
X150737989Y-123952000D01*
X147380000Y-124000000D02*
X150689989Y-124000000D01*
X150689989Y-124000000D02*
X150737989Y-123952000D01*
X153868630Y-139240000D02*
X150737989Y-136109359D01*
X155000000Y-139240000D02*
X153868630Y-139240000D01*
X155000000Y-136700000D02*
X151638000Y-133338000D01*
X151638000Y-133338000D02*
X151638000Y-103124000D01*
X151638000Y-103124000D02*
X136398000Y-87884000D01*
X136398000Y-87884000D02*
X136398000Y-85344000D01*
X157734000Y-93472000D02*
X159258000Y-93472000D01*
X159258000Y-93472000D02*
X162988000Y-93472000D01*
X159258000Y-90358000D02*
X159258000Y-93472000D01*
X162988000Y-93472000D02*
X163000000Y-93460000D01*
X121158000Y-62230000D02*
X119634000Y-62230000D01*
X119634000Y-62230000D02*
X118732988Y-61328988D01*
X118732988Y-61328988D02*
X118732988Y-55765012D01*
X118732988Y-55765012D02*
X119773012Y-54724988D01*
X124831796Y-54724990D02*
X138559806Y-68453000D01*
X138559806Y-68453000D02*
X139827000Y-68453000D01*
X119773012Y-54724988D02*
X124831796Y-54724990D01*
X139827000Y-68453000D02*
X141478000Y-70104000D01*
X109474000Y-58927992D02*
X109474000Y-79273987D01*
X109474000Y-79273987D02*
X111200013Y-81000000D01*
X121158000Y-59690000D02*
X119920564Y-59690000D01*
X124458999Y-55624999D02*
X138938000Y-70104000D01*
X119920564Y-59690000D02*
X119632999Y-59402435D01*
X119632999Y-59402435D02*
X119632999Y-56417999D01*
X119632999Y-56417999D02*
X120425999Y-55624999D01*
X120425999Y-55624999D02*
X124458999Y-55624999D01*
X123698000Y-57150000D02*
X136398000Y-69850000D01*
X136398000Y-69850000D02*
X136398000Y-70104000D01*
X109609001Y-81415001D02*
X110109000Y-81915000D01*
X108204000Y-80010000D02*
X109609001Y-81415001D01*
X108766908Y-57404000D02*
X108204000Y-57966908D01*
X109474014Y-57404000D02*
X108766908Y-57404000D01*
X108204000Y-57966908D02*
X108204000Y-80010000D01*
X123698000Y-59690000D02*
X133858000Y-69850000D01*
X133858000Y-69850000D02*
X133858000Y-70104000D01*
X123698000Y-62230000D02*
X131318000Y-69850000D01*
X131318000Y-69850000D02*
X131318000Y-70104000D01*
D28*
X121158000Y-64770000D02*
X119920564Y-64770000D01*
X119920564Y-64770000D02*
X117094000Y-61943436D01*
X117094000Y-61943436D02*
X117094000Y-54864000D01*
X117094000Y-54864000D02*
X119126000Y-52832000D01*
X119126000Y-52832000D02*
X155832014Y-52832000D01*
X155832014Y-52832000D02*
X165000014Y-62000000D01*
X165000000Y-63000000D02*
X165000014Y-62999986D01*
X165000014Y-62999986D02*
X165000014Y-62000000D01*
X165000000Y-63000000D02*
X165000000Y-84030000D01*
X165000000Y-84030000D02*
X163000000Y-86030000D01*
X163000000Y-86030000D02*
X163000000Y-88380000D01*
D27*
X163000000Y-88380000D02*
X159336000Y-88380000D01*
X159336000Y-88380000D02*
X159258000Y-88458000D01*
X121158000Y-64770000D02*
X121158000Y-70104000D01*
X124090011Y-74306011D02*
X133742011Y-74306011D01*
X122428000Y-72644000D02*
X124090011Y-74306011D01*
X133742011Y-74306011D02*
X159436000Y-100000000D01*
X159436000Y-100000000D02*
X159512000Y-100000000D01*
X159512000Y-102428000D02*
X159512000Y-100000000D01*
X159512000Y-100000000D02*
X164000000Y-100000000D01*
X166000000Y-102000000D02*
X166000000Y-108828000D01*
X165288000Y-109540000D02*
X163000000Y-109540000D01*
X164000000Y-100000000D02*
X166000000Y-102000000D01*
X166000000Y-108828000D02*
X165288000Y-109540000D01*
X133352806Y-72644000D02*
X124968000Y-72644000D01*
X166900011Y-101627204D02*
X164372796Y-99099989D01*
X166900011Y-109382070D02*
X166900011Y-101627204D01*
X159808795Y-99099989D02*
X133352806Y-72644000D01*
X164202081Y-112080000D02*
X166900011Y-109382070D01*
X163000000Y-112080000D02*
X164202081Y-112080000D01*
X164372796Y-99099989D02*
X159808795Y-99099989D01*
X159766000Y-112202000D02*
X162878000Y-112202000D01*
X162878000Y-112202000D02*
X163000000Y-112080000D01*
D28*
X66583500Y-157000000D02*
X60503500Y-163080000D01*
X60503500Y-163080000D02*
X57000000Y-163080000D01*
X71000000Y-157000000D02*
X66583500Y-157000000D01*
X57000000Y-57460000D02*
X66096000Y-57460000D01*
X75692000Y-67056000D02*
X75692000Y-152308000D01*
X66096000Y-57460000D02*
X75692000Y-67056000D01*
X75692000Y-152308000D02*
X71000000Y-157000000D01*
D27*
X157607000Y-62420500D02*
X155550758Y-64476742D01*
X155550758Y-64476742D02*
X155550758Y-65495260D01*
X154368500Y-68834000D02*
X155550758Y-67651742D01*
X155550758Y-67651742D02*
X155550758Y-67395260D01*
D28*
X155000000Y-127762000D02*
X155702000Y-127762000D01*
X155702000Y-127762000D02*
X160528000Y-132588000D01*
X160528000Y-132588000D02*
X160528000Y-156464000D01*
X155000000Y-127762000D02*
X155000000Y-129080000D01*
X155000000Y-126540000D02*
X155000000Y-127762000D01*
D29*
X157988000Y-152908000D02*
X158837999Y-152058001D01*
X158837999Y-135457999D02*
X155000000Y-131620000D01*
X157988000Y-156464000D02*
X157988000Y-152908000D01*
X158837999Y-152058001D02*
X158837999Y-135457999D01*
X157480000Y-136640000D02*
X155000000Y-134160000D01*
X157480000Y-151789639D02*
X157480000Y-136640000D01*
X155448000Y-153821639D02*
X157480000Y-151789639D01*
X155448000Y-156464000D02*
X155448000Y-153821639D01*
X144780000Y-145742918D02*
X144780000Y-136760000D01*
X152908000Y-156464000D02*
X152908000Y-153870918D01*
X144780000Y-136760000D02*
X147380000Y-134160000D01*
X152908000Y-153870918D02*
X144780000Y-145742918D01*
X143629989Y-146219268D02*
X143629989Y-135370011D01*
X150368000Y-152957279D02*
X143629989Y-146219268D01*
X143629989Y-135370011D02*
X147380000Y-131620000D01*
X150368000Y-156464000D02*
X150368000Y-152957279D01*
X147828000Y-156464000D02*
X147828000Y-152043640D01*
X142479978Y-133980022D02*
X147380000Y-129080000D01*
X142479978Y-146695618D02*
X142479978Y-133980022D01*
X147828000Y-152043640D02*
X142479978Y-146695618D01*
X145288000Y-156464000D02*
X145288000Y-151130000D01*
X145288000Y-151130000D02*
X141329967Y-147171967D01*
X141329967Y-132590033D02*
X147380000Y-126540000D01*
X141329967Y-147171967D02*
X141329967Y-132590033D01*
D28*
X57000000Y-145000000D02*
X57000000Y-155460000D01*
D27*
X157099000Y-71882000D02*
X157099000Y-78172017D01*
X157099000Y-78172017D02*
X157023958Y-78247059D01*
X124206000Y-89916000D02*
X124206000Y-94380000D01*
X124206000Y-89916000D02*
X128778000Y-85344000D01*
X126238000Y-85344000D02*
X121666000Y-89916000D01*
X121666000Y-89916000D02*
X121666000Y-94380000D01*
X131318000Y-85344000D02*
X125984000Y-90678000D01*
X125984000Y-90678000D02*
X125984000Y-95142000D01*
X125984000Y-95142000D02*
X124206000Y-96920000D01*
X121666000Y-87376000D02*
X115318806Y-87376000D01*
X123698000Y-85344000D02*
X121666000Y-87376000D01*
X115318806Y-87376000D02*
X109220000Y-93474806D01*
X109220000Y-111140000D02*
X124984000Y-126904000D01*
X109220000Y-93474806D02*
X109220000Y-111140000D01*
X108319989Y-125319989D02*
X110000000Y-127000000D01*
X108319989Y-93102011D02*
X108319989Y-125319989D01*
X116078000Y-85344000D02*
X108319989Y-93102011D01*
D30*
G36*
X168800000Y-168800000D02*
X51200000Y-168800000D01*
X51200000Y-144161840D01*
X53250000Y-144161840D01*
X53250000Y-145838160D01*
X53535452Y-147273223D01*
X53750000Y-147594317D01*
X53750000Y-153861041D01*
X53601023Y-154610000D01*
X53601023Y-156310000D01*
X53795052Y-157285451D01*
X54347601Y-158112399D01*
X55174549Y-158664948D01*
X56150000Y-158858977D01*
X57850000Y-158858977D01*
X58825451Y-158664948D01*
X59652399Y-158112399D01*
X60204948Y-157285451D01*
X60398977Y-156310000D01*
X60398977Y-154610000D01*
X60250000Y-153861041D01*
X60250000Y-147594317D01*
X60464548Y-147273223D01*
X60750000Y-145838160D01*
X60750000Y-144161840D01*
X60464548Y-142726777D01*
X59651650Y-141510190D01*
X58435063Y-140697292D01*
X57000000Y-140411840D01*
X55564937Y-140697292D01*
X54348350Y-141510190D01*
X53535452Y-142726777D01*
X53250000Y-144161840D01*
X51200000Y-144161840D01*
X51200000Y-107750000D01*
X52951023Y-107750000D01*
X52951023Y-115250000D01*
X53202143Y-116512464D01*
X53750000Y-117332390D01*
X53750000Y-120405683D01*
X53535452Y-120726777D01*
X53250000Y-122161840D01*
X53250000Y-123838160D01*
X53535452Y-125273223D01*
X54348350Y-126489810D01*
X55564937Y-127302708D01*
X57000000Y-127588160D01*
X58435063Y-127302708D01*
X59047378Y-126893572D01*
X61266000Y-129112194D01*
X61266000Y-139192000D01*
X61513392Y-140435721D01*
X62217903Y-141490097D01*
X66025903Y-145298097D01*
X67080279Y-146002608D01*
X68324000Y-146250000D01*
X69700153Y-146250000D01*
X70300753Y-146499391D01*
X71693139Y-146500606D01*
X72442000Y-146191183D01*
X72442000Y-148472076D01*
X72191107Y-148220745D01*
X71419548Y-147900366D01*
X70584117Y-147899637D01*
X69812000Y-148218669D01*
X69220745Y-148808893D01*
X68900366Y-149580452D01*
X68899637Y-150415883D01*
X69218669Y-151188000D01*
X69808893Y-151779255D01*
X70580452Y-152099634D01*
X71303541Y-152100265D01*
X69653806Y-153750000D01*
X66583500Y-153750000D01*
X65339779Y-153997392D01*
X64285403Y-154701903D01*
X59157306Y-159830000D01*
X57568363Y-159830000D01*
X57065630Y-159730000D01*
X56934370Y-159730000D01*
X55652381Y-159985004D01*
X54565562Y-160711192D01*
X53839374Y-161798011D01*
X53584370Y-163080000D01*
X53839374Y-164361989D01*
X54565562Y-165448808D01*
X55652381Y-166174996D01*
X56934370Y-166430000D01*
X57065630Y-166430000D01*
X57568363Y-166330000D01*
X60503500Y-166330000D01*
X61747221Y-166082608D01*
X62715407Y-165435687D01*
X82799619Y-165435687D01*
X83133843Y-166244572D01*
X83752173Y-166863982D01*
X84560473Y-167199618D01*
X85435687Y-167200381D01*
X86244572Y-166866157D01*
X86863982Y-166247827D01*
X87199618Y-165439527D01*
X87199621Y-165435687D01*
X162799619Y-165435687D01*
X163133843Y-166244572D01*
X163752173Y-166863982D01*
X164560473Y-167199618D01*
X165435687Y-167200381D01*
X166244572Y-166866157D01*
X166863982Y-166247827D01*
X167199618Y-165439527D01*
X167200381Y-164564313D01*
X166866157Y-163755428D01*
X166247827Y-163136018D01*
X165439527Y-162800382D01*
X164564313Y-162799619D01*
X163755428Y-163133843D01*
X163136018Y-163752173D01*
X162800382Y-164560473D01*
X162799619Y-165435687D01*
X87199621Y-165435687D01*
X87200381Y-164564313D01*
X86866157Y-163755428D01*
X86247827Y-163136018D01*
X85439527Y-162800382D01*
X84564313Y-162799619D01*
X83755428Y-163133843D01*
X83136018Y-163752173D01*
X82800382Y-164560473D01*
X82799619Y-165435687D01*
X62715407Y-165435687D01*
X62801597Y-165378097D01*
X67929694Y-160250000D01*
X69700153Y-160250000D01*
X70300753Y-160499391D01*
X71693139Y-160500606D01*
X72980001Y-159968886D01*
X73965425Y-158985179D01*
X74217089Y-158379105D01*
X77990097Y-154606097D01*
X78694608Y-153551721D01*
X78942000Y-152308000D01*
X78942000Y-80250000D01*
X84888246Y-80250000D01*
X84888246Y-87750000D01*
X84991903Y-88271121D01*
X85287095Y-88712905D01*
X85728879Y-89008097D01*
X86250000Y-89111754D01*
X87750000Y-89111754D01*
X88271121Y-89008097D01*
X88712905Y-88712905D01*
X89008097Y-88271121D01*
X89111754Y-87750000D01*
X89111754Y-86420710D01*
X109501290Y-86420710D01*
X109826571Y-86356008D01*
X110102331Y-86171751D01*
X112620082Y-83654000D01*
X136045918Y-83654000D01*
X136385907Y-83993989D01*
X136130647Y-83993766D01*
X135634285Y-84198858D01*
X135254193Y-84578288D01*
X135127944Y-84882330D01*
X135003142Y-84580285D01*
X134623712Y-84200193D01*
X134127710Y-83994235D01*
X133590647Y-83993766D01*
X133094285Y-84198858D01*
X132714193Y-84578288D01*
X132587944Y-84882330D01*
X132463142Y-84580285D01*
X132083712Y-84200193D01*
X131587710Y-83994235D01*
X131050647Y-83993766D01*
X130554285Y-84198858D01*
X130174193Y-84578288D01*
X130047944Y-84882330D01*
X129923142Y-84580285D01*
X129543712Y-84200193D01*
X129047710Y-83994235D01*
X128510647Y-83993766D01*
X128014285Y-84198858D01*
X127634193Y-84578288D01*
X127507944Y-84882330D01*
X127383142Y-84580285D01*
X127003712Y-84200193D01*
X126507710Y-83994235D01*
X125970647Y-83993766D01*
X125474285Y-84198858D01*
X125094193Y-84578288D01*
X124967944Y-84882330D01*
X124843142Y-84580285D01*
X124463712Y-84200193D01*
X123967710Y-83994235D01*
X123430647Y-83993766D01*
X122934285Y-84198858D01*
X122554193Y-84578288D01*
X122348235Y-85074290D01*
X122347870Y-85492048D01*
X121313918Y-86526000D01*
X119292512Y-86526000D01*
X119381715Y-86489142D01*
X119761807Y-86109712D01*
X119967765Y-85613710D01*
X119968234Y-85076647D01*
X119763142Y-84580285D01*
X119383712Y-84200193D01*
X118887710Y-83994235D01*
X118350647Y-83993766D01*
X117854285Y-84198858D01*
X117474193Y-84578288D01*
X117347944Y-84882330D01*
X117223142Y-84580285D01*
X116843712Y-84200193D01*
X116347710Y-83994235D01*
X115810647Y-83993766D01*
X115314285Y-84198858D01*
X114934193Y-84578288D01*
X114807944Y-84882330D01*
X114683142Y-84580285D01*
X114303712Y-84200193D01*
X113807710Y-83994235D01*
X113270647Y-83993766D01*
X112774285Y-84198858D01*
X112394193Y-84578288D01*
X112188235Y-85074290D01*
X112187766Y-85611353D01*
X112392858Y-86107715D01*
X112772288Y-86487807D01*
X113268290Y-86693765D01*
X113525928Y-86693990D01*
X107718948Y-92500970D01*
X107534691Y-92776730D01*
X107469989Y-93102011D01*
X107469989Y-125319989D01*
X107534691Y-125645270D01*
X107718948Y-125921030D01*
X108423159Y-126625241D01*
X108400278Y-126680344D01*
X108399723Y-127316863D01*
X108642795Y-127905143D01*
X109092489Y-128355623D01*
X109680344Y-128599722D01*
X110316863Y-128600277D01*
X110905143Y-128357205D01*
X111355623Y-127907511D01*
X111599722Y-127319656D01*
X111600277Y-126683137D01*
X111357205Y-126094857D01*
X110907511Y-125644377D01*
X110319656Y-125400278D01*
X109683137Y-125399723D01*
X109625585Y-125423503D01*
X109169989Y-124967907D01*
X109169989Y-112292071D01*
X123407159Y-126529240D01*
X123384278Y-126584344D01*
X123383723Y-127220863D01*
X123626795Y-127809143D01*
X124076489Y-128259623D01*
X124664344Y-128503722D01*
X125300863Y-128504277D01*
X125889143Y-128261205D01*
X126339623Y-127811511D01*
X126583722Y-127223656D01*
X126584277Y-126587137D01*
X126341205Y-125998857D01*
X125891511Y-125548377D01*
X125303656Y-125304278D01*
X124667137Y-125303723D01*
X124609584Y-125327503D01*
X110070000Y-110787918D01*
X110070000Y-93826888D01*
X115670888Y-88226000D01*
X121666000Y-88226000D01*
X121991281Y-88161298D01*
X122267041Y-87977041D01*
X123550211Y-86693871D01*
X123685929Y-86693990D01*
X121064959Y-89314959D01*
X120880702Y-89590719D01*
X120816000Y-89916000D01*
X120816000Y-93304038D01*
X120512026Y-93607482D01*
X120395971Y-93886972D01*
X120281321Y-93609497D01*
X119898518Y-93226026D01*
X119398107Y-93018237D01*
X118856270Y-93017764D01*
X118355497Y-93224679D01*
X117972026Y-93607482D01*
X117855971Y-93886972D01*
X117741321Y-93609497D01*
X117358518Y-93226026D01*
X116858107Y-93018237D01*
X116316270Y-93017764D01*
X115815497Y-93224679D01*
X115432026Y-93607482D01*
X115315971Y-93886972D01*
X115201321Y-93609497D01*
X114818518Y-93226026D01*
X114318107Y-93018237D01*
X113776270Y-93017764D01*
X113275497Y-93224679D01*
X112892026Y-93607482D01*
X112684237Y-94107893D01*
X112683764Y-94649730D01*
X112890679Y-95150503D01*
X113273482Y-95533974D01*
X113773893Y-95741763D01*
X114315730Y-95742236D01*
X114816503Y-95535321D01*
X115199974Y-95152518D01*
X115316029Y-94873028D01*
X115430679Y-95150503D01*
X115813482Y-95533974D01*
X116313893Y-95741763D01*
X116855730Y-95742236D01*
X117356503Y-95535321D01*
X117739974Y-95152518D01*
X117856029Y-94873028D01*
X117970679Y-95150503D01*
X118353482Y-95533974D01*
X118853893Y-95741763D01*
X119395730Y-95742236D01*
X119896503Y-95535321D01*
X120279974Y-95152518D01*
X120396029Y-94873028D01*
X120510679Y-95150503D01*
X120893482Y-95533974D01*
X121393893Y-95741763D01*
X121935730Y-95742236D01*
X122436503Y-95535321D01*
X122819974Y-95152518D01*
X122936029Y-94873028D01*
X123050679Y-95150503D01*
X123433482Y-95533974D01*
X123712972Y-95650029D01*
X123435497Y-95764679D01*
X123052026Y-96147482D01*
X122844237Y-96647893D01*
X122843764Y-97189730D01*
X123050679Y-97690503D01*
X123433482Y-98073974D01*
X123933893Y-98281763D01*
X124475730Y-98282236D01*
X124976503Y-98075321D01*
X125359974Y-97692518D01*
X125567763Y-97192107D01*
X125568140Y-96759942D01*
X126585041Y-95743041D01*
X126769298Y-95467281D01*
X126834001Y-95142000D01*
X126834000Y-95141995D01*
X126834000Y-91030082D01*
X131170211Y-86693871D01*
X131585353Y-86694234D01*
X132081715Y-86489142D01*
X132461807Y-86109712D01*
X132588056Y-85805670D01*
X132712858Y-86107715D01*
X133008000Y-86403372D01*
X133008000Y-86868000D01*
X133072702Y-87193281D01*
X133256959Y-87469041D01*
X149887989Y-104100070D01*
X149887989Y-123150000D01*
X148490888Y-123150000D01*
X148397377Y-123010051D01*
X147978252Y-122730000D01*
X148397377Y-122449949D01*
X148700859Y-121995757D01*
X148807428Y-121460000D01*
X148700859Y-120924243D01*
X148397377Y-120470051D01*
X148188015Y-120330160D01*
X148414108Y-120285187D01*
X148612575Y-120152575D01*
X148745187Y-119954108D01*
X148791754Y-119720000D01*
X148791754Y-118120000D01*
X148745187Y-117885892D01*
X148612575Y-117687425D01*
X148414108Y-117554813D01*
X148180000Y-117508246D01*
X146580000Y-117508246D01*
X146345892Y-117554813D01*
X146147425Y-117687425D01*
X146014813Y-117885892D01*
X145968246Y-118120000D01*
X145968246Y-119720000D01*
X146014813Y-119954108D01*
X146147425Y-120152575D01*
X146345892Y-120285187D01*
X146571985Y-120330160D01*
X146362623Y-120470051D01*
X146269112Y-120610000D01*
X145586546Y-120610000D01*
X145575187Y-120552892D01*
X145442575Y-120354425D01*
X145360000Y-120299250D01*
X145360000Y-105181733D01*
X145457991Y-105083913D01*
X145625808Y-104679763D01*
X145626190Y-104242156D01*
X145459078Y-103837714D01*
X145149913Y-103528009D01*
X144745763Y-103360192D01*
X144308156Y-103359810D01*
X143903714Y-103526922D01*
X143594009Y-103836087D01*
X143426192Y-104240237D01*
X143425810Y-104677844D01*
X143592922Y-105082286D01*
X143660000Y-105149481D01*
X143660000Y-120299250D01*
X143577425Y-120354425D01*
X143444813Y-120552892D01*
X143398246Y-120787000D01*
X143398246Y-122037000D01*
X143444813Y-122271108D01*
X143577425Y-122469575D01*
X143775892Y-122602187D01*
X144010000Y-122648754D01*
X145010000Y-122648754D01*
X145244108Y-122602187D01*
X145442575Y-122469575D01*
X145549200Y-122310000D01*
X146269112Y-122310000D01*
X146362623Y-122449949D01*
X146781748Y-122730000D01*
X146362623Y-123010051D01*
X146059141Y-123464243D01*
X145952572Y-124000000D01*
X146059141Y-124535757D01*
X146362623Y-124989949D01*
X146781748Y-125270000D01*
X146362623Y-125550051D01*
X146059141Y-126004243D01*
X145952572Y-126540000D01*
X145960630Y-126580512D01*
X140640538Y-131900604D01*
X140429184Y-132216916D01*
X140362393Y-132552702D01*
X140354967Y-132590033D01*
X140354967Y-147171967D01*
X140429184Y-147545084D01*
X140640538Y-147861396D01*
X144313000Y-151533858D01*
X144313000Y-155376675D01*
X144262695Y-155410288D01*
X144190674Y-155518076D01*
X144163187Y-155379892D01*
X144030575Y-155181425D01*
X143832108Y-155048813D01*
X143598000Y-155002246D01*
X141898000Y-155002246D01*
X141663892Y-155048813D01*
X141566333Y-155114000D01*
X137834355Y-155114000D01*
X137319656Y-154900278D01*
X136683137Y-154899723D01*
X136094857Y-155142795D01*
X136087639Y-155150000D01*
X122769188Y-155150000D01*
X100014594Y-132395406D01*
X99576622Y-132102763D01*
X99060000Y-132000000D01*
X98543378Y-132102763D01*
X98105406Y-132395406D01*
X97812763Y-132833378D01*
X97710000Y-133350000D01*
X97812763Y-133866622D01*
X98105406Y-134304594D01*
X121255406Y-157454594D01*
X121693377Y-157747237D01*
X122210000Y-157850000D01*
X136086876Y-157850000D01*
X136092489Y-157855623D01*
X136680344Y-158099722D01*
X137316863Y-158100277D01*
X137905143Y-157857205D01*
X137948424Y-157814000D01*
X141566333Y-157814000D01*
X141663892Y-157879187D01*
X141898000Y-157925754D01*
X143598000Y-157925754D01*
X143832108Y-157879187D01*
X144030575Y-157746575D01*
X144163187Y-157548108D01*
X144190674Y-157409924D01*
X144262695Y-157517712D01*
X144733109Y-157832032D01*
X145288000Y-157942407D01*
X145842891Y-157832032D01*
X146313305Y-157517712D01*
X146558000Y-157151499D01*
X146802695Y-157517712D01*
X147273109Y-157832032D01*
X147828000Y-157942407D01*
X148382891Y-157832032D01*
X148853305Y-157517712D01*
X149098000Y-157151499D01*
X149342695Y-157517712D01*
X149813109Y-157832032D01*
X150368000Y-157942407D01*
X150922891Y-157832032D01*
X151393305Y-157517712D01*
X151638000Y-157151499D01*
X151882695Y-157517712D01*
X152353109Y-157832032D01*
X152908000Y-157942407D01*
X153462891Y-157832032D01*
X153933305Y-157517712D01*
X154178000Y-157151499D01*
X154422695Y-157517712D01*
X154893109Y-157832032D01*
X155448000Y-157942407D01*
X156002891Y-157832032D01*
X156473305Y-157517712D01*
X156718000Y-157151499D01*
X156962695Y-157517712D01*
X157433109Y-157832032D01*
X157988000Y-157942407D01*
X158542891Y-157832032D01*
X159013305Y-157517712D01*
X159258000Y-157151499D01*
X159502695Y-157517712D01*
X159973109Y-157832032D01*
X160528000Y-157942407D01*
X161082891Y-157832032D01*
X161553305Y-157517712D01*
X161867625Y-157047298D01*
X161978000Y-156492407D01*
X161978000Y-156435593D01*
X161878000Y-155932860D01*
X161878000Y-132588000D01*
X161844187Y-132418009D01*
X161775238Y-132071378D01*
X161482594Y-131633406D01*
X156656594Y-126807406D01*
X156407363Y-126640875D01*
X156427428Y-126540000D01*
X156320859Y-126004243D01*
X156017377Y-125550051D01*
X155598252Y-125270000D01*
X156017377Y-124989949D01*
X156320859Y-124535757D01*
X156427428Y-124000000D01*
X156320859Y-123464243D01*
X156017377Y-123010051D01*
X155563185Y-122706569D01*
X155027428Y-122600000D01*
X154972572Y-122600000D01*
X154436815Y-122706569D01*
X153982623Y-123010051D01*
X153679141Y-123464243D01*
X153572572Y-124000000D01*
X153679141Y-124535757D01*
X153982623Y-124989949D01*
X154401748Y-125270000D01*
X153982623Y-125550051D01*
X153679141Y-126004243D01*
X153572572Y-126540000D01*
X153650000Y-126929256D01*
X153650000Y-128690744D01*
X153572572Y-129080000D01*
X153679141Y-129615757D01*
X153982623Y-130069949D01*
X154401748Y-130350000D01*
X153982623Y-130630051D01*
X153679141Y-131084243D01*
X153572572Y-131620000D01*
X153679141Y-132155757D01*
X153982623Y-132609949D01*
X154401748Y-132890000D01*
X153982623Y-133170051D01*
X153679141Y-133624243D01*
X153587423Y-134085341D01*
X152488000Y-132985918D01*
X152488000Y-118920000D01*
X153572572Y-118920000D01*
X153679141Y-119455757D01*
X153982623Y-119909949D01*
X154436815Y-120213431D01*
X154972572Y-120320000D01*
X155027428Y-120320000D01*
X155563185Y-120213431D01*
X156017377Y-119909949D01*
X156320859Y-119455757D01*
X156427428Y-118920000D01*
X156320859Y-118384243D01*
X156017377Y-117930051D01*
X155563185Y-117626569D01*
X155027428Y-117520000D01*
X154972572Y-117520000D01*
X154436815Y-117626569D01*
X153982623Y-117930051D01*
X153679141Y-118384243D01*
X153572572Y-118920000D01*
X152488000Y-118920000D01*
X152488000Y-103124005D01*
X152488001Y-103124000D01*
X152423298Y-102798719D01*
X152239041Y-102522959D01*
X140357926Y-90641844D01*
X145965810Y-90641844D01*
X146132922Y-91046286D01*
X146216000Y-91129509D01*
X146216000Y-94798239D01*
X146134009Y-94880087D01*
X145966192Y-95284237D01*
X145965810Y-95721844D01*
X146132922Y-96126286D01*
X146442087Y-96435991D01*
X146846237Y-96603808D01*
X147283844Y-96604190D01*
X147688286Y-96437078D01*
X147997991Y-96127913D01*
X148165808Y-95723763D01*
X148166190Y-95286156D01*
X147999078Y-94881714D01*
X147916000Y-94798491D01*
X147916000Y-91129761D01*
X147997991Y-91047913D01*
X148165808Y-90643763D01*
X148166190Y-90206156D01*
X147999078Y-89801714D01*
X147689913Y-89492009D01*
X147285763Y-89324192D01*
X146848156Y-89323810D01*
X146443714Y-89490922D01*
X146134009Y-89800087D01*
X145966192Y-90204237D01*
X145965810Y-90641844D01*
X140357926Y-90641844D01*
X137248000Y-87531918D01*
X137248000Y-86403007D01*
X137541807Y-86109712D01*
X137668056Y-85805670D01*
X137792858Y-86107715D01*
X138172288Y-86487807D01*
X138668290Y-86693765D01*
X139205353Y-86694234D01*
X139701715Y-86489142D01*
X140081807Y-86109712D01*
X140208056Y-85805670D01*
X140332858Y-86107715D01*
X140712288Y-86487807D01*
X141208290Y-86693765D01*
X141745353Y-86694234D01*
X142241715Y-86489142D01*
X142621807Y-86109712D01*
X142827765Y-85613710D01*
X142828234Y-85076647D01*
X142623142Y-84580285D01*
X142243712Y-84200193D01*
X141747710Y-83994235D01*
X141210647Y-83993766D01*
X140714285Y-84198858D01*
X140334193Y-84578288D01*
X140207944Y-84882330D01*
X140083142Y-84580285D01*
X139703712Y-84200193D01*
X139207710Y-83994235D01*
X138789951Y-83993870D01*
X136999041Y-82202959D01*
X136723281Y-82018702D01*
X136398000Y-81954000D01*
X112268000Y-81954000D01*
X111942719Y-82018702D01*
X111666959Y-82202959D01*
X109149208Y-84720710D01*
X89111754Y-84720710D01*
X89111754Y-80250000D01*
X89008097Y-79728879D01*
X88712905Y-79287095D01*
X88271121Y-78991903D01*
X87750000Y-78888246D01*
X86250000Y-78888246D01*
X85728879Y-78991903D01*
X85287095Y-79287095D01*
X84991903Y-79728879D01*
X84888246Y-80250000D01*
X78942000Y-80250000D01*
X78942000Y-67056000D01*
X78694608Y-65812279D01*
X77990097Y-64757903D01*
X71199102Y-57966908D01*
X107354000Y-57966908D01*
X107354000Y-80010000D01*
X107418702Y-80335281D01*
X107602959Y-80611041D01*
X109007958Y-82016039D01*
X109007960Y-82016042D01*
X109008911Y-82016993D01*
X109008810Y-82132844D01*
X109175922Y-82537286D01*
X109485087Y-82846991D01*
X109889237Y-83014808D01*
X110326844Y-83015190D01*
X110731286Y-82848078D01*
X111040991Y-82538913D01*
X111208808Y-82134763D01*
X111208838Y-82100008D01*
X111417857Y-82100190D01*
X111822299Y-81933078D01*
X112132004Y-81623913D01*
X112299821Y-81219763D01*
X112300203Y-80782156D01*
X112133091Y-80377714D01*
X111823926Y-80068009D01*
X111419776Y-79900192D01*
X111302184Y-79900089D01*
X110324000Y-78921905D01*
X110324000Y-72911353D01*
X121077766Y-72911353D01*
X121282858Y-73407715D01*
X121662288Y-73787807D01*
X122158290Y-73993765D01*
X122576048Y-73994130D01*
X123488968Y-74907049D01*
X123488970Y-74907052D01*
X123764730Y-75091309D01*
X124090011Y-75156011D01*
X133389929Y-75156011D01*
X158662000Y-100428082D01*
X158662000Y-101506028D01*
X158627892Y-101512813D01*
X158429425Y-101645425D01*
X158296813Y-101843892D01*
X158250246Y-102078000D01*
X158250246Y-102778000D01*
X158296813Y-103012108D01*
X158429425Y-103210575D01*
X158627892Y-103343187D01*
X158802909Y-103378000D01*
X158627892Y-103412813D01*
X158530333Y-103478000D01*
X158460382Y-103478000D01*
X158434594Y-103439406D01*
X157996623Y-103146763D01*
X157480000Y-103044000D01*
X155448000Y-103044000D01*
X154931377Y-103146763D01*
X154493406Y-103439406D01*
X154200763Y-103877377D01*
X154098000Y-104394000D01*
X154200763Y-104910623D01*
X154493406Y-105348594D01*
X154931377Y-105641237D01*
X155448000Y-105744000D01*
X157480000Y-105744000D01*
X157996623Y-105641237D01*
X158434594Y-105348594D01*
X158542949Y-105186430D01*
X158627892Y-105243187D01*
X158662000Y-105249972D01*
X158662000Y-109551490D01*
X158550813Y-109717892D01*
X158504246Y-109952000D01*
X158504246Y-110652000D01*
X158550813Y-110886108D01*
X158683425Y-111084575D01*
X158881892Y-111217187D01*
X159056909Y-111252000D01*
X158881892Y-111286813D01*
X158683425Y-111419425D01*
X158550813Y-111617892D01*
X158504246Y-111852000D01*
X158504246Y-112552000D01*
X158550813Y-112786108D01*
X158683425Y-112984575D01*
X158881892Y-113117187D01*
X159116000Y-113163754D01*
X160416000Y-113163754D01*
X160650108Y-113117187D01*
X160747667Y-113052000D01*
X161910671Y-113052000D01*
X161946288Y-113105305D01*
X162416702Y-113419625D01*
X162971593Y-113530000D01*
X163028407Y-113530000D01*
X163583298Y-113419625D01*
X164053712Y-113105305D01*
X164170847Y-112930000D01*
X164202081Y-112930000D01*
X164527362Y-112865298D01*
X164803122Y-112681041D01*
X167501052Y-109983111D01*
X167685309Y-109707351D01*
X167750011Y-109382070D01*
X167750011Y-101627209D01*
X167750012Y-101627204D01*
X167685309Y-101301923D01*
X167501052Y-101026163D01*
X164973837Y-98498948D01*
X164698077Y-98314691D01*
X164372796Y-98249989D01*
X160160876Y-98249989D01*
X133953847Y-72042959D01*
X133678087Y-71858702D01*
X133352806Y-71794000D01*
X126027007Y-71794000D01*
X125733712Y-71500193D01*
X125237710Y-71294235D01*
X124700647Y-71293766D01*
X124204285Y-71498858D01*
X123824193Y-71878288D01*
X123697944Y-72182330D01*
X123573142Y-71880285D01*
X123193712Y-71500193D01*
X122697710Y-71294235D01*
X122160647Y-71293766D01*
X121664285Y-71498858D01*
X121284193Y-71878288D01*
X121078235Y-72374290D01*
X121077766Y-72911353D01*
X110324000Y-72911353D01*
X110324000Y-70371353D01*
X112187766Y-70371353D01*
X112392858Y-70867715D01*
X112772288Y-71247807D01*
X113268290Y-71453765D01*
X113805353Y-71454234D01*
X114301715Y-71249142D01*
X114681807Y-70869712D01*
X114887765Y-70373710D01*
X114888234Y-69836647D01*
X114683142Y-69340285D01*
X114303712Y-68960193D01*
X113807710Y-68754235D01*
X113270647Y-68753766D01*
X112774285Y-68958858D01*
X112394193Y-69338288D01*
X112188235Y-69834290D01*
X112187766Y-70371353D01*
X110324000Y-70371353D01*
X110324000Y-59633753D01*
X110405991Y-59551905D01*
X110573808Y-59147755D01*
X110574190Y-58710148D01*
X110407078Y-58305706D01*
X110267646Y-58166031D01*
X110406005Y-58027913D01*
X110573822Y-57623763D01*
X110574204Y-57186156D01*
X110407092Y-56781714D01*
X110097927Y-56472009D01*
X109693777Y-56304192D01*
X109256170Y-56303810D01*
X108851728Y-56470922D01*
X108768505Y-56554000D01*
X108766908Y-56554000D01*
X108441627Y-56618702D01*
X108165867Y-56802959D01*
X107602959Y-57365867D01*
X107418702Y-57641627D01*
X107354000Y-57966908D01*
X71199102Y-57966908D01*
X68667881Y-55435687D01*
X82799619Y-55435687D01*
X83133843Y-56244572D01*
X83752173Y-56863982D01*
X84560473Y-57199618D01*
X85435687Y-57200381D01*
X86244572Y-56866157D01*
X86863982Y-56247827D01*
X87199618Y-55439527D01*
X87200119Y-54864000D01*
X115744000Y-54864000D01*
X115744000Y-61943436D01*
X115846763Y-62460059D01*
X116094645Y-62831040D01*
X116139406Y-62898030D01*
X118965970Y-65724594D01*
X119403941Y-66017237D01*
X119920564Y-66120000D01*
X120308000Y-66120000D01*
X120308000Y-69044993D01*
X120014193Y-69338288D01*
X119887944Y-69642330D01*
X119763142Y-69340285D01*
X119383712Y-68960193D01*
X118887710Y-68754235D01*
X118350647Y-68753766D01*
X117854285Y-68958858D01*
X117474193Y-69338288D01*
X117268235Y-69834290D01*
X117267766Y-70371353D01*
X117472858Y-70867715D01*
X117852288Y-71247807D01*
X118348290Y-71453765D01*
X118885353Y-71454234D01*
X119381715Y-71249142D01*
X119761807Y-70869712D01*
X119888056Y-70565670D01*
X120012858Y-70867715D01*
X120392288Y-71247807D01*
X120888290Y-71453765D01*
X121425353Y-71454234D01*
X121921715Y-71249142D01*
X122301807Y-70869712D01*
X122428056Y-70565670D01*
X122552858Y-70867715D01*
X122932288Y-71247807D01*
X123428290Y-71453765D01*
X123965353Y-71454234D01*
X124461715Y-71249142D01*
X124841807Y-70869712D01*
X124968056Y-70565670D01*
X125092858Y-70867715D01*
X125472288Y-71247807D01*
X125968290Y-71453765D01*
X126505353Y-71454234D01*
X127001715Y-71249142D01*
X127381807Y-70869712D01*
X127508056Y-70565670D01*
X127632858Y-70867715D01*
X128012288Y-71247807D01*
X128508290Y-71453765D01*
X129045353Y-71454234D01*
X129541715Y-71249142D01*
X129921807Y-70869712D01*
X130048056Y-70565670D01*
X130172858Y-70867715D01*
X130552288Y-71247807D01*
X131048290Y-71453765D01*
X131585353Y-71454234D01*
X132081715Y-71249142D01*
X132461807Y-70869712D01*
X132588056Y-70565670D01*
X132712858Y-70867715D01*
X133092288Y-71247807D01*
X133588290Y-71453765D01*
X134125353Y-71454234D01*
X134621715Y-71249142D01*
X135001807Y-70869712D01*
X135128056Y-70565670D01*
X135252858Y-70867715D01*
X135632288Y-71247807D01*
X136128290Y-71453765D01*
X136665353Y-71454234D01*
X137161715Y-71249142D01*
X137541807Y-70869712D01*
X137668056Y-70565670D01*
X137792858Y-70867715D01*
X138172288Y-71247807D01*
X138668290Y-71453765D01*
X139205353Y-71454234D01*
X139701715Y-71249142D01*
X140081807Y-70869712D01*
X140208056Y-70565670D01*
X140332858Y-70867715D01*
X140712288Y-71247807D01*
X141016330Y-71374056D01*
X140714285Y-71498858D01*
X140334193Y-71878288D01*
X140128235Y-72374290D01*
X140127766Y-72911353D01*
X140332858Y-73407715D01*
X140712288Y-73787807D01*
X141016330Y-73914056D01*
X140714285Y-74038858D01*
X140334193Y-74418288D01*
X140128235Y-74914290D01*
X140127766Y-75451353D01*
X140332858Y-75947715D01*
X140712288Y-76327807D01*
X141208290Y-76533765D01*
X141745353Y-76534234D01*
X142241715Y-76329142D01*
X142621807Y-75949712D01*
X142780246Y-75568148D01*
X151343524Y-75568148D01*
X151724084Y-76489174D01*
X152428137Y-77194456D01*
X153348497Y-77576623D01*
X154345047Y-77577493D01*
X154806256Y-77386926D01*
X154646371Y-77771970D01*
X154645546Y-78717997D01*
X154806378Y-79107241D01*
X154349419Y-78917495D01*
X153352869Y-78916625D01*
X152431843Y-79297185D01*
X151726561Y-80001238D01*
X151344394Y-80921598D01*
X151343524Y-81918148D01*
X151724084Y-82839174D01*
X152428137Y-83544456D01*
X153348497Y-83926623D01*
X154345047Y-83927493D01*
X155266073Y-83546933D01*
X155971355Y-82842880D01*
X156353522Y-81922520D01*
X156354392Y-80925970D01*
X156163825Y-80464761D01*
X156548869Y-80624646D01*
X157494896Y-80625471D01*
X157884140Y-80464639D01*
X157694394Y-80921598D01*
X157693524Y-81918148D01*
X158074084Y-82839174D01*
X158778137Y-83544456D01*
X159698497Y-83926623D01*
X160695047Y-83927493D01*
X161616073Y-83546933D01*
X162321355Y-82842880D01*
X162703522Y-81922520D01*
X162704392Y-80925970D01*
X162323832Y-80004944D01*
X161619779Y-79299662D01*
X160699419Y-78917495D01*
X159702869Y-78916625D01*
X159241660Y-79107192D01*
X159401545Y-78722148D01*
X159402370Y-77776121D01*
X159241538Y-77386877D01*
X159698497Y-77576623D01*
X160695047Y-77577493D01*
X161616073Y-77196933D01*
X162321355Y-76492880D01*
X162703522Y-75572520D01*
X162704392Y-74575970D01*
X162323832Y-73654944D01*
X161619779Y-72949662D01*
X160699419Y-72567495D01*
X159702869Y-72566625D01*
X158781843Y-72947185D01*
X158076561Y-73651238D01*
X157949000Y-73958439D01*
X157949000Y-72587761D01*
X158030991Y-72505913D01*
X158198808Y-72101763D01*
X158199190Y-71664156D01*
X158032078Y-71259714D01*
X157722913Y-70950009D01*
X157318763Y-70782192D01*
X156881156Y-70781810D01*
X156476714Y-70948922D01*
X156167009Y-71258087D01*
X155999192Y-71662237D01*
X155998810Y-72099844D01*
X156165922Y-72504286D01*
X156249000Y-72587509D01*
X156249000Y-74320902D01*
X155973832Y-73654944D01*
X155269779Y-72949662D01*
X154349419Y-72567495D01*
X153352869Y-72566625D01*
X152431843Y-72947185D01*
X151726561Y-73651238D01*
X151344394Y-74571598D01*
X151343524Y-75568148D01*
X142780246Y-75568148D01*
X142827765Y-75453710D01*
X142828234Y-74916647D01*
X142623142Y-74420285D01*
X142243712Y-74040193D01*
X141939670Y-73913944D01*
X142241715Y-73789142D01*
X142621807Y-73409712D01*
X142827765Y-72913710D01*
X142828234Y-72376647D01*
X142623142Y-71880285D01*
X142243712Y-71500193D01*
X141939670Y-71373944D01*
X142241715Y-71249142D01*
X142621807Y-70869712D01*
X142827765Y-70373710D01*
X142828234Y-69836647D01*
X142623142Y-69340285D01*
X142335204Y-69051844D01*
X153268310Y-69051844D01*
X153435422Y-69456286D01*
X153744587Y-69765991D01*
X154148737Y-69933808D01*
X154586344Y-69934190D01*
X154990786Y-69767078D01*
X155300491Y-69457913D01*
X155468308Y-69053763D01*
X155468411Y-68936171D01*
X156047568Y-68357014D01*
X156200758Y-68357014D01*
X156434866Y-68310447D01*
X156633333Y-68177835D01*
X156765945Y-67979368D01*
X156812512Y-67745260D01*
X156812512Y-67045260D01*
X156765945Y-66811152D01*
X156633333Y-66612685D01*
X156434866Y-66480073D01*
X156259849Y-66445260D01*
X156434866Y-66410447D01*
X156633333Y-66277835D01*
X156765945Y-66079368D01*
X156812512Y-65845260D01*
X156812512Y-65145260D01*
X156765945Y-64911152D01*
X156633333Y-64712685D01*
X156563535Y-64666047D01*
X157708993Y-63520589D01*
X157824844Y-63520690D01*
X158229286Y-63353578D01*
X158538991Y-63044413D01*
X158706808Y-62640263D01*
X158707190Y-62202656D01*
X158540078Y-61798214D01*
X158230913Y-61488509D01*
X157826763Y-61320692D01*
X157389156Y-61320310D01*
X156984714Y-61487422D01*
X156675009Y-61796587D01*
X156507192Y-62200737D01*
X156507089Y-62318329D01*
X154949717Y-63875701D01*
X154765460Y-64151461D01*
X154700758Y-64476742D01*
X154700758Y-64573288D01*
X154666650Y-64580073D01*
X154468183Y-64712685D01*
X154335571Y-64911152D01*
X154289004Y-65145260D01*
X154289004Y-65845260D01*
X154335571Y-66079368D01*
X154468183Y-66277835D01*
X154666650Y-66410447D01*
X154841667Y-66445260D01*
X154666650Y-66480073D01*
X154468183Y-66612685D01*
X154335571Y-66811152D01*
X154289004Y-67045260D01*
X154289004Y-67711414D01*
X154266507Y-67733911D01*
X154150656Y-67733810D01*
X153746214Y-67900922D01*
X153436509Y-68210087D01*
X153268692Y-68614237D01*
X153268310Y-69051844D01*
X142335204Y-69051844D01*
X142243712Y-68960193D01*
X141747710Y-68754235D01*
X141329952Y-68753870D01*
X140428041Y-67851959D01*
X140152281Y-67667702D01*
X139827000Y-67603000D01*
X138911888Y-67603000D01*
X125490888Y-54182000D01*
X155272826Y-54182000D01*
X163650014Y-62559188D01*
X163650014Y-62999930D01*
X163650000Y-63000000D01*
X163650000Y-83470812D01*
X162045406Y-85075406D01*
X161752763Y-85513377D01*
X161650000Y-86030000D01*
X161650000Y-87198333D01*
X161584813Y-87295892D01*
X161538246Y-87530000D01*
X160077693Y-87530000D01*
X159908000Y-87496246D01*
X158608000Y-87496246D01*
X158373892Y-87542813D01*
X158175425Y-87675425D01*
X158042813Y-87873892D01*
X157996246Y-88108000D01*
X157996246Y-88808000D01*
X158042813Y-89042108D01*
X158175425Y-89240575D01*
X158373892Y-89373187D01*
X158548909Y-89408000D01*
X158373892Y-89442813D01*
X158175425Y-89575425D01*
X158042813Y-89773892D01*
X157996246Y-90008000D01*
X157996246Y-90708000D01*
X158042813Y-90942108D01*
X158175425Y-91140575D01*
X158373892Y-91273187D01*
X158408000Y-91279972D01*
X158408000Y-92590183D01*
X158357913Y-92540009D01*
X157953763Y-92372192D01*
X157516156Y-92371810D01*
X157111714Y-92538922D01*
X156802009Y-92848087D01*
X156634192Y-93252237D01*
X156633810Y-93689844D01*
X156800922Y-94094286D01*
X157110087Y-94403991D01*
X157514237Y-94571808D01*
X157951844Y-94572190D01*
X158356286Y-94405078D01*
X158439509Y-94322000D01*
X161837171Y-94322000D01*
X161946288Y-94485305D01*
X162312501Y-94730000D01*
X161946288Y-94974695D01*
X161631968Y-95445109D01*
X161521593Y-96000000D01*
X161631968Y-96554891D01*
X161946288Y-97025305D01*
X162416702Y-97339625D01*
X162971593Y-97450000D01*
X163028407Y-97450000D01*
X163583298Y-97339625D01*
X164053712Y-97025305D01*
X164368032Y-96554891D01*
X164478407Y-96000000D01*
X164368032Y-95445109D01*
X164053712Y-94974695D01*
X163687499Y-94730000D01*
X164053712Y-94485305D01*
X164368032Y-94014891D01*
X164478407Y-93460000D01*
X164368032Y-92905109D01*
X164053712Y-92434695D01*
X163583298Y-92120375D01*
X163028407Y-92010000D01*
X162971593Y-92010000D01*
X162416702Y-92120375D01*
X161946288Y-92434695D01*
X161821135Y-92622000D01*
X160108000Y-92622000D01*
X160108000Y-91279972D01*
X160142108Y-91273187D01*
X160340575Y-91140575D01*
X160473187Y-90942108D01*
X160519754Y-90708000D01*
X160519754Y-90008000D01*
X160473187Y-89773892D01*
X160340575Y-89575425D01*
X160142108Y-89442813D01*
X159967091Y-89408000D01*
X160142108Y-89373187D01*
X160340575Y-89240575D01*
X160347641Y-89230000D01*
X161538246Y-89230000D01*
X161584813Y-89464108D01*
X161717425Y-89662575D01*
X161915892Y-89795187D01*
X162150000Y-89841754D01*
X163850000Y-89841754D01*
X164084108Y-89795187D01*
X164282575Y-89662575D01*
X164415187Y-89464108D01*
X164461754Y-89230000D01*
X164461754Y-87530000D01*
X164415187Y-87295892D01*
X164350000Y-87198333D01*
X164350000Y-86589188D01*
X165954594Y-84984594D01*
X166089453Y-84782763D01*
X166247237Y-84546623D01*
X166350000Y-84030000D01*
X166350000Y-63000056D01*
X166350014Y-62999986D01*
X166350014Y-62000000D01*
X166247251Y-61483377D01*
X165954608Y-61045406D01*
X160344889Y-55435687D01*
X162799619Y-55435687D01*
X163133843Y-56244572D01*
X163752173Y-56863982D01*
X164560473Y-57199618D01*
X165435687Y-57200381D01*
X166244572Y-56866157D01*
X166863982Y-56247827D01*
X167199618Y-55439527D01*
X167200381Y-54564313D01*
X166866157Y-53755428D01*
X166247827Y-53136018D01*
X165439527Y-52800382D01*
X164564313Y-52799619D01*
X163755428Y-53133843D01*
X163136018Y-53752173D01*
X162800382Y-54560473D01*
X162799619Y-55435687D01*
X160344889Y-55435687D01*
X156786608Y-51877406D01*
X156583493Y-51741689D01*
X156348637Y-51584763D01*
X155832014Y-51482000D01*
X119126000Y-51482000D01*
X118609377Y-51584763D01*
X118374521Y-51741689D01*
X118171406Y-51877406D01*
X116139406Y-53909406D01*
X115846763Y-54347377D01*
X115744000Y-54864000D01*
X87200119Y-54864000D01*
X87200381Y-54564313D01*
X86866157Y-53755428D01*
X86247827Y-53136018D01*
X85439527Y-52800382D01*
X84564313Y-52799619D01*
X83755428Y-53133843D01*
X83136018Y-53752173D01*
X82800382Y-54560473D01*
X82799619Y-55435687D01*
X68667881Y-55435687D01*
X68394097Y-55161903D01*
X67339721Y-54457392D01*
X66096000Y-54210000D01*
X57568363Y-54210000D01*
X57065630Y-54110000D01*
X56934370Y-54110000D01*
X55652381Y-54365004D01*
X54565562Y-55091192D01*
X53839374Y-56178011D01*
X53584370Y-57460000D01*
X53839374Y-58741989D01*
X54565562Y-59828808D01*
X55652381Y-60554996D01*
X56934370Y-60810000D01*
X57065630Y-60810000D01*
X57568363Y-60710000D01*
X64749806Y-60710000D01*
X72442000Y-68402194D01*
X72442000Y-139809027D01*
X71699247Y-139500609D01*
X70306861Y-139499394D01*
X69700348Y-139750000D01*
X69670194Y-139750000D01*
X67766000Y-137845806D01*
X67766000Y-127766000D01*
X67518608Y-126522279D01*
X66814097Y-125467903D01*
X62048097Y-120701903D01*
X60993721Y-119997392D01*
X60250000Y-119849456D01*
X60250000Y-117332390D01*
X60797857Y-116512464D01*
X61048977Y-115250000D01*
X61048977Y-107750000D01*
X60797857Y-106487536D01*
X60082729Y-105417271D01*
X59012464Y-104702143D01*
X57750000Y-104451023D01*
X56250000Y-104451023D01*
X54987536Y-104702143D01*
X53917271Y-105417271D01*
X53202143Y-106487536D01*
X52951023Y-107750000D01*
X51200000Y-107750000D01*
X51200000Y-74750000D01*
X52951023Y-74750000D01*
X52951023Y-82250000D01*
X53202143Y-83512464D01*
X53917271Y-84582729D01*
X54987536Y-85297857D01*
X56250000Y-85548977D01*
X57750000Y-85548977D01*
X59012464Y-85297857D01*
X60082729Y-84582729D01*
X60797857Y-83512464D01*
X61048977Y-82250000D01*
X61048977Y-74750000D01*
X60797857Y-73487536D01*
X60250000Y-72667610D01*
X60250000Y-66678959D01*
X60398977Y-65930000D01*
X60398977Y-64230000D01*
X60204948Y-63254549D01*
X59652399Y-62427601D01*
X58825451Y-61875052D01*
X57850000Y-61681023D01*
X56150000Y-61681023D01*
X55174549Y-61875052D01*
X54347601Y-62427601D01*
X53795052Y-63254549D01*
X53601023Y-64230000D01*
X53601023Y-65930000D01*
X53750000Y-66678959D01*
X53750000Y-72667610D01*
X53202143Y-73487536D01*
X52951023Y-74750000D01*
X51200000Y-74750000D01*
X51200000Y-51200000D01*
X168800000Y-51200000D01*
X168800000Y-168800000D01*
X168800000Y-168800000D01*
G37*
X168800000Y-168800000D02*
X51200000Y-168800000D01*
X51200000Y-144161840D01*
X53250000Y-144161840D01*
X53250000Y-145838160D01*
X53535452Y-147273223D01*
X53750000Y-147594317D01*
X53750000Y-153861041D01*
X53601023Y-154610000D01*
X53601023Y-156310000D01*
X53795052Y-157285451D01*
X54347601Y-158112399D01*
X55174549Y-158664948D01*
X56150000Y-158858977D01*
X57850000Y-158858977D01*
X58825451Y-158664948D01*
X59652399Y-158112399D01*
X60204948Y-157285451D01*
X60398977Y-156310000D01*
X60398977Y-154610000D01*
X60250000Y-153861041D01*
X60250000Y-147594317D01*
X60464548Y-147273223D01*
X60750000Y-145838160D01*
X60750000Y-144161840D01*
X60464548Y-142726777D01*
X59651650Y-141510190D01*
X58435063Y-140697292D01*
X57000000Y-140411840D01*
X55564937Y-140697292D01*
X54348350Y-141510190D01*
X53535452Y-142726777D01*
X53250000Y-144161840D01*
X51200000Y-144161840D01*
X51200000Y-107750000D01*
X52951023Y-107750000D01*
X52951023Y-115250000D01*
X53202143Y-116512464D01*
X53750000Y-117332390D01*
X53750000Y-120405683D01*
X53535452Y-120726777D01*
X53250000Y-122161840D01*
X53250000Y-123838160D01*
X53535452Y-125273223D01*
X54348350Y-126489810D01*
X55564937Y-127302708D01*
X57000000Y-127588160D01*
X58435063Y-127302708D01*
X59047378Y-126893572D01*
X61266000Y-129112194D01*
X61266000Y-139192000D01*
X61513392Y-140435721D01*
X62217903Y-141490097D01*
X66025903Y-145298097D01*
X67080279Y-146002608D01*
X68324000Y-146250000D01*
X69700153Y-146250000D01*
X70300753Y-146499391D01*
X71693139Y-146500606D01*
X72442000Y-146191183D01*
X72442000Y-148472076D01*
X72191107Y-148220745D01*
X71419548Y-147900366D01*
X70584117Y-147899637D01*
X69812000Y-148218669D01*
X69220745Y-148808893D01*
X68900366Y-149580452D01*
X68899637Y-150415883D01*
X69218669Y-151188000D01*
X69808893Y-151779255D01*
X70580452Y-152099634D01*
X71303541Y-152100265D01*
X69653806Y-153750000D01*
X66583500Y-153750000D01*
X65339779Y-153997392D01*
X64285403Y-154701903D01*
X59157306Y-159830000D01*
X57568363Y-159830000D01*
X57065630Y-159730000D01*
X56934370Y-159730000D01*
X55652381Y-159985004D01*
X54565562Y-160711192D01*
X53839374Y-161798011D01*
X53584370Y-163080000D01*
X53839374Y-164361989D01*
X54565562Y-165448808D01*
X55652381Y-166174996D01*
X56934370Y-166430000D01*
X57065630Y-166430000D01*
X57568363Y-166330000D01*
X60503500Y-166330000D01*
X61747221Y-166082608D01*
X62715407Y-165435687D01*
X82799619Y-165435687D01*
X83133843Y-166244572D01*
X83752173Y-166863982D01*
X84560473Y-167199618D01*
X85435687Y-167200381D01*
X86244572Y-166866157D01*
X86863982Y-166247827D01*
X87199618Y-165439527D01*
X87199621Y-165435687D01*
X162799619Y-165435687D01*
X163133843Y-166244572D01*
X163752173Y-166863982D01*
X164560473Y-167199618D01*
X165435687Y-167200381D01*
X166244572Y-166866157D01*
X166863982Y-166247827D01*
X167199618Y-165439527D01*
X167200381Y-164564313D01*
X166866157Y-163755428D01*
X166247827Y-163136018D01*
X165439527Y-162800382D01*
X164564313Y-162799619D01*
X163755428Y-163133843D01*
X163136018Y-163752173D01*
X162800382Y-164560473D01*
X162799619Y-165435687D01*
X87199621Y-165435687D01*
X87200381Y-164564313D01*
X86866157Y-163755428D01*
X86247827Y-163136018D01*
X85439527Y-162800382D01*
X84564313Y-162799619D01*
X83755428Y-163133843D01*
X83136018Y-163752173D01*
X82800382Y-164560473D01*
X82799619Y-165435687D01*
X62715407Y-165435687D01*
X62801597Y-165378097D01*
X67929694Y-160250000D01*
X69700153Y-160250000D01*
X70300753Y-160499391D01*
X71693139Y-160500606D01*
X72980001Y-159968886D01*
X73965425Y-158985179D01*
X74217089Y-158379105D01*
X77990097Y-154606097D01*
X78694608Y-153551721D01*
X78942000Y-152308000D01*
X78942000Y-80250000D01*
X84888246Y-80250000D01*
X84888246Y-87750000D01*
X84991903Y-88271121D01*
X85287095Y-88712905D01*
X85728879Y-89008097D01*
X86250000Y-89111754D01*
X87750000Y-89111754D01*
X88271121Y-89008097D01*
X88712905Y-88712905D01*
X89008097Y-88271121D01*
X89111754Y-87750000D01*
X89111754Y-86420710D01*
X109501290Y-86420710D01*
X109826571Y-86356008D01*
X110102331Y-86171751D01*
X112620082Y-83654000D01*
X136045918Y-83654000D01*
X136385907Y-83993989D01*
X136130647Y-83993766D01*
X135634285Y-84198858D01*
X135254193Y-84578288D01*
X135127944Y-84882330D01*
X135003142Y-84580285D01*
X134623712Y-84200193D01*
X134127710Y-83994235D01*
X133590647Y-83993766D01*
X133094285Y-84198858D01*
X132714193Y-84578288D01*
X132587944Y-84882330D01*
X132463142Y-84580285D01*
X132083712Y-84200193D01*
X131587710Y-83994235D01*
X131050647Y-83993766D01*
X130554285Y-84198858D01*
X130174193Y-84578288D01*
X130047944Y-84882330D01*
X129923142Y-84580285D01*
X129543712Y-84200193D01*
X129047710Y-83994235D01*
X128510647Y-83993766D01*
X128014285Y-84198858D01*
X127634193Y-84578288D01*
X127507944Y-84882330D01*
X127383142Y-84580285D01*
X127003712Y-84200193D01*
X126507710Y-83994235D01*
X125970647Y-83993766D01*
X125474285Y-84198858D01*
X125094193Y-84578288D01*
X124967944Y-84882330D01*
X124843142Y-84580285D01*
X124463712Y-84200193D01*
X123967710Y-83994235D01*
X123430647Y-83993766D01*
X122934285Y-84198858D01*
X122554193Y-84578288D01*
X122348235Y-85074290D01*
X122347870Y-85492048D01*
X121313918Y-86526000D01*
X119292512Y-86526000D01*
X119381715Y-86489142D01*
X119761807Y-86109712D01*
X119967765Y-85613710D01*
X119968234Y-85076647D01*
X119763142Y-84580285D01*
X119383712Y-84200193D01*
X118887710Y-83994235D01*
X118350647Y-83993766D01*
X117854285Y-84198858D01*
X117474193Y-84578288D01*
X117347944Y-84882330D01*
X117223142Y-84580285D01*
X116843712Y-84200193D01*
X116347710Y-83994235D01*
X115810647Y-83993766D01*
X115314285Y-84198858D01*
X114934193Y-84578288D01*
X114807944Y-84882330D01*
X114683142Y-84580285D01*
X114303712Y-84200193D01*
X113807710Y-83994235D01*
X113270647Y-83993766D01*
X112774285Y-84198858D01*
X112394193Y-84578288D01*
X112188235Y-85074290D01*
X112187766Y-85611353D01*
X112392858Y-86107715D01*
X112772288Y-86487807D01*
X113268290Y-86693765D01*
X113525928Y-86693990D01*
X107718948Y-92500970D01*
X107534691Y-92776730D01*
X107469989Y-93102011D01*
X107469989Y-125319989D01*
X107534691Y-125645270D01*
X107718948Y-125921030D01*
X108423159Y-126625241D01*
X108400278Y-126680344D01*
X108399723Y-127316863D01*
X108642795Y-127905143D01*
X109092489Y-128355623D01*
X109680344Y-128599722D01*
X110316863Y-128600277D01*
X110905143Y-128357205D01*
X111355623Y-127907511D01*
X111599722Y-127319656D01*
X111600277Y-126683137D01*
X111357205Y-126094857D01*
X110907511Y-125644377D01*
X110319656Y-125400278D01*
X109683137Y-125399723D01*
X109625585Y-125423503D01*
X109169989Y-124967907D01*
X109169989Y-112292071D01*
X123407159Y-126529240D01*
X123384278Y-126584344D01*
X123383723Y-127220863D01*
X123626795Y-127809143D01*
X124076489Y-128259623D01*
X124664344Y-128503722D01*
X125300863Y-128504277D01*
X125889143Y-128261205D01*
X126339623Y-127811511D01*
X126583722Y-127223656D01*
X126584277Y-126587137D01*
X126341205Y-125998857D01*
X125891511Y-125548377D01*
X125303656Y-125304278D01*
X124667137Y-125303723D01*
X124609584Y-125327503D01*
X110070000Y-110787918D01*
X110070000Y-93826888D01*
X115670888Y-88226000D01*
X121666000Y-88226000D01*
X121991281Y-88161298D01*
X122267041Y-87977041D01*
X123550211Y-86693871D01*
X123685929Y-86693990D01*
X121064959Y-89314959D01*
X120880702Y-89590719D01*
X120816000Y-89916000D01*
X120816000Y-93304038D01*
X120512026Y-93607482D01*
X120395971Y-93886972D01*
X120281321Y-93609497D01*
X119898518Y-93226026D01*
X119398107Y-93018237D01*
X118856270Y-93017764D01*
X118355497Y-93224679D01*
X117972026Y-93607482D01*
X117855971Y-93886972D01*
X117741321Y-93609497D01*
X117358518Y-93226026D01*
X116858107Y-93018237D01*
X116316270Y-93017764D01*
X115815497Y-93224679D01*
X115432026Y-93607482D01*
X115315971Y-93886972D01*
X115201321Y-93609497D01*
X114818518Y-93226026D01*
X114318107Y-93018237D01*
X113776270Y-93017764D01*
X113275497Y-93224679D01*
X112892026Y-93607482D01*
X112684237Y-94107893D01*
X112683764Y-94649730D01*
X112890679Y-95150503D01*
X113273482Y-95533974D01*
X113773893Y-95741763D01*
X114315730Y-95742236D01*
X114816503Y-95535321D01*
X115199974Y-95152518D01*
X115316029Y-94873028D01*
X115430679Y-95150503D01*
X115813482Y-95533974D01*
X116313893Y-95741763D01*
X116855730Y-95742236D01*
X117356503Y-95535321D01*
X117739974Y-95152518D01*
X117856029Y-94873028D01*
X117970679Y-95150503D01*
X118353482Y-95533974D01*
X118853893Y-95741763D01*
X119395730Y-95742236D01*
X119896503Y-95535321D01*
X120279974Y-95152518D01*
X120396029Y-94873028D01*
X120510679Y-95150503D01*
X120893482Y-95533974D01*
X121393893Y-95741763D01*
X121935730Y-95742236D01*
X122436503Y-95535321D01*
X122819974Y-95152518D01*
X122936029Y-94873028D01*
X123050679Y-95150503D01*
X123433482Y-95533974D01*
X123712972Y-95650029D01*
X123435497Y-95764679D01*
X123052026Y-96147482D01*
X122844237Y-96647893D01*
X122843764Y-97189730D01*
X123050679Y-97690503D01*
X123433482Y-98073974D01*
X123933893Y-98281763D01*
X124475730Y-98282236D01*
X124976503Y-98075321D01*
X125359974Y-97692518D01*
X125567763Y-97192107D01*
X125568140Y-96759942D01*
X126585041Y-95743041D01*
X126769298Y-95467281D01*
X126834001Y-95142000D01*
X126834000Y-95141995D01*
X126834000Y-91030082D01*
X131170211Y-86693871D01*
X131585353Y-86694234D01*
X132081715Y-86489142D01*
X132461807Y-86109712D01*
X132588056Y-85805670D01*
X132712858Y-86107715D01*
X133008000Y-86403372D01*
X133008000Y-86868000D01*
X133072702Y-87193281D01*
X133256959Y-87469041D01*
X149887989Y-104100070D01*
X149887989Y-123150000D01*
X148490888Y-123150000D01*
X148397377Y-123010051D01*
X147978252Y-122730000D01*
X148397377Y-122449949D01*
X148700859Y-121995757D01*
X148807428Y-121460000D01*
X148700859Y-120924243D01*
X148397377Y-120470051D01*
X148188015Y-120330160D01*
X148414108Y-120285187D01*
X148612575Y-120152575D01*
X148745187Y-119954108D01*
X148791754Y-119720000D01*
X148791754Y-118120000D01*
X148745187Y-117885892D01*
X148612575Y-117687425D01*
X148414108Y-117554813D01*
X148180000Y-117508246D01*
X146580000Y-117508246D01*
X146345892Y-117554813D01*
X146147425Y-117687425D01*
X146014813Y-117885892D01*
X145968246Y-118120000D01*
X145968246Y-119720000D01*
X146014813Y-119954108D01*
X146147425Y-120152575D01*
X146345892Y-120285187D01*
X146571985Y-120330160D01*
X146362623Y-120470051D01*
X146269112Y-120610000D01*
X145586546Y-120610000D01*
X145575187Y-120552892D01*
X145442575Y-120354425D01*
X145360000Y-120299250D01*
X145360000Y-105181733D01*
X145457991Y-105083913D01*
X145625808Y-104679763D01*
X145626190Y-104242156D01*
X145459078Y-103837714D01*
X145149913Y-103528009D01*
X144745763Y-103360192D01*
X144308156Y-103359810D01*
X143903714Y-103526922D01*
X143594009Y-103836087D01*
X143426192Y-104240237D01*
X143425810Y-104677844D01*
X143592922Y-105082286D01*
X143660000Y-105149481D01*
X143660000Y-120299250D01*
X143577425Y-120354425D01*
X143444813Y-120552892D01*
X143398246Y-120787000D01*
X143398246Y-122037000D01*
X143444813Y-122271108D01*
X143577425Y-122469575D01*
X143775892Y-122602187D01*
X144010000Y-122648754D01*
X145010000Y-122648754D01*
X145244108Y-122602187D01*
X145442575Y-122469575D01*
X145549200Y-122310000D01*
X146269112Y-122310000D01*
X146362623Y-122449949D01*
X146781748Y-122730000D01*
X146362623Y-123010051D01*
X146059141Y-123464243D01*
X145952572Y-124000000D01*
X146059141Y-124535757D01*
X146362623Y-124989949D01*
X146781748Y-125270000D01*
X146362623Y-125550051D01*
X146059141Y-126004243D01*
X145952572Y-126540000D01*
X145960630Y-126580512D01*
X140640538Y-131900604D01*
X140429184Y-132216916D01*
X140362393Y-132552702D01*
X140354967Y-132590033D01*
X140354967Y-147171967D01*
X140429184Y-147545084D01*
X140640538Y-147861396D01*
X144313000Y-151533858D01*
X144313000Y-155376675D01*
X144262695Y-155410288D01*
X144190674Y-155518076D01*
X144163187Y-155379892D01*
X144030575Y-155181425D01*
X143832108Y-155048813D01*
X143598000Y-155002246D01*
X141898000Y-155002246D01*
X141663892Y-155048813D01*
X141566333Y-155114000D01*
X137834355Y-155114000D01*
X137319656Y-154900278D01*
X136683137Y-154899723D01*
X136094857Y-155142795D01*
X136087639Y-155150000D01*
X122769188Y-155150000D01*
X100014594Y-132395406D01*
X99576622Y-132102763D01*
X99060000Y-132000000D01*
X98543378Y-132102763D01*
X98105406Y-132395406D01*
X97812763Y-132833378D01*
X97710000Y-133350000D01*
X97812763Y-133866622D01*
X98105406Y-134304594D01*
X121255406Y-157454594D01*
X121693377Y-157747237D01*
X122210000Y-157850000D01*
X136086876Y-157850000D01*
X136092489Y-157855623D01*
X136680344Y-158099722D01*
X137316863Y-158100277D01*
X137905143Y-157857205D01*
X137948424Y-157814000D01*
X141566333Y-157814000D01*
X141663892Y-157879187D01*
X141898000Y-157925754D01*
X143598000Y-157925754D01*
X143832108Y-157879187D01*
X144030575Y-157746575D01*
X144163187Y-157548108D01*
X144190674Y-157409924D01*
X144262695Y-157517712D01*
X144733109Y-157832032D01*
X145288000Y-157942407D01*
X145842891Y-157832032D01*
X146313305Y-157517712D01*
X146558000Y-157151499D01*
X146802695Y-157517712D01*
X147273109Y-157832032D01*
X147828000Y-157942407D01*
X148382891Y-157832032D01*
X148853305Y-157517712D01*
X149098000Y-157151499D01*
X149342695Y-157517712D01*
X149813109Y-157832032D01*
X150368000Y-157942407D01*
X150922891Y-157832032D01*
X151393305Y-157517712D01*
X151638000Y-157151499D01*
X151882695Y-157517712D01*
X152353109Y-157832032D01*
X152908000Y-157942407D01*
X153462891Y-157832032D01*
X153933305Y-157517712D01*
X154178000Y-157151499D01*
X154422695Y-157517712D01*
X154893109Y-157832032D01*
X155448000Y-157942407D01*
X156002891Y-157832032D01*
X156473305Y-157517712D01*
X156718000Y-157151499D01*
X156962695Y-157517712D01*
X157433109Y-157832032D01*
X157988000Y-157942407D01*
X158542891Y-157832032D01*
X159013305Y-157517712D01*
X159258000Y-157151499D01*
X159502695Y-157517712D01*
X159973109Y-157832032D01*
X160528000Y-157942407D01*
X161082891Y-157832032D01*
X161553305Y-157517712D01*
X161867625Y-157047298D01*
X161978000Y-156492407D01*
X161978000Y-156435593D01*
X161878000Y-155932860D01*
X161878000Y-132588000D01*
X161844187Y-132418009D01*
X161775238Y-132071378D01*
X161482594Y-131633406D01*
X156656594Y-126807406D01*
X156407363Y-126640875D01*
X156427428Y-126540000D01*
X156320859Y-126004243D01*
X156017377Y-125550051D01*
X155598252Y-125270000D01*
X156017377Y-124989949D01*
X156320859Y-124535757D01*
X156427428Y-124000000D01*
X156320859Y-123464243D01*
X156017377Y-123010051D01*
X155563185Y-122706569D01*
X155027428Y-122600000D01*
X154972572Y-122600000D01*
X154436815Y-122706569D01*
X153982623Y-123010051D01*
X153679141Y-123464243D01*
X153572572Y-124000000D01*
X153679141Y-124535757D01*
X153982623Y-124989949D01*
X154401748Y-125270000D01*
X153982623Y-125550051D01*
X153679141Y-126004243D01*
X153572572Y-126540000D01*
X153650000Y-126929256D01*
X153650000Y-128690744D01*
X153572572Y-129080000D01*
X153679141Y-129615757D01*
X153982623Y-130069949D01*
X154401748Y-130350000D01*
X153982623Y-130630051D01*
X153679141Y-131084243D01*
X153572572Y-131620000D01*
X153679141Y-132155757D01*
X153982623Y-132609949D01*
X154401748Y-132890000D01*
X153982623Y-133170051D01*
X153679141Y-133624243D01*
X153587423Y-134085341D01*
X152488000Y-132985918D01*
X152488000Y-118920000D01*
X153572572Y-118920000D01*
X153679141Y-119455757D01*
X153982623Y-119909949D01*
X154436815Y-120213431D01*
X154972572Y-120320000D01*
X155027428Y-120320000D01*
X155563185Y-120213431D01*
X156017377Y-119909949D01*
X156320859Y-119455757D01*
X156427428Y-118920000D01*
X156320859Y-118384243D01*
X156017377Y-117930051D01*
X155563185Y-117626569D01*
X155027428Y-117520000D01*
X154972572Y-117520000D01*
X154436815Y-117626569D01*
X153982623Y-117930051D01*
X153679141Y-118384243D01*
X153572572Y-118920000D01*
X152488000Y-118920000D01*
X152488000Y-103124005D01*
X152488001Y-103124000D01*
X152423298Y-102798719D01*
X152239041Y-102522959D01*
X140357926Y-90641844D01*
X145965810Y-90641844D01*
X146132922Y-91046286D01*
X146216000Y-91129509D01*
X146216000Y-94798239D01*
X146134009Y-94880087D01*
X145966192Y-95284237D01*
X145965810Y-95721844D01*
X146132922Y-96126286D01*
X146442087Y-96435991D01*
X146846237Y-96603808D01*
X147283844Y-96604190D01*
X147688286Y-96437078D01*
X147997991Y-96127913D01*
X148165808Y-95723763D01*
X148166190Y-95286156D01*
X147999078Y-94881714D01*
X147916000Y-94798491D01*
X147916000Y-91129761D01*
X147997991Y-91047913D01*
X148165808Y-90643763D01*
X148166190Y-90206156D01*
X147999078Y-89801714D01*
X147689913Y-89492009D01*
X147285763Y-89324192D01*
X146848156Y-89323810D01*
X146443714Y-89490922D01*
X146134009Y-89800087D01*
X145966192Y-90204237D01*
X145965810Y-90641844D01*
X140357926Y-90641844D01*
X137248000Y-87531918D01*
X137248000Y-86403007D01*
X137541807Y-86109712D01*
X137668056Y-85805670D01*
X137792858Y-86107715D01*
X138172288Y-86487807D01*
X138668290Y-86693765D01*
X139205353Y-86694234D01*
X139701715Y-86489142D01*
X140081807Y-86109712D01*
X140208056Y-85805670D01*
X140332858Y-86107715D01*
X140712288Y-86487807D01*
X141208290Y-86693765D01*
X141745353Y-86694234D01*
X142241715Y-86489142D01*
X142621807Y-86109712D01*
X142827765Y-85613710D01*
X142828234Y-85076647D01*
X142623142Y-84580285D01*
X142243712Y-84200193D01*
X141747710Y-83994235D01*
X141210647Y-83993766D01*
X140714285Y-84198858D01*
X140334193Y-84578288D01*
X140207944Y-84882330D01*
X140083142Y-84580285D01*
X139703712Y-84200193D01*
X139207710Y-83994235D01*
X138789951Y-83993870D01*
X136999041Y-82202959D01*
X136723281Y-82018702D01*
X136398000Y-81954000D01*
X112268000Y-81954000D01*
X111942719Y-82018702D01*
X111666959Y-82202959D01*
X109149208Y-84720710D01*
X89111754Y-84720710D01*
X89111754Y-80250000D01*
X89008097Y-79728879D01*
X88712905Y-79287095D01*
X88271121Y-78991903D01*
X87750000Y-78888246D01*
X86250000Y-78888246D01*
X85728879Y-78991903D01*
X85287095Y-79287095D01*
X84991903Y-79728879D01*
X84888246Y-80250000D01*
X78942000Y-80250000D01*
X78942000Y-67056000D01*
X78694608Y-65812279D01*
X77990097Y-64757903D01*
X71199102Y-57966908D01*
X107354000Y-57966908D01*
X107354000Y-80010000D01*
X107418702Y-80335281D01*
X107602959Y-80611041D01*
X109007958Y-82016039D01*
X109007960Y-82016042D01*
X109008911Y-82016993D01*
X109008810Y-82132844D01*
X109175922Y-82537286D01*
X109485087Y-82846991D01*
X109889237Y-83014808D01*
X110326844Y-83015190D01*
X110731286Y-82848078D01*
X111040991Y-82538913D01*
X111208808Y-82134763D01*
X111208838Y-82100008D01*
X111417857Y-82100190D01*
X111822299Y-81933078D01*
X112132004Y-81623913D01*
X112299821Y-81219763D01*
X112300203Y-80782156D01*
X112133091Y-80377714D01*
X111823926Y-80068009D01*
X111419776Y-79900192D01*
X111302184Y-79900089D01*
X110324000Y-78921905D01*
X110324000Y-72911353D01*
X121077766Y-72911353D01*
X121282858Y-73407715D01*
X121662288Y-73787807D01*
X122158290Y-73993765D01*
X122576048Y-73994130D01*
X123488968Y-74907049D01*
X123488970Y-74907052D01*
X123764730Y-75091309D01*
X124090011Y-75156011D01*
X133389929Y-75156011D01*
X158662000Y-100428082D01*
X158662000Y-101506028D01*
X158627892Y-101512813D01*
X158429425Y-101645425D01*
X158296813Y-101843892D01*
X158250246Y-102078000D01*
X158250246Y-102778000D01*
X158296813Y-103012108D01*
X158429425Y-103210575D01*
X158627892Y-103343187D01*
X158802909Y-103378000D01*
X158627892Y-103412813D01*
X158530333Y-103478000D01*
X158460382Y-103478000D01*
X158434594Y-103439406D01*
X157996623Y-103146763D01*
X157480000Y-103044000D01*
X155448000Y-103044000D01*
X154931377Y-103146763D01*
X154493406Y-103439406D01*
X154200763Y-103877377D01*
X154098000Y-104394000D01*
X154200763Y-104910623D01*
X154493406Y-105348594D01*
X154931377Y-105641237D01*
X155448000Y-105744000D01*
X157480000Y-105744000D01*
X157996623Y-105641237D01*
X158434594Y-105348594D01*
X158542949Y-105186430D01*
X158627892Y-105243187D01*
X158662000Y-105249972D01*
X158662000Y-109551490D01*
X158550813Y-109717892D01*
X158504246Y-109952000D01*
X158504246Y-110652000D01*
X158550813Y-110886108D01*
X158683425Y-111084575D01*
X158881892Y-111217187D01*
X159056909Y-111252000D01*
X158881892Y-111286813D01*
X158683425Y-111419425D01*
X158550813Y-111617892D01*
X158504246Y-111852000D01*
X158504246Y-112552000D01*
X158550813Y-112786108D01*
X158683425Y-112984575D01*
X158881892Y-113117187D01*
X159116000Y-113163754D01*
X160416000Y-113163754D01*
X160650108Y-113117187D01*
X160747667Y-113052000D01*
X161910671Y-113052000D01*
X161946288Y-113105305D01*
X162416702Y-113419625D01*
X162971593Y-113530000D01*
X163028407Y-113530000D01*
X163583298Y-113419625D01*
X164053712Y-113105305D01*
X164170847Y-112930000D01*
X164202081Y-112930000D01*
X164527362Y-112865298D01*
X164803122Y-112681041D01*
X167501052Y-109983111D01*
X167685309Y-109707351D01*
X167750011Y-109382070D01*
X167750011Y-101627209D01*
X167750012Y-101627204D01*
X167685309Y-101301923D01*
X167501052Y-101026163D01*
X164973837Y-98498948D01*
X164698077Y-98314691D01*
X164372796Y-98249989D01*
X160160876Y-98249989D01*
X133953847Y-72042959D01*
X133678087Y-71858702D01*
X133352806Y-71794000D01*
X126027007Y-71794000D01*
X125733712Y-71500193D01*
X125237710Y-71294235D01*
X124700647Y-71293766D01*
X124204285Y-71498858D01*
X123824193Y-71878288D01*
X123697944Y-72182330D01*
X123573142Y-71880285D01*
X123193712Y-71500193D01*
X122697710Y-71294235D01*
X122160647Y-71293766D01*
X121664285Y-71498858D01*
X121284193Y-71878288D01*
X121078235Y-72374290D01*
X121077766Y-72911353D01*
X110324000Y-72911353D01*
X110324000Y-70371353D01*
X112187766Y-70371353D01*
X112392858Y-70867715D01*
X112772288Y-71247807D01*
X113268290Y-71453765D01*
X113805353Y-71454234D01*
X114301715Y-71249142D01*
X114681807Y-70869712D01*
X114887765Y-70373710D01*
X114888234Y-69836647D01*
X114683142Y-69340285D01*
X114303712Y-68960193D01*
X113807710Y-68754235D01*
X113270647Y-68753766D01*
X112774285Y-68958858D01*
X112394193Y-69338288D01*
X112188235Y-69834290D01*
X112187766Y-70371353D01*
X110324000Y-70371353D01*
X110324000Y-59633753D01*
X110405991Y-59551905D01*
X110573808Y-59147755D01*
X110574190Y-58710148D01*
X110407078Y-58305706D01*
X110267646Y-58166031D01*
X110406005Y-58027913D01*
X110573822Y-57623763D01*
X110574204Y-57186156D01*
X110407092Y-56781714D01*
X110097927Y-56472009D01*
X109693777Y-56304192D01*
X109256170Y-56303810D01*
X108851728Y-56470922D01*
X108768505Y-56554000D01*
X108766908Y-56554000D01*
X108441627Y-56618702D01*
X108165867Y-56802959D01*
X107602959Y-57365867D01*
X107418702Y-57641627D01*
X107354000Y-57966908D01*
X71199102Y-57966908D01*
X68667881Y-55435687D01*
X82799619Y-55435687D01*
X83133843Y-56244572D01*
X83752173Y-56863982D01*
X84560473Y-57199618D01*
X85435687Y-57200381D01*
X86244572Y-56866157D01*
X86863982Y-56247827D01*
X87199618Y-55439527D01*
X87200119Y-54864000D01*
X115744000Y-54864000D01*
X115744000Y-61943436D01*
X115846763Y-62460059D01*
X116094645Y-62831040D01*
X116139406Y-62898030D01*
X118965970Y-65724594D01*
X119403941Y-66017237D01*
X119920564Y-66120000D01*
X120308000Y-66120000D01*
X120308000Y-69044993D01*
X120014193Y-69338288D01*
X119887944Y-69642330D01*
X119763142Y-69340285D01*
X119383712Y-68960193D01*
X118887710Y-68754235D01*
X118350647Y-68753766D01*
X117854285Y-68958858D01*
X117474193Y-69338288D01*
X117268235Y-69834290D01*
X117267766Y-70371353D01*
X117472858Y-70867715D01*
X117852288Y-71247807D01*
X118348290Y-71453765D01*
X118885353Y-71454234D01*
X119381715Y-71249142D01*
X119761807Y-70869712D01*
X119888056Y-70565670D01*
X120012858Y-70867715D01*
X120392288Y-71247807D01*
X120888290Y-71453765D01*
X121425353Y-71454234D01*
X121921715Y-71249142D01*
X122301807Y-70869712D01*
X122428056Y-70565670D01*
X122552858Y-70867715D01*
X122932288Y-71247807D01*
X123428290Y-71453765D01*
X123965353Y-71454234D01*
X124461715Y-71249142D01*
X124841807Y-70869712D01*
X124968056Y-70565670D01*
X125092858Y-70867715D01*
X125472288Y-71247807D01*
X125968290Y-71453765D01*
X126505353Y-71454234D01*
X127001715Y-71249142D01*
X127381807Y-70869712D01*
X127508056Y-70565670D01*
X127632858Y-70867715D01*
X128012288Y-71247807D01*
X128508290Y-71453765D01*
X129045353Y-71454234D01*
X129541715Y-71249142D01*
X129921807Y-70869712D01*
X130048056Y-70565670D01*
X130172858Y-70867715D01*
X130552288Y-71247807D01*
X131048290Y-71453765D01*
X131585353Y-71454234D01*
X132081715Y-71249142D01*
X132461807Y-70869712D01*
X132588056Y-70565670D01*
X132712858Y-70867715D01*
X133092288Y-71247807D01*
X133588290Y-71453765D01*
X134125353Y-71454234D01*
X134621715Y-71249142D01*
X135001807Y-70869712D01*
X135128056Y-70565670D01*
X135252858Y-70867715D01*
X135632288Y-71247807D01*
X136128290Y-71453765D01*
X136665353Y-71454234D01*
X137161715Y-71249142D01*
X137541807Y-70869712D01*
X137668056Y-70565670D01*
X137792858Y-70867715D01*
X138172288Y-71247807D01*
X138668290Y-71453765D01*
X139205353Y-71454234D01*
X139701715Y-71249142D01*
X140081807Y-70869712D01*
X140208056Y-70565670D01*
X140332858Y-70867715D01*
X140712288Y-71247807D01*
X141016330Y-71374056D01*
X140714285Y-71498858D01*
X140334193Y-71878288D01*
X140128235Y-72374290D01*
X140127766Y-72911353D01*
X140332858Y-73407715D01*
X140712288Y-73787807D01*
X141016330Y-73914056D01*
X140714285Y-74038858D01*
X140334193Y-74418288D01*
X140128235Y-74914290D01*
X140127766Y-75451353D01*
X140332858Y-75947715D01*
X140712288Y-76327807D01*
X141208290Y-76533765D01*
X141745353Y-76534234D01*
X142241715Y-76329142D01*
X142621807Y-75949712D01*
X142780246Y-75568148D01*
X151343524Y-75568148D01*
X151724084Y-76489174D01*
X152428137Y-77194456D01*
X153348497Y-77576623D01*
X154345047Y-77577493D01*
X154806256Y-77386926D01*
X154646371Y-77771970D01*
X154645546Y-78717997D01*
X154806378Y-79107241D01*
X154349419Y-78917495D01*
X153352869Y-78916625D01*
X152431843Y-79297185D01*
X151726561Y-80001238D01*
X151344394Y-80921598D01*
X151343524Y-81918148D01*
X151724084Y-82839174D01*
X152428137Y-83544456D01*
X153348497Y-83926623D01*
X154345047Y-83927493D01*
X155266073Y-83546933D01*
X155971355Y-82842880D01*
X156353522Y-81922520D01*
X156354392Y-80925970D01*
X156163825Y-80464761D01*
X156548869Y-80624646D01*
X157494896Y-80625471D01*
X157884140Y-80464639D01*
X157694394Y-80921598D01*
X157693524Y-81918148D01*
X158074084Y-82839174D01*
X158778137Y-83544456D01*
X159698497Y-83926623D01*
X160695047Y-83927493D01*
X161616073Y-83546933D01*
X162321355Y-82842880D01*
X162703522Y-81922520D01*
X162704392Y-80925970D01*
X162323832Y-80004944D01*
X161619779Y-79299662D01*
X160699419Y-78917495D01*
X159702869Y-78916625D01*
X159241660Y-79107192D01*
X159401545Y-78722148D01*
X159402370Y-77776121D01*
X159241538Y-77386877D01*
X159698497Y-77576623D01*
X160695047Y-77577493D01*
X161616073Y-77196933D01*
X162321355Y-76492880D01*
X162703522Y-75572520D01*
X162704392Y-74575970D01*
X162323832Y-73654944D01*
X161619779Y-72949662D01*
X160699419Y-72567495D01*
X159702869Y-72566625D01*
X158781843Y-72947185D01*
X158076561Y-73651238D01*
X157949000Y-73958439D01*
X157949000Y-72587761D01*
X158030991Y-72505913D01*
X158198808Y-72101763D01*
X158199190Y-71664156D01*
X158032078Y-71259714D01*
X157722913Y-70950009D01*
X157318763Y-70782192D01*
X156881156Y-70781810D01*
X156476714Y-70948922D01*
X156167009Y-71258087D01*
X155999192Y-71662237D01*
X155998810Y-72099844D01*
X156165922Y-72504286D01*
X156249000Y-72587509D01*
X156249000Y-74320902D01*
X155973832Y-73654944D01*
X155269779Y-72949662D01*
X154349419Y-72567495D01*
X153352869Y-72566625D01*
X152431843Y-72947185D01*
X151726561Y-73651238D01*
X151344394Y-74571598D01*
X151343524Y-75568148D01*
X142780246Y-75568148D01*
X142827765Y-75453710D01*
X142828234Y-74916647D01*
X142623142Y-74420285D01*
X142243712Y-74040193D01*
X141939670Y-73913944D01*
X142241715Y-73789142D01*
X142621807Y-73409712D01*
X142827765Y-72913710D01*
X142828234Y-72376647D01*
X142623142Y-71880285D01*
X142243712Y-71500193D01*
X141939670Y-71373944D01*
X142241715Y-71249142D01*
X142621807Y-70869712D01*
X142827765Y-70373710D01*
X142828234Y-69836647D01*
X142623142Y-69340285D01*
X142335204Y-69051844D01*
X153268310Y-69051844D01*
X153435422Y-69456286D01*
X153744587Y-69765991D01*
X154148737Y-69933808D01*
X154586344Y-69934190D01*
X154990786Y-69767078D01*
X155300491Y-69457913D01*
X155468308Y-69053763D01*
X155468411Y-68936171D01*
X156047568Y-68357014D01*
X156200758Y-68357014D01*
X156434866Y-68310447D01*
X156633333Y-68177835D01*
X156765945Y-67979368D01*
X156812512Y-67745260D01*
X156812512Y-67045260D01*
X156765945Y-66811152D01*
X156633333Y-66612685D01*
X156434866Y-66480073D01*
X156259849Y-66445260D01*
X156434866Y-66410447D01*
X156633333Y-66277835D01*
X156765945Y-66079368D01*
X156812512Y-65845260D01*
X156812512Y-65145260D01*
X156765945Y-64911152D01*
X156633333Y-64712685D01*
X156563535Y-64666047D01*
X157708993Y-63520589D01*
X157824844Y-63520690D01*
X158229286Y-63353578D01*
X158538991Y-63044413D01*
X158706808Y-62640263D01*
X158707190Y-62202656D01*
X158540078Y-61798214D01*
X158230913Y-61488509D01*
X157826763Y-61320692D01*
X157389156Y-61320310D01*
X156984714Y-61487422D01*
X156675009Y-61796587D01*
X156507192Y-62200737D01*
X156507089Y-62318329D01*
X154949717Y-63875701D01*
X154765460Y-64151461D01*
X154700758Y-64476742D01*
X154700758Y-64573288D01*
X154666650Y-64580073D01*
X154468183Y-64712685D01*
X154335571Y-64911152D01*
X154289004Y-65145260D01*
X154289004Y-65845260D01*
X154335571Y-66079368D01*
X154468183Y-66277835D01*
X154666650Y-66410447D01*
X154841667Y-66445260D01*
X154666650Y-66480073D01*
X154468183Y-66612685D01*
X154335571Y-66811152D01*
X154289004Y-67045260D01*
X154289004Y-67711414D01*
X154266507Y-67733911D01*
X154150656Y-67733810D01*
X153746214Y-67900922D01*
X153436509Y-68210087D01*
X153268692Y-68614237D01*
X153268310Y-69051844D01*
X142335204Y-69051844D01*
X142243712Y-68960193D01*
X141747710Y-68754235D01*
X141329952Y-68753870D01*
X140428041Y-67851959D01*
X140152281Y-67667702D01*
X139827000Y-67603000D01*
X138911888Y-67603000D01*
X125490888Y-54182000D01*
X155272826Y-54182000D01*
X163650014Y-62559188D01*
X163650014Y-62999930D01*
X163650000Y-63000000D01*
X163650000Y-83470812D01*
X162045406Y-85075406D01*
X161752763Y-85513377D01*
X161650000Y-86030000D01*
X161650000Y-87198333D01*
X161584813Y-87295892D01*
X161538246Y-87530000D01*
X160077693Y-87530000D01*
X159908000Y-87496246D01*
X158608000Y-87496246D01*
X158373892Y-87542813D01*
X158175425Y-87675425D01*
X158042813Y-87873892D01*
X157996246Y-88108000D01*
X157996246Y-88808000D01*
X158042813Y-89042108D01*
X158175425Y-89240575D01*
X158373892Y-89373187D01*
X158548909Y-89408000D01*
X158373892Y-89442813D01*
X158175425Y-89575425D01*
X158042813Y-89773892D01*
X157996246Y-90008000D01*
X157996246Y-90708000D01*
X158042813Y-90942108D01*
X158175425Y-91140575D01*
X158373892Y-91273187D01*
X158408000Y-91279972D01*
X158408000Y-92590183D01*
X158357913Y-92540009D01*
X157953763Y-92372192D01*
X157516156Y-92371810D01*
X157111714Y-92538922D01*
X156802009Y-92848087D01*
X156634192Y-93252237D01*
X156633810Y-93689844D01*
X156800922Y-94094286D01*
X157110087Y-94403991D01*
X157514237Y-94571808D01*
X157951844Y-94572190D01*
X158356286Y-94405078D01*
X158439509Y-94322000D01*
X161837171Y-94322000D01*
X161946288Y-94485305D01*
X162312501Y-94730000D01*
X161946288Y-94974695D01*
X161631968Y-95445109D01*
X161521593Y-96000000D01*
X161631968Y-96554891D01*
X161946288Y-97025305D01*
X162416702Y-97339625D01*
X162971593Y-97450000D01*
X163028407Y-97450000D01*
X163583298Y-97339625D01*
X164053712Y-97025305D01*
X164368032Y-96554891D01*
X164478407Y-96000000D01*
X164368032Y-95445109D01*
X164053712Y-94974695D01*
X163687499Y-94730000D01*
X164053712Y-94485305D01*
X164368032Y-94014891D01*
X164478407Y-93460000D01*
X164368032Y-92905109D01*
X164053712Y-92434695D01*
X163583298Y-92120375D01*
X163028407Y-92010000D01*
X162971593Y-92010000D01*
X162416702Y-92120375D01*
X161946288Y-92434695D01*
X161821135Y-92622000D01*
X160108000Y-92622000D01*
X160108000Y-91279972D01*
X160142108Y-91273187D01*
X160340575Y-91140575D01*
X160473187Y-90942108D01*
X160519754Y-90708000D01*
X160519754Y-90008000D01*
X160473187Y-89773892D01*
X160340575Y-89575425D01*
X160142108Y-89442813D01*
X159967091Y-89408000D01*
X160142108Y-89373187D01*
X160340575Y-89240575D01*
X160347641Y-89230000D01*
X161538246Y-89230000D01*
X161584813Y-89464108D01*
X161717425Y-89662575D01*
X161915892Y-89795187D01*
X162150000Y-89841754D01*
X163850000Y-89841754D01*
X164084108Y-89795187D01*
X164282575Y-89662575D01*
X164415187Y-89464108D01*
X164461754Y-89230000D01*
X164461754Y-87530000D01*
X164415187Y-87295892D01*
X164350000Y-87198333D01*
X164350000Y-86589188D01*
X165954594Y-84984594D01*
X166089453Y-84782763D01*
X166247237Y-84546623D01*
X166350000Y-84030000D01*
X166350000Y-63000056D01*
X166350014Y-62999986D01*
X166350014Y-62000000D01*
X166247251Y-61483377D01*
X165954608Y-61045406D01*
X160344889Y-55435687D01*
X162799619Y-55435687D01*
X163133843Y-56244572D01*
X163752173Y-56863982D01*
X164560473Y-57199618D01*
X165435687Y-57200381D01*
X166244572Y-56866157D01*
X166863982Y-56247827D01*
X167199618Y-55439527D01*
X167200381Y-54564313D01*
X166866157Y-53755428D01*
X166247827Y-53136018D01*
X165439527Y-52800382D01*
X164564313Y-52799619D01*
X163755428Y-53133843D01*
X163136018Y-53752173D01*
X162800382Y-54560473D01*
X162799619Y-55435687D01*
X160344889Y-55435687D01*
X156786608Y-51877406D01*
X156583493Y-51741689D01*
X156348637Y-51584763D01*
X155832014Y-51482000D01*
X119126000Y-51482000D01*
X118609377Y-51584763D01*
X118374521Y-51741689D01*
X118171406Y-51877406D01*
X116139406Y-53909406D01*
X115846763Y-54347377D01*
X115744000Y-54864000D01*
X87200119Y-54864000D01*
X87200381Y-54564313D01*
X86866157Y-53755428D01*
X86247827Y-53136018D01*
X85439527Y-52800382D01*
X84564313Y-52799619D01*
X83755428Y-53133843D01*
X83136018Y-53752173D01*
X82800382Y-54560473D01*
X82799619Y-55435687D01*
X68667881Y-55435687D01*
X68394097Y-55161903D01*
X67339721Y-54457392D01*
X66096000Y-54210000D01*
X57568363Y-54210000D01*
X57065630Y-54110000D01*
X56934370Y-54110000D01*
X55652381Y-54365004D01*
X54565562Y-55091192D01*
X53839374Y-56178011D01*
X53584370Y-57460000D01*
X53839374Y-58741989D01*
X54565562Y-59828808D01*
X55652381Y-60554996D01*
X56934370Y-60810000D01*
X57065630Y-60810000D01*
X57568363Y-60710000D01*
X64749806Y-60710000D01*
X72442000Y-68402194D01*
X72442000Y-139809027D01*
X71699247Y-139500609D01*
X70306861Y-139499394D01*
X69700348Y-139750000D01*
X69670194Y-139750000D01*
X67766000Y-137845806D01*
X67766000Y-127766000D01*
X67518608Y-126522279D01*
X66814097Y-125467903D01*
X62048097Y-120701903D01*
X60993721Y-119997392D01*
X60250000Y-119849456D01*
X60250000Y-117332390D01*
X60797857Y-116512464D01*
X61048977Y-115250000D01*
X61048977Y-107750000D01*
X60797857Y-106487536D01*
X60082729Y-105417271D01*
X59012464Y-104702143D01*
X57750000Y-104451023D01*
X56250000Y-104451023D01*
X54987536Y-104702143D01*
X53917271Y-105417271D01*
X53202143Y-106487536D01*
X52951023Y-107750000D01*
X51200000Y-107750000D01*
X51200000Y-74750000D01*
X52951023Y-74750000D01*
X52951023Y-82250000D01*
X53202143Y-83512464D01*
X53917271Y-84582729D01*
X54987536Y-85297857D01*
X56250000Y-85548977D01*
X57750000Y-85548977D01*
X59012464Y-85297857D01*
X60082729Y-84582729D01*
X60797857Y-83512464D01*
X61048977Y-82250000D01*
X61048977Y-74750000D01*
X60797857Y-73487536D01*
X60250000Y-72667610D01*
X60250000Y-66678959D01*
X60398977Y-65930000D01*
X60398977Y-64230000D01*
X60204948Y-63254549D01*
X59652399Y-62427601D01*
X58825451Y-61875052D01*
X57850000Y-61681023D01*
X56150000Y-61681023D01*
X55174549Y-61875052D01*
X54347601Y-62427601D01*
X53795052Y-63254549D01*
X53601023Y-64230000D01*
X53601023Y-65930000D01*
X53750000Y-66678959D01*
X53750000Y-72667610D01*
X53202143Y-73487536D01*
X52951023Y-74750000D01*
X51200000Y-74750000D01*
X51200000Y-51200000D01*
X168800000Y-51200000D01*
X168800000Y-168800000D01*
G36*
X149887989Y-136109359D02*
X149952691Y-136434640D01*
X150136948Y-136710400D01*
X153267589Y-139841041D01*
X153543349Y-140025298D01*
X153868630Y-140090000D01*
X153889112Y-140090000D01*
X153982623Y-140229949D01*
X154436815Y-140533431D01*
X154972572Y-140640000D01*
X155027428Y-140640000D01*
X155563185Y-140533431D01*
X156017377Y-140229949D01*
X156320859Y-139775757D01*
X156427428Y-139240000D01*
X156320859Y-138704243D01*
X156017377Y-138250051D01*
X155598252Y-137970000D01*
X156017377Y-137689949D01*
X156320859Y-137235757D01*
X156383248Y-136922106D01*
X156505000Y-137043858D01*
X156505000Y-151385781D01*
X154758571Y-153132210D01*
X154547217Y-153448522D01*
X154526690Y-153551721D01*
X154473000Y-153821639D01*
X154473000Y-155376675D01*
X154422695Y-155410288D01*
X154178000Y-155776501D01*
X153933305Y-155410288D01*
X153883000Y-155376675D01*
X153883000Y-153870918D01*
X153819508Y-153551721D01*
X153808783Y-153497801D01*
X153597429Y-153181489D01*
X145755000Y-145339060D01*
X145755000Y-137163858D01*
X145996752Y-136922106D01*
X146059141Y-137235757D01*
X146362623Y-137689949D01*
X146816815Y-137993431D01*
X147352572Y-138100000D01*
X147407428Y-138100000D01*
X147943185Y-137993431D01*
X148397377Y-137689949D01*
X148700859Y-137235757D01*
X148807428Y-136700000D01*
X148700859Y-136164243D01*
X148397377Y-135710051D01*
X147978252Y-135430000D01*
X148397377Y-135149949D01*
X148700859Y-134695757D01*
X148807428Y-134160000D01*
X148700859Y-133624243D01*
X148397377Y-133170051D01*
X147978252Y-132890000D01*
X148397377Y-132609949D01*
X148700859Y-132155757D01*
X148807428Y-131620000D01*
X148700859Y-131084243D01*
X148397377Y-130630051D01*
X147978252Y-130350000D01*
X148397377Y-130069949D01*
X148700859Y-129615757D01*
X148807428Y-129080000D01*
X148700859Y-128544243D01*
X148397377Y-128090051D01*
X147978252Y-127810000D01*
X148397377Y-127529949D01*
X148700859Y-127075757D01*
X148807428Y-126540000D01*
X148700859Y-126004243D01*
X148397377Y-125550051D01*
X147978252Y-125270000D01*
X148397377Y-124989949D01*
X148490888Y-124850000D01*
X149887989Y-124850000D01*
X149887989Y-136109359D01*
X149887989Y-136109359D01*
G37*
X149887989Y-136109359D02*
X149952691Y-136434640D01*
X150136948Y-136710400D01*
X153267589Y-139841041D01*
X153543349Y-140025298D01*
X153868630Y-140090000D01*
X153889112Y-140090000D01*
X153982623Y-140229949D01*
X154436815Y-140533431D01*
X154972572Y-140640000D01*
X155027428Y-140640000D01*
X155563185Y-140533431D01*
X156017377Y-140229949D01*
X156320859Y-139775757D01*
X156427428Y-139240000D01*
X156320859Y-138704243D01*
X156017377Y-138250051D01*
X155598252Y-137970000D01*
X156017377Y-137689949D01*
X156320859Y-137235757D01*
X156383248Y-136922106D01*
X156505000Y-137043858D01*
X156505000Y-151385781D01*
X154758571Y-153132210D01*
X154547217Y-153448522D01*
X154526690Y-153551721D01*
X154473000Y-153821639D01*
X154473000Y-155376675D01*
X154422695Y-155410288D01*
X154178000Y-155776501D01*
X153933305Y-155410288D01*
X153883000Y-155376675D01*
X153883000Y-153870918D01*
X153819508Y-153551721D01*
X153808783Y-153497801D01*
X153597429Y-153181489D01*
X145755000Y-145339060D01*
X145755000Y-137163858D01*
X145996752Y-136922106D01*
X146059141Y-137235757D01*
X146362623Y-137689949D01*
X146816815Y-137993431D01*
X147352572Y-138100000D01*
X147407428Y-138100000D01*
X147943185Y-137993431D01*
X148397377Y-137689949D01*
X148700859Y-137235757D01*
X148807428Y-136700000D01*
X148700859Y-136164243D01*
X148397377Y-135710051D01*
X147978252Y-135430000D01*
X148397377Y-135149949D01*
X148700859Y-134695757D01*
X148807428Y-134160000D01*
X148700859Y-133624243D01*
X148397377Y-133170051D01*
X147978252Y-132890000D01*
X148397377Y-132609949D01*
X148700859Y-132155757D01*
X148807428Y-131620000D01*
X148700859Y-131084243D01*
X148397377Y-130630051D01*
X147978252Y-130350000D01*
X148397377Y-130069949D01*
X148700859Y-129615757D01*
X148807428Y-129080000D01*
X148700859Y-128544243D01*
X148397377Y-128090051D01*
X147978252Y-127810000D01*
X148397377Y-127529949D01*
X148700859Y-127075757D01*
X148807428Y-126540000D01*
X148700859Y-126004243D01*
X148397377Y-125550051D01*
X147978252Y-125270000D01*
X148397377Y-124989949D01*
X148490888Y-124850000D01*
X149887989Y-124850000D01*
X149887989Y-136109359D01*
G36*
X165150000Y-102352082D02*
X165150000Y-108475918D01*
X164935918Y-108690000D01*
X164170847Y-108690000D01*
X164053712Y-108514695D01*
X163583298Y-108200375D01*
X163028407Y-108090000D01*
X162971593Y-108090000D01*
X162416702Y-108200375D01*
X161946288Y-108514695D01*
X161631968Y-108985109D01*
X161521593Y-109540000D01*
X161631968Y-110094891D01*
X161946288Y-110565305D01*
X162312501Y-110810000D01*
X161946288Y-111054695D01*
X161747636Y-111352000D01*
X160747667Y-111352000D01*
X160650108Y-111286813D01*
X160475091Y-111252000D01*
X160650108Y-111217187D01*
X160848575Y-111084575D01*
X160981187Y-110886108D01*
X161027754Y-110652000D01*
X161027754Y-109952000D01*
X160981187Y-109717892D01*
X160848575Y-109519425D01*
X160650108Y-109386813D01*
X160416000Y-109340246D01*
X160362000Y-109340246D01*
X160362000Y-105310000D01*
X161538246Y-105310000D01*
X161584813Y-105544108D01*
X161717425Y-105742575D01*
X161915892Y-105875187D01*
X162150000Y-105921754D01*
X163850000Y-105921754D01*
X164084108Y-105875187D01*
X164282575Y-105742575D01*
X164415187Y-105544108D01*
X164461754Y-105310000D01*
X164461754Y-103610000D01*
X164415187Y-103375892D01*
X164282575Y-103177425D01*
X164084108Y-103044813D01*
X163850000Y-102998246D01*
X162150000Y-102998246D01*
X161915892Y-103044813D01*
X161717425Y-103177425D01*
X161584813Y-103375892D01*
X161538246Y-103610000D01*
X160637723Y-103610000D01*
X160594575Y-103545425D01*
X160396108Y-103412813D01*
X160221091Y-103378000D01*
X160396108Y-103343187D01*
X160594575Y-103210575D01*
X160727187Y-103012108D01*
X160773754Y-102778000D01*
X160773754Y-102078000D01*
X160727187Y-101843892D01*
X160594575Y-101645425D01*
X160396108Y-101512813D01*
X160362000Y-101506028D01*
X160362000Y-100850000D01*
X163647918Y-100850000D01*
X165150000Y-102352082D01*
X165150000Y-102352082D01*
G37*
X165150000Y-102352082D02*
X165150000Y-108475918D01*
X164935918Y-108690000D01*
X164170847Y-108690000D01*
X164053712Y-108514695D01*
X163583298Y-108200375D01*
X163028407Y-108090000D01*
X162971593Y-108090000D01*
X162416702Y-108200375D01*
X161946288Y-108514695D01*
X161631968Y-108985109D01*
X161521593Y-109540000D01*
X161631968Y-110094891D01*
X161946288Y-110565305D01*
X162312501Y-110810000D01*
X161946288Y-111054695D01*
X161747636Y-111352000D01*
X160747667Y-111352000D01*
X160650108Y-111286813D01*
X160475091Y-111252000D01*
X160650108Y-111217187D01*
X160848575Y-111084575D01*
X160981187Y-110886108D01*
X161027754Y-110652000D01*
X161027754Y-109952000D01*
X160981187Y-109717892D01*
X160848575Y-109519425D01*
X160650108Y-109386813D01*
X160416000Y-109340246D01*
X160362000Y-109340246D01*
X160362000Y-105310000D01*
X161538246Y-105310000D01*
X161584813Y-105544108D01*
X161717425Y-105742575D01*
X161915892Y-105875187D01*
X162150000Y-105921754D01*
X163850000Y-105921754D01*
X164084108Y-105875187D01*
X164282575Y-105742575D01*
X164415187Y-105544108D01*
X164461754Y-105310000D01*
X164461754Y-103610000D01*
X164415187Y-103375892D01*
X164282575Y-103177425D01*
X164084108Y-103044813D01*
X163850000Y-102998246D01*
X162150000Y-102998246D01*
X161915892Y-103044813D01*
X161717425Y-103177425D01*
X161584813Y-103375892D01*
X161538246Y-103610000D01*
X160637723Y-103610000D01*
X160594575Y-103545425D01*
X160396108Y-103412813D01*
X160221091Y-103378000D01*
X160396108Y-103343187D01*
X160594575Y-103210575D01*
X160727187Y-103012108D01*
X160773754Y-102778000D01*
X160773754Y-102078000D01*
X160727187Y-101843892D01*
X160594575Y-101645425D01*
X160396108Y-101512813D01*
X160362000Y-101506028D01*
X160362000Y-100850000D01*
X163647918Y-100850000D01*
X165150000Y-102352082D01*
G36*
X122446827Y-63064429D02*
X122861389Y-63479715D01*
X123403317Y-63704743D01*
X123971157Y-63705239D01*
X129020129Y-68754211D01*
X128510647Y-68753766D01*
X128014285Y-68958858D01*
X127634193Y-69338288D01*
X127507944Y-69642330D01*
X127383142Y-69340285D01*
X127003712Y-68960193D01*
X126507710Y-68754235D01*
X125970647Y-68753766D01*
X125474285Y-68958858D01*
X125094193Y-69338288D01*
X124967944Y-69642330D01*
X124843142Y-69340285D01*
X124463712Y-68960193D01*
X123967710Y-68754235D01*
X123430647Y-68753766D01*
X122934285Y-68958858D01*
X122554193Y-69338288D01*
X122427944Y-69642330D01*
X122303142Y-69340285D01*
X122008000Y-69044628D01*
X122008000Y-66005629D01*
X122407715Y-65606611D01*
X122632743Y-65064683D01*
X122633256Y-64477892D01*
X122409173Y-63935571D01*
X121994611Y-63520285D01*
X121946310Y-63500229D01*
X121992429Y-63481173D01*
X122407715Y-63066611D01*
X122427771Y-63018310D01*
X122446827Y-63064429D01*
X122446827Y-63064429D01*
G37*
X122446827Y-63064429D02*
X122861389Y-63479715D01*
X123403317Y-63704743D01*
X123971157Y-63705239D01*
X129020129Y-68754211D01*
X128510647Y-68753766D01*
X128014285Y-68958858D01*
X127634193Y-69338288D01*
X127507944Y-69642330D01*
X127383142Y-69340285D01*
X127003712Y-68960193D01*
X126507710Y-68754235D01*
X125970647Y-68753766D01*
X125474285Y-68958858D01*
X125094193Y-69338288D01*
X124967944Y-69642330D01*
X124843142Y-69340285D01*
X124463712Y-68960193D01*
X123967710Y-68754235D01*
X123430647Y-68753766D01*
X122934285Y-68958858D01*
X122554193Y-69338288D01*
X122427944Y-69642330D01*
X122303142Y-69340285D01*
X122008000Y-69044628D01*
X122008000Y-66005629D01*
X122407715Y-65606611D01*
X122632743Y-65064683D01*
X122633256Y-64477892D01*
X122409173Y-63935571D01*
X121994611Y-63520285D01*
X121946310Y-63500229D01*
X121992429Y-63481173D01*
X122407715Y-63066611D01*
X122427771Y-63018310D01*
X122446827Y-63064429D01*
M02*
