M48
;DRILL file {KiCad no-vcs-found-1848834~58~ubuntu16.04.1} date Sun Jun 18 23:26:28 2017
;FORMAT={-:-/ absolute / metric / decimal}
FMAT,2
METRIC,TZ
T1C0.500
T2C0.750
T3C0.762
T4C0.800
T5C1.000
T6C1.270
T7C1.500
T8C1.524
T9C3.000
T10C3.000
T11C3.200
%
G90
G05
M71
T1
X99.06Y-133.35
X109.474Y-58.928
X109.474Y-57.404
X110.109Y-81.915
X111.2Y-81.
X111.636Y-107.442
X130.81Y-91.186
X144.526Y-104.46
X147.066Y-90.424
X147.066Y-95.504
X151.055Y-68.096
X152.908Y-89.154
X154.368Y-68.834
X155.448Y-104.394
X155.832Y-52.832
X157.099Y-71.882
X157.607Y-62.42
X157.734Y-93.472
X159.31Y-68.858
X162.681Y-67.334
X162.739Y-69.747
T2
X57.Y-78.5
X57.Y-111.5
X87.Y-84.
X87.Y-106.
T3
X111.506Y-94.38
X114.046Y-94.38
X116.586Y-94.38
X119.126Y-94.38
X121.666Y-94.38
X124.206Y-94.38
X124.206Y-96.92
T4
X113.538Y-70.104
X113.538Y-85.344
X116.078Y-70.104
X116.078Y-85.344
X118.618Y-70.104
X118.618Y-85.344
X121.158Y-70.104
X121.158Y-85.344
X122.428Y-72.644
X123.698Y-70.104
X123.698Y-85.344
X124.968Y-72.644
X126.238Y-70.104
X126.238Y-85.344
X128.778Y-70.104
X128.778Y-85.344
X131.318Y-70.104
X131.318Y-85.344
X133.858Y-70.104
X133.858Y-85.344
X136.398Y-70.104
X136.398Y-85.344
X138.938Y-70.104
X138.938Y-85.344
X141.478Y-70.104
X141.478Y-72.644
X141.478Y-75.184
X141.478Y-77.724
X141.478Y-85.344
X121.158Y-57.15
X121.158Y-59.69
X121.158Y-62.23
X121.158Y-64.77
X123.698Y-57.15
X123.698Y-59.69
X123.698Y-62.23
X123.698Y-64.77
X147.38Y-118.92
X147.38Y-121.46
X147.38Y-124.
X147.38Y-126.54
X147.38Y-129.08
X147.38Y-131.62
X147.38Y-134.16
X147.38Y-136.7
X147.38Y-139.24
X147.38Y-141.78
X155.Y-118.92
X155.Y-121.46
X155.Y-124.
X155.Y-126.54
X155.Y-129.08
X155.Y-131.62
X155.Y-134.16
X155.Y-136.7
X155.Y-139.24
X155.Y-141.78
T5
X163.Y-88.38
X163.Y-90.92
X163.Y-93.46
X163.Y-96.
X124.984Y-126.904
X130.064Y-131.984
X57.Y-57.46
X57.Y-60.
X57.Y-62.54
X57.Y-65.08
X71.Y-143.
X71.Y-157.
X137.Y-147.5
X137.Y-156.5
X163.Y-104.46
X163.Y-107.
X163.Y-109.54
X163.Y-112.08
X142.748Y-156.464
X145.288Y-156.464
X147.828Y-156.464
X150.368Y-156.464
X152.908Y-156.464
X155.448Y-156.464
X157.988Y-156.464
X160.528Y-156.464
X57.Y-155.46
X57.Y-158.
X57.Y-160.54
X57.Y-163.08
X110.Y-127.
X115.08Y-132.08
T6
X157.024Y-78.247
T7
X70.Y-164.
X57.Y-123.
X57.Y-145.
T8
X153.849Y-75.072
X153.849Y-81.422
X160.199Y-75.072
X160.199Y-81.422
T9
X135.Y-138.
T10
X71.Y-150.
T11
X165.Y-165.
X165.Y-55.
X85.Y-55.
X85.Y-165.
T0
M30
